<svg xmlns="http://www.w3.org/2000/svg" xmlns:xlink="http://www.w3.org/1999/xlink" width="1080" zoomAndPan="magnify" viewBox="0 0 810 809.999993" height="1080" preserveAspectRatio="xMidYMid meet" version="1.0"><defs><clipPath id="1f268ad644"><path d="M 8.394531 1 L 733 1 L 733 810 L 8.394531 810 Z M 8.394531 1 " clip-rule="nonzero"/></clipPath><clipPath id="dabe966601"><path d="M 195 224 L 218 224 L 218 253.632812 L 195 253.632812 Z M 195 224 " clip-rule="nonzero"/></clipPath><clipPath id="746fdc9549"><path d="M 195.347656 250.597656 C 197.605469 252.238281 200.289062 253.191406 203.167969 253.191406 C 211.203125 253.191406 217.722656 245.773438 217.722656 236.625 C 217.722656 231.871094 215.96875 227.585938 213.148438 224.566406 L 210.496094 227.453125 C 210.914062 228.53125 211.238281 229.675781 211.445312 230.863281 C 214.660156 231.472656 216.96875 233.511719 216.636719 235.453125 C 216.328125 237.167969 214.0625 238.246094 211.316406 238.117188 C 209.753906 245.355469 204.015625 250.730469 197.183594 250.730469 C 196.566406 250.730469 195.949219 250.683594 195.347656 250.597656 " clip-rule="nonzero"/></clipPath><clipPath id="68af4b7e9a"><path d="M 195.347656 250.597656 C 197.605469 252.238281 200.289062 253.191406 203.167969 253.191406 C 211.203125 253.191406 217.722656 245.773438 217.722656 236.625 C 217.722656 231.871094 215.96875 227.585938 213.148438 224.566406 L 210.496094 227.453125 C 210.914062 228.53125 211.238281 229.675781 211.445312 230.863281 C 214.660156 231.472656 216.96875 233.511719 216.636719 235.453125 C 216.328125 237.167969 214.0625 238.246094 211.316406 238.117188 C 209.753906 245.355469 204.015625 250.730469 197.183594 250.730469 C 196.566406 250.730469 195.949219 250.683594 195.347656 250.597656 " clip-rule="nonzero"/></clipPath><clipPath id="485f30b6b0"><path d="M 213.109375 262.242188 L 183.765625 247.292969 L 199.960938 215.519531 L 229.296875 230.46875 Z M 213.109375 262.242188 " clip-rule="nonzero"/></clipPath><linearGradient x1="-0.295956" gradientTransform="matrix(10.163181, -19.946394, -19.531544, -9.951788, 214.976752, 255.755568)" y1="0" x2="1.297058" gradientUnits="userSpaceOnUse" y2="0" id="c3798440d3"><stop stop-opacity="1" stop-color="rgb(76.499939%, 10.998535%, 18.798828%)" offset="0"/><stop stop-opacity="1" stop-color="rgb(76.499939%, 10.998535%, 18.798828%)" offset="0.25"/><stop stop-opacity="1" stop-color="rgb(76.499939%, 10.998535%, 18.798828%)" offset="0.3125"/><stop stop-opacity="1" stop-color="rgb(76.597595%, 10.998535%, 18.798828%)" offset="0.320312"/><stop stop-opacity="1" stop-color="rgb(76.797485%, 10.998535%, 18.798828%)" offset="0.328125"/><stop stop-opacity="1" stop-color="rgb(77.093506%, 10.998535%, 18.603516%)" offset="0.34375"/><stop stop-opacity="1" stop-color="rgb(77.435303%, 10.998535%, 18.403625%)" offset="0.351562"/><stop stop-opacity="1" stop-color="rgb(77.801514%, 10.998535%, 18.399048%)" offset="0.355469"/><stop stop-opacity="1" stop-color="rgb(78.019714%, 10.998535%, 18.399048%)" offset="0.359375"/><stop stop-opacity="1" stop-color="rgb(78.210449%, 10.998535%, 18.399048%)" offset="0.375"/><stop stop-opacity="1" stop-color="rgb(78.596497%, 10.998535%, 18.399048%)" offset="0.382812"/><stop stop-opacity="1" stop-color="rgb(78.987122%, 10.998535%, 18.589783%)" offset="0.390625"/><stop stop-opacity="1" stop-color="rgb(79.402161%, 10.998535%, 18.789673%)" offset="0.394531"/><stop stop-opacity="1" stop-color="rgb(79.623413%, 10.998535%, 18.798828%)" offset="0.398437"/><stop stop-opacity="1" stop-color="rgb(79.824829%, 11.012268%, 18.785095%)" offset="0.402344"/><stop stop-opacity="1" stop-color="rgb(80.027771%, 11.027527%, 18.771362%)" offset="0.40625"/><stop stop-opacity="1" stop-color="rgb(80.212402%, 11.213684%, 18.585205%)" offset="0.421875"/><stop stop-opacity="1" stop-color="rgb(80.59082%, 11.592102%, 18.399048%)" offset="0.429688"/><stop stop-opacity="1" stop-color="rgb(80.792236%, 11.791992%, 18.399048%)" offset="0.4375"/><stop stop-opacity="1" stop-color="rgb(81.007385%, 11.807251%, 18.199158%)" offset="0.441406"/><stop stop-opacity="1" stop-color="rgb(81.216431%, 11.816406%, 17.999268%)" offset="0.445312"/><stop stop-opacity="1" stop-color="rgb(81.411743%, 12.007141%, 18.002319%)" offset="0.453125"/><stop stop-opacity="1" stop-color="rgb(81.802368%, 12.199402%, 18.202209%)" offset="0.460937"/><stop stop-opacity="1" stop-color="rgb(82.192993%, 12.199402%, 18.397522%)" offset="0.46875"/><stop stop-opacity="1" stop-color="rgb(82.553101%, 12.359619%, 18.208313%)" offset="0.484375"/><stop stop-opacity="1" stop-color="rgb(82.910156%, 12.709045%, 18.008423%)" offset="0.5"/><stop stop-opacity="1" stop-color="rgb(83.493042%, 13.092041%, 17.999268%)" offset="0.503906"/><stop stop-opacity="1" stop-color="rgb(83.883667%, 13.284302%, 17.999268%)" offset="0.507812"/><stop stop-opacity="1" stop-color="rgb(83.891296%, 13.291931%, 17.999268%)" offset="0.515625"/><stop stop-opacity="1" stop-color="rgb(84.098816%, 13.499451%, 17.999268%)" offset="0.519531"/><stop stop-opacity="1" stop-color="rgb(84.298706%, 13.699341%, 17.999268%)" offset="0.523437"/><stop stop-opacity="1" stop-color="rgb(84.306335%, 13.699341%, 17.999268%)" offset="0.53125"/><stop stop-opacity="1" stop-color="rgb(84.509277%, 13.699341%, 18.000793%)" offset="0.539062"/><stop stop-opacity="1" stop-color="rgb(84.899902%, 13.699341%, 18.199158%)" offset="0.546875"/><stop stop-opacity="1" stop-color="rgb(85.096741%, 13.891602%, 18.395996%)" offset="0.554687"/><stop stop-opacity="1" stop-color="rgb(85.475159%, 14.268494%, 18.199158%)" offset="0.558594"/><stop stop-opacity="1" stop-color="rgb(85.852051%, 14.453125%, 17.999268%)" offset="0.5625"/><stop stop-opacity="1" stop-color="rgb(86.074829%, 14.476013%, 17.999268%)" offset="0.566406"/><stop stop-opacity="1" stop-color="rgb(86.299133%, 14.498901%, 17.999268%)" offset="0.570312"/><stop stop-opacity="1" stop-color="rgb(86.302185%, 14.501953%, 17.999268%)" offset="0.578125"/><stop stop-opacity="1" stop-color="rgb(86.502075%, 14.701843%, 17.999268%)" offset="0.585937"/><stop stop-opacity="1" stop-color="rgb(86.697388%, 14.897156%, 17.799377%)" offset="0.589844"/><stop stop-opacity="1" stop-color="rgb(86.698914%, 14.898682%, 17.599487%)" offset="0.59375"/><stop stop-opacity="1" stop-color="rgb(86.698914%, 14.898682%, 17.599487%)" offset="0.601562"/><stop stop-opacity="1" stop-color="rgb(86.909485%, 15.098572%, 17.599487%)" offset="0.605469"/><stop stop-opacity="1" stop-color="rgb(87.120056%, 15.299988%, 17.599487%)" offset="0.609375"/><stop stop-opacity="1" stop-color="rgb(87.309265%, 15.304565%, 17.599487%)" offset="0.617187"/><stop stop-opacity="1" stop-color="rgb(87.5%, 15.504456%, 17.599487%)" offset="0.625"/><stop stop-opacity="1" stop-color="rgb(87.841797%, 15.892029%, 17.454529%)" offset="0.628906"/><stop stop-opacity="1" stop-color="rgb(88.183594%, 16.08429%, 17.311096%)" offset="0.632812"/><stop stop-opacity="1" stop-color="rgb(88.374329%, 16.091919%, 17.304993%)" offset="0.640625"/><stop stop-opacity="1" stop-color="rgb(88.604736%, 16.122437%, 17.298889%)" offset="0.648437"/><stop stop-opacity="1" stop-color="rgb(89.022827%, 16.322327%, 17.298889%)" offset="0.652344"/><stop stop-opacity="1" stop-color="rgb(89.399719%, 16.499329%, 17.298889%)" offset="0.65625"/><stop stop-opacity="1" stop-color="rgb(89.599609%, 16.699219%, 17.298889%)" offset="0.660156"/><stop stop-opacity="1" stop-color="rgb(89.7995%, 16.899109%, 17.298889%)" offset="0.664062"/><stop stop-opacity="1" stop-color="rgb(89.7995%, 16.899109%, 17.298889%)" offset="0.671875"/><stop stop-opacity="1" stop-color="rgb(89.7995%, 16.899109%, 17.298889%)" offset="0.6875"/><stop stop-opacity="1" stop-color="rgb(89.7995%, 16.899109%, 17.298889%)" offset="0.75"/><stop stop-opacity="1" stop-color="rgb(89.7995%, 16.899109%, 17.298889%)" offset="1"/></linearGradient></defs><g clip-path="url(#1f268ad644)"><path fill="#c9723f" d="M 125.867188 114.566406 C 112.839844 82.511719 159.644531 32.683594 159.90625 1.371094 C 171.464844 29.046875 178.839844 48.703125 180.207031 65.988281 C 202.363281 43.785156 227.84375 21.175781 261.804688 11.546875 C 221.234375 59.195312 241.320312 93.347656 281.246094 23.949219 C 389.277344 0.0703125 491.253906 31.136719 576.554688 87.746094 C 512.027344 72.003906 489.714844 72.734375 448.882812 81.234375 C 482.015625 83.636719 501.542969 89.574219 523.082031 104.304688 C 505.53125 105.457031 492.855469 105.546875 473.835938 109.574219 C 540.378906 112.109375 577.820312 132.460938 655.632812 164.316406 C 623.46875 162.570312 605.710938 167.199219 579.3125 169.070312 C 685.972656 226.191406 801.875 438.734375 680.566406 612.644531 C 686.757812 542.453125 683.375 473.488281 648.847656 450.667969 C 734.902344 663.664062 537.539062 742.070312 443.496094 810.070312 C 303.992188 748.886719 50.992188 710.542969 132.273438 480.136719 C 123.171875 478.386719 114.449219 474.574219 106.808594 468.574219 C 89.878906 468.277344 78.367188 454.527344 62.710938 446.585938 C 46.777344 447.902344 36.710938 434.128906 42.214844 413.175781 C 36.824219 398.515625 46.691406 375.40625 69.328125 372.019531 C 99.652344 323.132812 73.523438 269.820312 93.570312 255.171875 C 96.351562 240.378906 87.265625 229.96875 87.253906 216.011719 C 85.675781 223.390625 84.929688 232.148438 84.921875 242.609375 C 55.519531 212.585938 63.03125 173.472656 78.53125 156.84375 C 64.917969 141.972656 36.261719 140.769531 8.109375 162.367188 C 13.273438 129.832031 53.53125 101.023438 76.601562 118.414062 C 74.347656 111.605469 72.441406 104.140625 70.917969 95.996094 C 80.625 107.539062 90 115.589844 98.980469 120.894531 C 108.5625 121.746094 117.453125 119.171875 125.867188 114.566406 " fill-opacity="1" fill-rule="evenodd"/></g><path fill="#57342a" d="M 93.140625 155.492188 C 69.296875 135.824219 38.226562 134.511719 16.125 152.089844 C 24.382812 131.175781 67.847656 101.410156 82.257812 130.757812 C 93.664062 153.980469 107.054688 169.066406 126.074219 175.554688 C 101.535156 175.917969 79.316406 197.558594 80.300781 225.585938 C 66.6875 205.773438 67.636719 174.800781 93.140625 155.492188 " fill-opacity="1" fill-rule="evenodd"/><path fill="#57342a" d="M 483.375 177.109375 C 565.933594 211.671875 611.554688 284.648438 628.070312 372 C 598.210938 346.1875 580.167969 331.648438 549.324219 312.945312 C 560.300781 349.765625 566.882812 381.417969 562.78125 412.871094 C 620.625 476.824219 639.863281 580.386719 610.183594 656.753906 C 659.699219 581.40625 664.628906 491.617188 574.601562 381.445312 C 641.632812 383.304688 702.640625 420.199219 703.445312 540.394531 C 763.378906 415.660156 625.738281 153.386719 483.375 177.109375 Z M 632.027344 278.113281 C 683.605469 321.484375 706.039062 371.488281 706.375 445.230469 C 681.3125 409.261719 668.566406 371.820312 628.292969 331.15625 C 655.507812 348.257812 671.300781 364.90625 686.894531 388.171875 C 680.460938 352.757812 663.964844 319.035156 632.027344 278.113281 " fill-opacity="1" fill-rule="evenodd"/><path fill="#57342a" d="M 137.574219 361.410156 C 121.386719 387.160156 120.996094 414.019531 146.410156 385.429688 C 181.503906 345.957031 207.582031 422.425781 174.933594 450.214844 C 179.785156 441.355469 181 435.28125 174.539062 442.902344 C 164.15625 455.171875 138.625 475.167969 120.394531 465.023438 C 116.660156 467.273438 112.746094 468.347656 108.714844 468.546875 C 117.253906 473.230469 125.707031 475.46875 133.832031 475.722656 C 134.003906 475.257812 134.144531 474.804688 134.324219 474.335938 C 134.207031 474.804688 134.109375 475.257812 134.003906 475.726562 C 172.824219 476.824219 203.863281 432.515625 198.207031 392.21875 C 204.652344 365.25 218.113281 341.488281 231.375 322.125 C 235.011719 316.828125 227.816406 313.355469 225.53125 306.546875 C 273.269531 347.707031 295.714844 258.0625 330.09375 243.632812 C 317.917969 253.171875 306.402344 279.082031 293.203125 301.445312 C 347.035156 336.8125 374.625 373.222656 351.324219 482.625 C 409.601562 412.332031 395.066406 349.074219 347.816406 274.347656 C 507.382812 436.554688 346.789062 483.304688 312.710938 645.273438 C 291.816406 547.207031 334.523438 487.296875 336.617188 413.128906 C 327.132812 499.679688 226.378906 573.261719 228.085938 683.257812 C 199.824219 538.554688 392.847656 437.015625 276.46875 325.203125 C 266.078125 336.59375 254.402344 342.421875 240.660156 335.957031 C 229.113281 351.367188 221.324219 363.207031 213.851562 392.863281 C 219.582031 455.101562 172.839844 487.460938 132.945312 480.257812 C 118.109375 544.875 128.207031 592.019531 152.980469 628.160156 C 141.578125 593.976562 135.042969 556.453125 139.355469 514.269531 C 153.828125 595.21875 169.503906 663.761719 246.121094 702.78125 C 243.992188 650.949219 267.394531 595.035156 288.171875 560.746094 C 279.640625 629.433594 283.828125 670.90625 306.96875 724.210938 C 308.761719 692.398438 322.792969 659.84375 335.410156 639.027344 C 322.339844 744.21875 350.132812 739.914062 429.40625 780.578125 C 457.65625 742.285156 466.917969 699.761719 467.503906 655.320312 C 473.097656 694.460938 473.394531 733.605469 462.40625 772.753906 C 555.199219 713.273438 624.726562 635.464844 602.027344 517.949219 C 611.578125 596.574219 576.761719 654.261719 504.664062 701.488281 C 539.484375 625.171875 550.367188 576.515625 539.390625 494.285156 C 558.441406 538.328125 559.921875 589.347656 541.28125 644.554688 C 597.675781 580.773438 602.585938 487.28125 562.570312 414.484375 C 555.953125 461.113281 525.578125 507.5 450.894531 569.847656 C 612.894531 392.777344 466.433594 279.21875 313.097656 145.617188 C 353.4375 125.195312 396.101562 131.460938 439.082031 142.664062 C 383.28125 138.375 342.878906 140.296875 368.210938 163.332031 C 453.820312 246.644531 510.792969 283.191406 542.433594 397.597656 C 540.210938 351.28125 534.304688 306.871094 513.894531 261.761719 C 544.402344 278.207031 570.980469 297.484375 595.585938 321.808594 C 548.527344 229.691406 498.023438 198.714844 425.304688 164.316406 C 469.269531 158.738281 513.238281 153.160156 557.195312 147.582031 C 491.089844 121.644531 432.320312 123.941406 357.664062 122.328125 C 399.074219 109.539062 431.246094 98.976562 473.664062 98.382812 C 442.984375 91.277344 406.078125 98.382812 368.5 106.972656 C 394.136719 83.886719 441.847656 58.476562 502.632812 63.011719 C 454.171875 41.515625 424.300781 35.8125 373.167969 56.929688 C 389.132812 43.769531 403.496094 36.84375 412.175781 33.085938 C 386.738281 29.503906 372.296875 32.203125 353.539062 41.574219 C 355.3125 34.207031 358.175781 29.484375 361.027344 25.929688 C 347.148438 25.050781 333.070312 25.082031 318.925781 26.199219 C 311.035156 44.667969 300.191406 54.558594 276.429688 67.703125 C 292.914062 50.519531 300.519531 40.386719 303.550781 27.871094 C 297.636719 28.683594 291.71875 29.703125 285.804688 30.941406 C 274.644531 54.476562 222.074219 109.4375 227.820312 40.4375 C 172.898438 67.390625 153.019531 125.617188 101.925781 122.546875 C 141.886719 143.691406 173.628906 110.429688 190.511719 85.910156 C 204.273438 65.9375 237.746094 97.5 263.65625 87.328125 C 243.230469 101.792969 205.398438 75.523438 195.675781 92.140625 C 180.636719 117.851562 138.710938 166.5625 84.277344 117.695312 C 123.703125 210.351562 213.292969 157.644531 225.859375 122.269531 C 217.242188 151.253906 188.230469 174.378906 157.296875 178.445312 C 154.1875 181.644531 150.503906 184.300781 144.253906 187.351562 C 170.855469 186.40625 194.839844 174.761719 216.226562 150.964844 C 194.628906 186.753906 161.695312 199.527344 118.285156 194.65625 C 129.472656 190.128906 137.855469 184.964844 144.675781 179.015625 C 117.402344 177.847656 100.96875 185.773438 94.554688 198.765625 C 96.445312 197.421875 98.917969 196.496094 102.058594 196.144531 C 92.691406 209.664062 98.066406 220.769531 103.058594 231.679688 C 98.894531 230.785156 94.917969 226.6875 92.332031 221.578125 C 94.191406 230.914062 98.9375 241.160156 106.429688 251.664062 C 94.457031 242.945312 97.359375 249.335938 101.332031 258.148438 C 80.640625 271.953125 102.261719 322.253906 78.714844 368.957031 C 83.703125 367.722656 89.117188 363.128906 92.945312 351.597656 C 92.261719 365.195312 84.183594 373.8125 75.363281 375.152344 C 59.886719 377.519531 49.671875 386.84375 47.425781 407.734375 C 50.984375 405.378906 54.601562 401.90625 59.699219 401.277344 C 55.296875 403.351562 37.902344 430.800781 55.507812 439.152344 C 57.804688 440.246094 57.136719 434.457031 53.136719 429.320312 C 67.398438 441.816406 96.5625 472.355469 114.109375 457.445312 C 113.515625 450.507812 117.488281 441.941406 119.585938 438.191406 C 119.488281 470.5625 144.175781 458.34375 160.585938 445.003906 C 183.5625 426.3125 184.207031 388.261719 171.617188 382.027344 C 157.417969 374.996094 136.796875 410.328125 133.675781 421.214844 C 132.875 415.109375 136.570312 405.945312 134.359375 407.109375 C 129.523438 409.671875 123.734375 411.902344 117.0625 413.429688 C 120.214844 392.3125 125.019531 373.671875 137.574219 361.410156 Z M 142.65625 410.195312 C 144.820312 432.757812 155.582031 437.144531 167.769531 424.316406 C 153.109375 450.597656 142.066406 440.679688 142.65625 410.195312 Z M 126.386719 114.277344 C 140.894531 106.183594 154.800781 91.910156 170.007812 76.347656 C 173.421875 5.566406 121.617188 74.367188 126.386719 114.277344 Z M 419.464844 171.769531 C 469.640625 199.097656 503.042969 244.925781 518.453125 302.042969 C 484.210938 257.921875 454.105469 221.550781 411.191406 193.660156 C 444.914062 208.695312 463.730469 224.109375 483.4375 246.105469 C 467.949219 218.613281 454.792969 200.378906 419.464844 171.769531 Z M 168.433594 387.023438 C 163.941406 385.863281 150.621094 398.847656 148.945312 407.539062 C 145.335938 426.292969 167.96875 428.960938 172.585938 404.636719 C 174.238281 395.941406 172.925781 388.171875 168.433594 387.023438 Z M 112.316406 450.40625 C 110.246094 457.347656 105.1875 458.613281 98.507812 458.253906 C 84.511719 454.617188 79.261719 446.199219 66.699219 436.058594 C 79.910156 444.234375 85.382812 452.957031 99.328125 452.296875 C 102.480469 455.460938 107.804688 455.640625 112.316406 450.40625 Z M 248.695312 95.75 C 232.773438 99.769531 213.878906 84.914062 206.496094 92.972656 C 170.492188 132.242188 170.414062 141.160156 131.472656 144.191406 C 176.992188 142.574219 177.402344 135.957031 209.742188 98.535156 C 216.273438 90.976562 230.453125 102.707031 248.695312 95.75 Z M 205.0625 199.199219 C 190.5 204.316406 198.992188 223.726562 179.578125 236.125 C 188.921875 225.617188 185.175781 199.714844 205.0625 199.199219 Z M 268.859375 208.398438 C 241.433594 236.425781 277.246094 282.574219 207.316406 281.1875 C 192.917969 319.339844 163.527344 347.324219 169.195312 370.421875 C 153.097656 347.203125 190.511719 311.101562 198.792969 272.554688 C 193.175781 272.519531 187.558594 274.664062 181.9375 278.992188 C 197.378906 256.425781 172.59375 258.910156 158.773438 258.910156 C 196.925781 257.296875 202.824219 204.722656 242.109375 210.144531 C 229.914062 203.96875 214.683594 203.726562 201.453125 219.769531 C 206.871094 203.5625 217.570312 193.773438 234.878906 198.101562 C 247.804688 193.457031 248.125 186.214844 231.410156 180.011719 C 255.324219 180.207031 259.535156 201.863281 242.316406 210.171875 C 242.527344 210.199219 242.730469 210.222656 242.953125 210.257812 C 230.628906 223.984375 244.777344 257.015625 218.503906 268.863281 C 255.660156 263.941406 239.6875 228.671875 268.859375 208.398438 Z M 153.683594 259.050781 C 131.683594 269.671875 129.140625 255.929688 124.75 239.039062 C 124.421875 256.085938 125.679688 267.28125 110.3125 253.839844 C 124.089844 289.996094 98.175781 333.972656 100.21875 369.332031 C 107.351562 337.707031 123.195312 277.785156 153.683594 259.050781 Z M 146.460938 277.089844 C 136.644531 288.332031 132.027344 300.160156 129.765625 312.238281 C 140.3125 295.042969 153.511719 288.105469 146.460938 277.089844 Z M 247.015625 161.25 C 317.671875 138.335938 324.707031 119.816406 334.121094 46.574219 C 311.128906 99.699219 241.957031 80.769531 234.351562 148.585938 C 250.363281 105.621094 267.445312 104.792969 290.226562 96.683594 C 318.601562 86.585938 296.753906 137.1875 247.015625 161.25 " fill-opacity="1" fill-rule="evenodd"/><path fill="#ffffff" d="M 104.960938 249.5625 C 105.429688 250.242188 105.90625 250.921875 106.390625 251.605469 C 106.621094 251.632812 106.867188 251.667969 107.113281 251.707031 Z M 106.339844 251.601562 C 96.523438 244.472656 96.8125 247.601562 99.449219 253.863281 C 100.046875 251.84375 102.34375 251.085938 106.339844 251.601562 Z M 99.410156 259.648438 C 82.03125 275.292969 101.480469 323.804688 78.726562 368.957031 C 83.703125 367.722656 89.117188 363.128906 92.953125 351.597656 C 92.800781 354.699219 92.25 357.542969 91.40625 360.101562 C 96.449219 351.371094 98.609375 342.648438 97.886719 333.921875 C 97.664062 338.90625 96.171875 343.582031 91.871094 347.550781 C 99.203125 314.820312 91.917969 284.011719 99.410156 259.648438 Z M 73.464844 375.480469 C 59.054688 378.308594 49.582031 387.707031 47.425781 407.734375 C 50.714844 405.554688 54.058594 402.417969 58.585938 401.457031 C 61.90625 398.617188 65.738281 396.488281 70.222656 395.273438 C 65 395.710938 59.789062 396.40625 54.585938 398.882812 C 58.855469 388.96875 65.574219 381.875 73.464844 375.480469 Z M 52.214844 411.160156 C 47.347656 420.503906 44.183594 433.777344 55.507812 439.152344 C 55.910156 439.34375 56.226562 439.324219 56.433594 439.128906 C 50.429688 436.476562 49.984375 420.667969 52.214844 411.160156 " fill-opacity="1" fill-rule="evenodd"/><path fill="#ffffff" d="M 192.328125 253.773438 C 194.332031 260.046875 199.496094 264.265625 206.335938 264.265625 C 216.585938 264.265625 226.722656 254.804688 228.96875 243.128906 C 231.050781 232.316406 225.644531 223.398438 216.6875 222.148438 C 219.808594 225.929688 221.726562 231.023438 221.726562 236.625 C 221.726562 248.289062 213.410156 257.757812 203.167969 257.757812 C 199.125 257.757812 195.378906 256.273438 192.328125 253.773438 " fill-opacity="1" fill-rule="evenodd"/><path fill="#ffffff" d="M 206.128906 240.703125 C 205.121094 239.933594 203.269531 240.667969 201.992188 242.339844 C 200.714844 244.011719 200.488281 245.988281 201.488281 246.757812 C 202.496094 247.527344 204.34375 246.792969 205.625 245.117188 C 206.910156 243.445312 207.128906 241.46875 206.128906 240.703125 " fill-opacity="1" fill-rule="evenodd"/><path fill="#ffffff" d="M 216.636719 235.453125 C 216.976562 233.484375 214.59375 231.414062 211.304688 230.839844 C 208.023438 230.261719 205.074219 231.390625 204.730469 233.363281 C 204.386719 235.332031 206.765625 237.402344 210.054688 237.976562 C 213.335938 238.554688 216.285156 237.421875 216.636719 235.453125 " fill-opacity="1" fill-rule="evenodd"/><g clip-path="url(#dabe966601)"><g clip-path="url(#746fdc9549)"><g clip-path="url(#68af4b7e9a)"><g clip-path="url(#485f30b6b0)"><path fill="url(#c3798440d3)" d="M 213.109375 262.242188 L 183.769531 247.289062 L 199.960938 215.515625 L 229.300781 230.464844 Z M 213.109375 262.242188 " fill-rule="nonzero"/></g></g></g></g><path fill="#ffffff" d="M 276.082031 325.621094 C 265.789062 336.734375 254.234375 342.339844 240.660156 335.957031 C 240.207031 336.546875 239.773438 337.136719 239.339844 337.722656 C 250.398438 392.929688 249.527344 408.316406 228.421875 463.550781 C 252.535156 419.9375 261.480469 402.058594 263.511719 352.667969 C 289.070312 426.609375 265.867188 450.710938 235.4375 523.207031 C 285.589844 433.484375 301.554688 422.472656 276.082031 325.621094 Z M 277.023438 101.132812 C 321.234375 99.207031 255.949219 146.902344 245.277344 154.90625 C 261.667969 147.304688 276.757812 137.972656 290.554688 126.917969 C 306.109375 107.382812 307.761719 90.4375 290.226562 96.679688 C 285.609375 98.332031 281.21875 99.671875 277.023438 101.132812 Z M 380.203125 233.925781 C 388.695312 253.863281 422.78125 263.503906 445.425781 290.691406 C 430.222656 266.339844 410.996094 240.449219 387.683594 211.042969 C 410.535156 231.742188 431.929688 252.28125 450.617188 273.011719 C 515.839844 350.433594 533.675781 412.328125 471.660156 528.921875 C 497.242188 438.050781 493.644531 380.445312 460.414062 316.761719 C 462.597656 322.824219 464.253906 329.515625 465.238281 336.925781 C 449.191406 285.390625 379.210938 257.972656 380.203125 233.925781 Z M 509.074219 538.308594 C 512.105469 549.476562 515.683594 562.496094 517.628906 577.191406 C 519.773438 550.003906 519.519531 525.292969 516.679688 506.320312 C 536.664062 482.730469 549.308594 461.128906 556.449219 440.070312 C 567.800781 488.933594 571.90625 539.003906 565.84375 590.765625 L 579.664062 576.3125 C 571.929688 600.984375 559.210938 624.273438 541.28125 644.554688 C 559.921875 589.347656 558.441406 538.324219 539.390625 494.285156 C 550.367188 576.515625 539.484375 625.171875 504.664062 701.488281 C 528.632812 685.792969 548.476562 668.9375 563.941406 650.539062 C 543.703125 700.707031 524.996094 718.722656 474.820312 764.582031 C 470.726562 767.34375 466.589844 770.074219 462.40625 772.753906 C 462.527344 772.308594 462.652344 771.859375 462.773438 771.402344 C 480.730469 742.84375 494.742188 703.4375 504.285156 662.488281 C 498.265625 675.257812 490.0625 688.621094 479.074219 702.523438 C 507.980469 629.636719 505.207031 585.378906 509.074219 538.308594 Z M 354.304688 215.332031 C 368.710938 264.839844 473.394531 290.007812 474.820312 403.046875 C 458.460938 314.402344 347.878906 255.007812 354.304688 215.332031 Z M 527.089844 227.636719 C 497.707031 200.652344 464.78125 182.988281 425.304688 164.316406 L 555.589844 147.789062 C 499.984375 141.582031 444.382812 142.894531 388.773438 153.238281 C 425.785156 170.378906 467.847656 187.019531 501.609375 240.007812 C 503.105469 233.523438 503.535156 226.683594 501.609375 219.058594 C 521.347656 228.492188 535.734375 245.949219 548.625 265.648438 C 541.183594 249.785156 534.386719 237.773438 527.089844 227.636719 Z M 500.6875 185.203125 C 572.367188 222.296875 612.742188 290.960938 628.070312 372 C 598.210938 346.1875 580.167969 331.648438 549.324219 312.945312 C 552.390625 323.234375 555.113281 333.117188 557.359375 342.707031 C 593.707031 355.378906 617.375 371.429688 642.378906 391.484375 C 640.707031 363.945312 632.652344 336.40625 619.023438 316.035156 C 631.390625 318.9375 643.75 324.230469 656.113281 331.914062 C 613.457031 256.875 576.710938 216.492188 500.6875 185.203125 Z M 561.453125 363.28125 C 564.167969 380.320312 564.902344 396.621094 562.78125 412.871094 C 597.371094 451.113281 618.144531 503.527344 622.921875 555.808594 C 630.796875 498.335938 601.71875 431.289062 561.453125 363.28125 Z M 374.363281 55.957031 C 389.84375 43.429688 403.707031 36.746094 412.175781 33.085938 L 411.921875 33.054688 C 381.996094 37.800781 352.386719 45.613281 347.679688 80.59375 C 354.339844 70.945312 363.742188 63.007812 374.363281 55.957031 Z M 432.785156 95.960938 C 412.328125 97.414062 390.527344 101.9375 368.5 106.972656 C 394.132812 83.886719 441.847656 58.476562 502.632812 63.011719 C 501.8125 62.644531 500.992188 62.28125 500.179688 61.933594 C 431.488281 54.59375 384.296875 66.71875 339.011719 120.523438 C 368.972656 109.613281 401.300781 102.5 432.785156 95.960938 Z M 334.375 25.402344 C 329.238281 25.527344 324.085938 25.792969 318.925781 26.199219 C 311.035156 44.667969 300.191406 54.558594 276.429688 67.703125 C 279.054688 64.972656 281.457031 62.40625 283.644531 59.996094 C 261.742188 77.425781 241.015625 82.5625 208.324219 74.503906 C 230.921875 83.183594 246.515625 89.644531 263.492188 87.382812 L 263.65625 87.320312 L 263.585938 87.371094 C 274.207031 85.933594 285.375 81.074219 299.15625 71.199219 C 293.265625 72.636719 286.988281 70.765625 282.964844 69.882812 C 307.347656 61.480469 327.839844 42.722656 334.375 25.402344 Z M 97.253906 140.953125 C 119.046875 170.707031 148.566406 173.878906 173.976562 165.628906 C 191.128906 156.457031 208.953125 145.039062 213.425781 126.289062 C 185.300781 157.832031 146.089844 171.203125 97.253906 140.953125 Z M 182.214844 184.75 C 164.425781 194.464844 143.0625 197.433594 118.285156 194.65625 C 129.472656 190.128906 137.855469 184.964844 144.667969 179.015625 C 117.402344 177.847656 100.96875 185.773438 94.554688 198.757812 C 96.445312 197.421875 98.917969 196.496094 102.058594 196.144531 C 92.691406 209.664062 98.066406 220.769531 103.058594 231.679688 C 98.894531 230.785156 94.917969 226.6875 92.332031 221.578125 C 93.417969 227.003906 95.46875 232.734375 98.46875 238.648438 C 98.824219 237.613281 99.296875 236.578125 99.878906 235.542969 C 104.523438 238.8125 109.167969 240.703125 113.808594 241.96875 C 94.371094 202.46875 111.914062 198.292969 140.589844 201.265625 C 134.558594 207.710938 132.875 216.339844 130.949219 224.824219 C 137.335938 215.039062 143.96875 206.136719 152.371094 203.410156 C 148.113281 216.257812 147.316406 229.113281 148.085938 241.96875 C 153.058594 221.359375 166.277344 200.070312 182.214844 184.75 Z M 152.726562 49.042969 C 176.875 51.644531 141.714844 97 127.636719 113.5625 C 141.691406 105.363281 155.238281 91.460938 170.007812 76.347656 C 171.472656 45.964844 162.761719 41.3125 152.726562 49.042969 Z M 110.679688 167.617188 C 115.386719 170.992188 120.492188 173.648438 126.074219 175.554688 C 101.535156 175.917969 79.316406 197.558594 80.300781 225.585938 C 80.125 225.328125 79.949219 225.0625 79.78125 224.808594 C 74.09375 201.804688 78.738281 178.359375 110.679688 167.617188 Z M 164.828125 374.371094 C 189.203125 372.863281 201.476562 427.628906 174.933594 450.214844 C 179.785156 441.355469 181 435.28125 174.539062 442.902344 C 164.15625 455.171875 138.625 475.167969 120.394531 465.023438 C 116.65625 467.273438 112.746094 468.347656 108.714844 468.546875 C 117.253906 473.226562 125.707031 475.46875 133.832031 475.722656 C 134.003906 475.257812 134.144531 474.804688 134.324219 474.335938 C 134.207031 474.804688 134.109375 475.257812 134.003906 475.726562 C 172.824219 476.824219 203.863281 432.515625 198.207031 392.21875 C 204.652344 365.25 218.113281 341.488281 231.375 322.125 C 235.011719 316.828125 227.816406 313.355469 225.523438 306.546875 C 273.269531 347.699219 295.714844 258.0625 330.09375 243.632812 C 320.113281 251.449219 310.582031 270.253906 300.199219 289.097656 C 376.648438 345.828125 375.425781 395.339844 355.125 462.808594 C 354.054688 469.136719 352.792969 475.738281 351.324219 482.625 C 409.601562 412.332031 395.066406 349.074219 347.816406 274.347656 C 447.078125 375.253906 422.445312 431.480469 381.445312 498.558594 C 358.671875 612.832031 309.117188 696.613281 387.242188 760.007812 C 397.121094 764.839844 408.390625 770.054688 421.101562 776.386719 C 391.386719 744.886719 376.785156 716.132812 376.203125 679.128906 C 378.941406 691.179688 383.6875 704.132812 390.953125 718.167969 C 371.472656 630.15625 451.332031 557.863281 439.222656 498.332031 C 436.550781 528.460938 413.964844 553.914062 395.949219 583.410156 C 400.539062 570.191406 405.90625 556.023438 412.050781 540.738281 C 518.539062 286.800781 279.089844 257.320312 316.535156 148.605469 L 313.097656 145.613281 C 333.386719 135.347656 354.265625 131.824219 375.472656 132.292969 C 357.839844 127.78125 330.804688 124.25 302.855469 134.449219 C 295.707031 140.574219 286.660156 145.855469 275.011719 150.914062 C 280.839844 162.148438 275.140625 173.042969 244.871094 183.191406 C 249.785156 185.972656 252.445312 190.253906 252.769531 194.730469 C 276.121094 185.785156 281.070312 199.332031 266.347656 210.046875 L 265.945312 210.597656 C 266.867188 209.847656 267.832031 209.113281 268.859375 208.398438 C 241.433594 236.425781 277.246094 282.574219 207.308594 281.1875 C 192.917969 319.339844 163.527344 347.324219 169.1875 370.421875 C 169.082031 370.265625 168.988281 370.101562 168.878906 369.941406 C 167.894531 371.855469 166.464844 373.234375 164.828125 374.371094 Z M 283.664062 530.425781 C 255.585938 575.992188 227.171875 624.414062 228.085938 683.257812 C 225.34375 669.214844 224.703125 655.585938 225.644531 642.304688 C 212.460938 621.726562 205.992188 593.523438 199.535156 557.742188 C 190.703125 585.207031 192.117188 612.671875 199.535156 640.144531 C 166.394531 595.945312 153.105469 544.542969 150.945312 489.082031 C 146.484375 511.890625 145.386719 532.234375 146.613281 551.988281 C 160.308594 616.015625 181.519531 669.453125 245.191406 702.296875 C 236.878906 645.003906 256.53125 587.714844 283.664062 530.425781 " fill-opacity="1" fill-rule="evenodd"/></svg>