<svg xmlns="http://www.w3.org/2000/svg" xmlns:xlink="http://www.w3.org/1999/xlink" width="1080" zoomAndPan="magnify" viewBox="0 0 810 809.999993" height="1080" preserveAspectRatio="xMidYMid meet" version="1.0"><defs><clipPath id="fa978927d1"><path d="M 405 0 C 181.324219 0 0 181.324219 0 405 C 0 628.675781 181.324219 810 405 810 C 628.675781 810 810 628.675781 810 405 C 810 181.324219 628.675781 0 405 0 Z M 405 0 " clip-rule="nonzero"/></clipPath><radialGradient gradientTransform="matrix(1, 0, 0, 1, 0.0000035, 0.00002)" gradientUnits="userSpaceOnUse" r="1145.514014" cx="0" id="d31fe0fc9b" cy="0" fx="0" fy="0"><stop stop-opacity="1" stop-color="rgb(12.87384%, 58.688354%, 95.120239%)" offset="0"/><stop stop-opacity="1" stop-color="rgb(12.823486%, 58.468628%, 94.764709%)" offset="0.00390625"/><stop stop-opacity="1" stop-color="rgb(12.773132%, 58.248901%, 94.40918%)" offset="0.0078125"/><stop stop-opacity="1" stop-color="rgb(12.722778%, 58.027649%, 94.05365%)" offset="0.0117188"/><stop stop-opacity="1" stop-color="rgb(12.672424%, 57.807922%, 93.699646%)" offset="0.015625"/><stop stop-opacity="1" stop-color="rgb(12.62207%, 57.58667%, 93.344116%)" offset="0.0195312"/><stop stop-opacity="1" stop-color="rgb(12.571716%, 57.366943%, 92.988586%)" offset="0.0234375"/><stop stop-opacity="1" stop-color="rgb(12.519836%, 57.147217%, 92.633057%)" offset="0.0273438"/><stop stop-opacity="1" stop-color="rgb(12.469482%, 56.925964%, 92.277527%)" offset="0.03125"/><stop stop-opacity="1" stop-color="rgb(12.419128%, 56.706238%, 91.921997%)" offset="0.0351562"/><stop stop-opacity="1" stop-color="rgb(12.368774%, 56.484985%, 91.566467%)" offset="0.0390625"/><stop stop-opacity="1" stop-color="rgb(12.31842%, 56.265259%, 91.210938%)" offset="0.0429688"/><stop stop-opacity="1" stop-color="rgb(12.268066%, 56.045532%, 90.855408%)" offset="0.046875"/><stop stop-opacity="1" stop-color="rgb(12.217712%, 55.82428%, 90.499878%)" offset="0.0507812"/><stop stop-opacity="1" stop-color="rgb(12.167358%, 55.604553%, 90.144348%)" offset="0.0546875"/><stop stop-opacity="1" stop-color="rgb(12.117004%, 55.384827%, 89.788818%)" offset="0.0585938"/><stop stop-opacity="1" stop-color="rgb(12.06665%, 55.163574%, 89.433289%)" offset="0.0625"/><stop stop-opacity="1" stop-color="rgb(12.016296%, 54.943848%, 89.077759%)" offset="0.0664062"/><stop stop-opacity="1" stop-color="rgb(11.965942%, 54.722595%, 88.722229%)" offset="0.0703125"/><stop stop-opacity="1" stop-color="rgb(11.915588%, 54.502869%, 88.366699%)" offset="0.0742188"/><stop stop-opacity="1" stop-color="rgb(11.865234%, 54.283142%, 88.011169%)" offset="0.078125"/><stop stop-opacity="1" stop-color="rgb(11.81488%, 54.06189%, 87.65564%)" offset="0.0820312"/><stop stop-opacity="1" stop-color="rgb(11.764526%, 53.842163%, 87.30011%)" offset="0.0859375"/><stop stop-opacity="1" stop-color="rgb(11.714172%, 53.620911%, 86.94458%)" offset="0.0898438"/><stop stop-opacity="1" stop-color="rgb(11.663818%, 53.401184%, 86.58905%)" offset="0.09375"/><stop stop-opacity="1" stop-color="rgb(11.613464%, 53.181458%, 86.233521%)" offset="0.0976562"/><stop stop-opacity="1" stop-color="rgb(11.56311%, 52.960205%, 85.877991%)" offset="0.101562"/><stop stop-opacity="1" stop-color="rgb(11.512756%, 52.740479%, 85.522461%)" offset="0.105469"/><stop stop-opacity="1" stop-color="rgb(11.462402%, 52.520752%, 85.166931%)" offset="0.109375"/><stop stop-opacity="1" stop-color="rgb(11.412048%, 52.2995%, 84.812927%)" offset="0.113281"/><stop stop-opacity="1" stop-color="rgb(11.361694%, 52.079773%, 84.457397%)" offset="0.117188"/><stop stop-opacity="1" stop-color="rgb(11.31134%, 51.858521%, 84.101868%)" offset="0.121094"/><stop stop-opacity="1" stop-color="rgb(11.260986%, 51.638794%, 83.746338%)" offset="0.125"/><stop stop-opacity="1" stop-color="rgb(11.210632%, 51.419067%, 83.390808%)" offset="0.128906"/><stop stop-opacity="1" stop-color="rgb(11.160278%, 51.197815%, 83.035278%)" offset="0.132812"/><stop stop-opacity="1" stop-color="rgb(11.109924%, 50.978088%, 82.679749%)" offset="0.136719"/><stop stop-opacity="1" stop-color="rgb(11.05957%, 50.756836%, 82.324219%)" offset="0.140625"/><stop stop-opacity="1" stop-color="rgb(11.009216%, 50.537109%, 81.968689%)" offset="0.144531"/><stop stop-opacity="1" stop-color="rgb(10.958862%, 50.317383%, 81.613159%)" offset="0.148438"/><stop stop-opacity="1" stop-color="rgb(10.908508%, 50.09613%, 81.257629%)" offset="0.152344"/><stop stop-opacity="1" stop-color="rgb(10.858154%, 49.876404%, 80.9021%)" offset="0.15625"/><stop stop-opacity="1" stop-color="rgb(10.8078%, 49.656677%, 80.54657%)" offset="0.160156"/><stop stop-opacity="1" stop-color="rgb(10.757446%, 49.435425%, 80.19104%)" offset="0.164062"/><stop stop-opacity="1" stop-color="rgb(10.707092%, 49.215698%, 79.83551%)" offset="0.167969"/><stop stop-opacity="1" stop-color="rgb(10.656738%, 48.994446%, 79.47998%)" offset="0.171875"/><stop stop-opacity="1" stop-color="rgb(10.606384%, 48.774719%, 79.124451%)" offset="0.175781"/><stop stop-opacity="1" stop-color="rgb(10.55603%, 48.554993%, 78.768921%)" offset="0.179688"/><stop stop-opacity="1" stop-color="rgb(10.505676%, 48.33374%, 78.413391%)" offset="0.183594"/><stop stop-opacity="1" stop-color="rgb(10.453796%, 48.114014%, 78.057861%)" offset="0.1875"/><stop stop-opacity="1" stop-color="rgb(10.403442%, 47.892761%, 77.702332%)" offset="0.191406"/><stop stop-opacity="1" stop-color="rgb(10.353088%, 47.673035%, 77.346802%)" offset="0.195312"/><stop stop-opacity="1" stop-color="rgb(10.302734%, 47.453308%, 76.991272%)" offset="0.199219"/><stop stop-opacity="1" stop-color="rgb(10.25238%, 47.232056%, 76.635742%)" offset="0.203125"/><stop stop-opacity="1" stop-color="rgb(10.202026%, 47.012329%, 76.280212%)" offset="0.207031"/><stop stop-opacity="1" stop-color="rgb(10.151672%, 46.792603%, 75.926208%)" offset="0.210938"/><stop stop-opacity="1" stop-color="rgb(10.101318%, 46.57135%, 75.570679%)" offset="0.214844"/><stop stop-opacity="1" stop-color="rgb(10.050964%, 46.351624%, 75.215149%)" offset="0.21875"/><stop stop-opacity="1" stop-color="rgb(10.00061%, 46.130371%, 74.859619%)" offset="0.222656"/><stop stop-opacity="1" stop-color="rgb(9.950256%, 45.910645%, 74.504089%)" offset="0.226562"/><stop stop-opacity="1" stop-color="rgb(9.899902%, 45.690918%, 74.14856%)" offset="0.230469"/><stop stop-opacity="1" stop-color="rgb(9.849548%, 45.469666%, 73.79303%)" offset="0.234375"/><stop stop-opacity="1" stop-color="rgb(9.799194%, 45.249939%, 73.4375%)" offset="0.238281"/><stop stop-opacity="1" stop-color="rgb(9.74884%, 45.028687%, 73.08197%)" offset="0.242188"/><stop stop-opacity="1" stop-color="rgb(9.698486%, 44.80896%, 72.72644%)" offset="0.246094"/><stop stop-opacity="1" stop-color="rgb(9.648132%, 44.589233%, 72.370911%)" offset="0.25"/><stop stop-opacity="1" stop-color="rgb(9.597778%, 44.367981%, 72.015381%)" offset="0.253906"/><stop stop-opacity="1" stop-color="rgb(9.547424%, 44.148254%, 71.659851%)" offset="0.257812"/><stop stop-opacity="1" stop-color="rgb(9.49707%, 43.928528%, 71.304321%)" offset="0.261719"/><stop stop-opacity="1" stop-color="rgb(9.446716%, 43.707275%, 70.948792%)" offset="0.265625"/><stop stop-opacity="1" stop-color="rgb(9.396362%, 43.487549%, 70.593262%)" offset="0.269531"/><stop stop-opacity="1" stop-color="rgb(9.346008%, 43.266296%, 70.237732%)" offset="0.273438"/><stop stop-opacity="1" stop-color="rgb(9.295654%, 43.04657%, 69.882202%)" offset="0.277344"/><stop stop-opacity="1" stop-color="rgb(9.2453%, 42.826843%, 69.526672%)" offset="0.28125"/><stop stop-opacity="1" stop-color="rgb(9.194946%, 42.605591%, 69.171143%)" offset="0.285156"/><stop stop-opacity="1" stop-color="rgb(9.144592%, 42.385864%, 68.815613%)" offset="0.289062"/><stop stop-opacity="1" stop-color="rgb(9.094238%, 42.164612%, 68.460083%)" offset="0.292969"/><stop stop-opacity="1" stop-color="rgb(9.043884%, 41.944885%, 68.104553%)" offset="0.296875"/><stop stop-opacity="1" stop-color="rgb(8.99353%, 41.725159%, 67.749023%)" offset="0.300781"/><stop stop-opacity="1" stop-color="rgb(8.943176%, 41.503906%, 67.393494%)" offset="0.304688"/><stop stop-opacity="1" stop-color="rgb(8.892822%, 41.28418%, 67.03949%)" offset="0.308594"/><stop stop-opacity="1" stop-color="rgb(8.842468%, 41.064453%, 66.68396%)" offset="0.3125"/><stop stop-opacity="1" stop-color="rgb(8.792114%, 40.843201%, 66.32843%)" offset="0.316406"/><stop stop-opacity="1" stop-color="rgb(8.74176%, 40.623474%, 65.9729%)" offset="0.320312"/><stop stop-opacity="1" stop-color="rgb(8.691406%, 40.402222%, 65.617371%)" offset="0.324219"/><stop stop-opacity="1" stop-color="rgb(8.641052%, 40.182495%, 65.261841%)" offset="0.328125"/><stop stop-opacity="1" stop-color="rgb(8.590698%, 39.962769%, 64.906311%)" offset="0.332031"/><stop stop-opacity="1" stop-color="rgb(8.540344%, 39.741516%, 64.550781%)" offset="0.335938"/><stop stop-opacity="1" stop-color="rgb(8.48999%, 39.52179%, 64.195251%)" offset="0.339844"/><stop stop-opacity="1" stop-color="rgb(8.439636%, 39.300537%, 63.839722%)" offset="0.34375"/><stop stop-opacity="1" stop-color="rgb(8.389282%, 39.080811%, 63.484192%)" offset="0.347656"/><stop stop-opacity="1" stop-color="rgb(8.337402%, 38.861084%, 63.128662%)" offset="0.351562"/><stop stop-opacity="1" stop-color="rgb(8.287048%, 38.639832%, 62.773132%)" offset="0.355469"/><stop stop-opacity="1" stop-color="rgb(8.236694%, 38.420105%, 62.417603%)" offset="0.359375"/><stop stop-opacity="1" stop-color="rgb(8.18634%, 38.200378%, 62.062073%)" offset="0.363281"/><stop stop-opacity="1" stop-color="rgb(8.135986%, 37.979126%, 61.706543%)" offset="0.367188"/><stop stop-opacity="1" stop-color="rgb(8.085632%, 37.759399%, 61.351013%)" offset="0.371094"/><stop stop-opacity="1" stop-color="rgb(8.035278%, 37.538147%, 60.995483%)" offset="0.375"/><stop stop-opacity="1" stop-color="rgb(7.984924%, 37.31842%, 60.639954%)" offset="0.378906"/><stop stop-opacity="1" stop-color="rgb(7.93457%, 37.098694%, 60.284424%)" offset="0.382812"/><stop stop-opacity="1" stop-color="rgb(7.884216%, 36.877441%, 59.928894%)" offset="0.386719"/><stop stop-opacity="1" stop-color="rgb(7.833862%, 36.657715%, 59.573364%)" offset="0.390625"/><stop stop-opacity="1" stop-color="rgb(7.783508%, 36.437988%, 59.217834%)" offset="0.394531"/><stop stop-opacity="1" stop-color="rgb(7.733154%, 36.216736%, 58.862305%)" offset="0.398438"/><stop stop-opacity="1" stop-color="rgb(7.6828%, 35.997009%, 58.506775%)" offset="0.402344"/><stop stop-opacity="1" stop-color="rgb(7.632446%, 35.775757%, 58.152771%)" offset="0.40625"/><stop stop-opacity="1" stop-color="rgb(7.582092%, 35.55603%, 57.797241%)" offset="0.410156"/><stop stop-opacity="1" stop-color="rgb(7.531738%, 35.336304%, 57.441711%)" offset="0.414062"/><stop stop-opacity="1" stop-color="rgb(7.481384%, 35.115051%, 57.086182%)" offset="0.417969"/><stop stop-opacity="1" stop-color="rgb(7.43103%, 34.895325%, 56.730652%)" offset="0.421875"/><stop stop-opacity="1" stop-color="rgb(7.380676%, 34.674072%, 56.375122%)" offset="0.425781"/><stop stop-opacity="1" stop-color="rgb(7.330322%, 34.454346%, 56.019592%)" offset="0.429688"/><stop stop-opacity="1" stop-color="rgb(7.279968%, 34.234619%, 55.664062%)" offset="0.433594"/><stop stop-opacity="1" stop-color="rgb(7.229614%, 34.013367%, 55.308533%)" offset="0.4375"/><stop stop-opacity="1" stop-color="rgb(7.17926%, 33.79364%, 54.953003%)" offset="0.441406"/><stop stop-opacity="1" stop-color="rgb(7.128906%, 33.573914%, 54.597473%)" offset="0.445312"/><stop stop-opacity="1" stop-color="rgb(7.078552%, 33.352661%, 54.241943%)" offset="0.449219"/><stop stop-opacity="1" stop-color="rgb(7.028198%, 33.132935%, 53.886414%)" offset="0.453125"/><stop stop-opacity="1" stop-color="rgb(6.977844%, 32.911682%, 53.530884%)" offset="0.457031"/><stop stop-opacity="1" stop-color="rgb(6.92749%, 32.691956%, 53.175354%)" offset="0.460938"/><stop stop-opacity="1" stop-color="rgb(6.877136%, 32.472229%, 52.819824%)" offset="0.464844"/><stop stop-opacity="1" stop-color="rgb(6.826782%, 32.250977%, 52.464294%)" offset="0.46875"/><stop stop-opacity="1" stop-color="rgb(6.776428%, 32.03125%, 52.108765%)" offset="0.472656"/><stop stop-opacity="1" stop-color="rgb(6.726074%, 31.809998%, 51.753235%)" offset="0.476562"/><stop stop-opacity="1" stop-color="rgb(6.67572%, 31.590271%, 51.397705%)" offset="0.480469"/><stop stop-opacity="1" stop-color="rgb(6.625366%, 31.370544%, 51.042175%)" offset="0.484375"/><stop stop-opacity="1" stop-color="rgb(6.575012%, 31.149292%, 50.686646%)" offset="0.488281"/><stop stop-opacity="1" stop-color="rgb(6.524658%, 30.929565%, 50.331116%)" offset="0.492188"/><stop stop-opacity="1" stop-color="rgb(6.474304%, 30.709839%, 49.975586%)" offset="0.496094"/><stop stop-opacity="1" stop-color="rgb(6.42395%, 30.488586%, 49.620056%)" offset="0.5"/><stop stop-opacity="1" stop-color="rgb(6.373596%, 30.26886%, 49.266052%)" offset="0.503906"/><stop stop-opacity="1" stop-color="rgb(6.323242%, 30.047607%, 48.910522%)" offset="0.507812"/><stop stop-opacity="1" stop-color="rgb(6.272888%, 29.827881%, 48.554993%)" offset="0.511719"/><stop stop-opacity="1" stop-color="rgb(6.221008%, 29.608154%, 48.199463%)" offset="0.515625"/><stop stop-opacity="1" stop-color="rgb(6.170654%, 29.386902%, 47.843933%)" offset="0.519531"/><stop stop-opacity="1" stop-color="rgb(6.1203%, 29.167175%, 47.488403%)" offset="0.523438"/><stop stop-opacity="1" stop-color="rgb(6.069946%, 28.945923%, 47.132874%)" offset="0.527344"/><stop stop-opacity="1" stop-color="rgb(6.019592%, 28.726196%, 46.777344%)" offset="0.53125"/><stop stop-opacity="1" stop-color="rgb(5.969238%, 28.50647%, 46.421814%)" offset="0.535156"/><stop stop-opacity="1" stop-color="rgb(5.918884%, 28.285217%, 46.066284%)" offset="0.539062"/><stop stop-opacity="1" stop-color="rgb(5.86853%, 28.065491%, 45.710754%)" offset="0.542969"/><stop stop-opacity="1" stop-color="rgb(5.818176%, 27.845764%, 45.355225%)" offset="0.546875"/><stop stop-opacity="1" stop-color="rgb(5.767822%, 27.624512%, 44.999695%)" offset="0.550781"/><stop stop-opacity="1" stop-color="rgb(5.717468%, 27.404785%, 44.644165%)" offset="0.554688"/><stop stop-opacity="1" stop-color="rgb(5.667114%, 27.183533%, 44.288635%)" offset="0.558594"/><stop stop-opacity="1" stop-color="rgb(5.61676%, 26.963806%, 43.933105%)" offset="0.5625"/><stop stop-opacity="1" stop-color="rgb(5.566406%, 26.74408%, 43.577576%)" offset="0.566406"/><stop stop-opacity="1" stop-color="rgb(5.516052%, 26.522827%, 43.222046%)" offset="0.570312"/><stop stop-opacity="1" stop-color="rgb(5.465698%, 26.303101%, 42.866516%)" offset="0.574219"/><stop stop-opacity="1" stop-color="rgb(5.415344%, 26.081848%, 42.510986%)" offset="0.578125"/><stop stop-opacity="1" stop-color="rgb(5.36499%, 25.862122%, 42.155457%)" offset="0.582031"/><stop stop-opacity="1" stop-color="rgb(5.314636%, 25.642395%, 41.799927%)" offset="0.585938"/><stop stop-opacity="1" stop-color="rgb(5.264282%, 25.421143%, 41.444397%)" offset="0.589844"/><stop stop-opacity="1" stop-color="rgb(5.213928%, 25.201416%, 41.088867%)" offset="0.59375"/><stop stop-opacity="1" stop-color="rgb(5.163574%, 24.981689%, 40.733337%)" offset="0.597656"/><stop stop-opacity="1" stop-color="rgb(5.11322%, 24.760437%, 40.379333%)" offset="0.601562"/><stop stop-opacity="1" stop-color="rgb(5.062866%, 24.54071%, 40.023804%)" offset="0.605469"/><stop stop-opacity="1" stop-color="rgb(5.012512%, 24.319458%, 39.668274%)" offset="0.609375"/><stop stop-opacity="1" stop-color="rgb(4.962158%, 24.099731%, 39.312744%)" offset="0.613281"/><stop stop-opacity="1" stop-color="rgb(4.911804%, 23.880005%, 38.957214%)" offset="0.617188"/><stop stop-opacity="1" stop-color="rgb(4.86145%, 23.658752%, 38.601685%)" offset="0.621094"/><stop stop-opacity="1" stop-color="rgb(4.811096%, 23.439026%, 38.246155%)" offset="0.625"/><stop stop-opacity="1" stop-color="rgb(4.760742%, 23.217773%, 37.890625%)" offset="0.628906"/><stop stop-opacity="1" stop-color="rgb(4.710388%, 22.998047%, 37.535095%)" offset="0.632812"/><stop stop-opacity="1" stop-color="rgb(4.660034%, 22.77832%, 37.179565%)" offset="0.636719"/><stop stop-opacity="1" stop-color="rgb(4.60968%, 22.557068%, 36.824036%)" offset="0.640625"/><stop stop-opacity="1" stop-color="rgb(4.559326%, 22.337341%, 36.468506%)" offset="0.644531"/><stop stop-opacity="1" stop-color="rgb(4.508972%, 22.117615%, 36.112976%)" offset="0.648438"/><stop stop-opacity="1" stop-color="rgb(4.458618%, 21.896362%, 35.757446%)" offset="0.652344"/><stop stop-opacity="1" stop-color="rgb(4.408264%, 21.676636%, 35.401917%)" offset="0.65625"/><stop stop-opacity="1" stop-color="rgb(4.35791%, 21.455383%, 35.046387%)" offset="0.660156"/><stop stop-opacity="1" stop-color="rgb(4.307556%, 21.235657%, 34.690857%)" offset="0.664062"/><stop stop-opacity="1" stop-color="rgb(4.257202%, 21.01593%, 34.335327%)" offset="0.667969"/><stop stop-opacity="1" stop-color="rgb(4.206848%, 20.794678%, 33.979797%)" offset="0.671875"/><stop stop-opacity="1" stop-color="rgb(4.154968%, 20.574951%, 33.624268%)" offset="0.675781"/><stop stop-opacity="1" stop-color="rgb(4.104614%, 20.353699%, 33.268738%)" offset="0.679688"/><stop stop-opacity="1" stop-color="rgb(4.05426%, 20.133972%, 32.913208%)" offset="0.683594"/><stop stop-opacity="1" stop-color="rgb(4.003906%, 19.914246%, 32.557678%)" offset="0.6875"/><stop stop-opacity="1" stop-color="rgb(3.953552%, 19.692993%, 32.202148%)" offset="0.691406"/><stop stop-opacity="1" stop-color="rgb(3.903198%, 19.473267%, 31.846619%)" offset="0.695312"/><stop stop-opacity="1" stop-color="rgb(3.852844%, 19.25354%, 31.492615%)" offset="0.699219"/><stop stop-opacity="1" stop-color="rgb(3.80249%, 19.032288%, 31.137085%)" offset="0.703125"/><stop stop-opacity="1" stop-color="rgb(3.752136%, 18.812561%, 30.781555%)" offset="0.707031"/><stop stop-opacity="1" stop-color="rgb(3.701782%, 18.591309%, 30.426025%)" offset="0.710938"/><stop stop-opacity="1" stop-color="rgb(3.651428%, 18.371582%, 30.070496%)" offset="0.714844"/><stop stop-opacity="1" stop-color="rgb(3.601074%, 18.151855%, 29.714966%)" offset="0.71875"/><stop stop-opacity="1" stop-color="rgb(3.55072%, 17.930603%, 29.359436%)" offset="0.722656"/><stop stop-opacity="1" stop-color="rgb(3.500366%, 17.710876%, 29.003906%)" offset="0.726562"/><stop stop-opacity="1" stop-color="rgb(3.450012%, 17.489624%, 28.648376%)" offset="0.730469"/><stop stop-opacity="1" stop-color="rgb(3.399658%, 17.269897%, 28.292847%)" offset="0.734375"/><stop stop-opacity="1" stop-color="rgb(3.349304%, 17.050171%, 27.937317%)" offset="0.738281"/><stop stop-opacity="1" stop-color="rgb(3.29895%, 16.828918%, 27.581787%)" offset="0.742188"/><stop stop-opacity="1" stop-color="rgb(3.248596%, 16.609192%, 27.226257%)" offset="0.746094"/><stop stop-opacity="1" stop-color="rgb(3.198242%, 16.389465%, 26.870728%)" offset="0.75"/><stop stop-opacity="1" stop-color="rgb(3.147888%, 16.168213%, 26.515198%)" offset="0.753906"/><stop stop-opacity="1" stop-color="rgb(3.097534%, 15.948486%, 26.159668%)" offset="0.757812"/><stop stop-opacity="1" stop-color="rgb(3.04718%, 15.727234%, 25.804138%)" offset="0.761719"/><stop stop-opacity="1" stop-color="rgb(2.996826%, 15.507507%, 25.448608%)" offset="0.765625"/><stop stop-opacity="1" stop-color="rgb(2.946472%, 15.287781%, 25.093079%)" offset="0.769531"/><stop stop-opacity="1" stop-color="rgb(2.896118%, 15.066528%, 24.737549%)" offset="0.773438"/><stop stop-opacity="1" stop-color="rgb(2.845764%, 14.846802%, 24.382019%)" offset="0.777344"/><stop stop-opacity="1" stop-color="rgb(2.79541%, 14.625549%, 24.026489%)" offset="0.78125"/><stop stop-opacity="1" stop-color="rgb(2.745056%, 14.405823%, 23.670959%)" offset="0.785156"/><stop stop-opacity="1" stop-color="rgb(2.694702%, 14.186096%, 23.31543%)" offset="0.789062"/><stop stop-opacity="1" stop-color="rgb(2.644348%, 13.964844%, 22.9599%)" offset="0.792969"/><stop stop-opacity="1" stop-color="rgb(2.593994%, 13.745117%, 22.605896%)" offset="0.796875"/><stop stop-opacity="1" stop-color="rgb(2.54364%, 13.525391%, 22.250366%)" offset="0.800781"/><stop stop-opacity="1" stop-color="rgb(2.493286%, 13.304138%, 21.894836%)" offset="0.804688"/><stop stop-opacity="1" stop-color="rgb(2.442932%, 13.084412%, 21.539307%)" offset="0.808594"/><stop stop-opacity="1" stop-color="rgb(2.392578%, 12.863159%, 21.183777%)" offset="0.8125"/><stop stop-opacity="1" stop-color="rgb(2.342224%, 12.643433%, 20.828247%)" offset="0.816406"/><stop stop-opacity="1" stop-color="rgb(2.29187%, 12.423706%, 20.472717%)" offset="0.820312"/><stop stop-opacity="1" stop-color="rgb(2.241516%, 12.202454%, 20.117188%)" offset="0.824219"/><stop stop-opacity="1" stop-color="rgb(2.191162%, 11.982727%, 19.761658%)" offset="0.828125"/><stop stop-opacity="1" stop-color="rgb(2.140808%, 11.761475%, 19.406128%)" offset="0.832031"/><stop stop-opacity="1" stop-color="rgb(2.090454%, 11.541748%, 19.050598%)" offset="0.835938"/><stop stop-opacity="1" stop-color="rgb(2.038574%, 11.322021%, 18.695068%)" offset="0.839844"/><stop stop-opacity="1" stop-color="rgb(1.98822%, 11.100769%, 18.339539%)" offset="0.84375"/><stop stop-opacity="1" stop-color="rgb(1.937866%, 10.881042%, 17.984009%)" offset="0.847656"/><stop stop-opacity="1" stop-color="rgb(1.887512%, 10.661316%, 17.628479%)" offset="0.851562"/><stop stop-opacity="1" stop-color="rgb(1.837158%, 10.440063%, 17.272949%)" offset="0.855469"/><stop stop-opacity="1" stop-color="rgb(1.786804%, 10.220337%, 16.917419%)" offset="0.859375"/><stop stop-opacity="1" stop-color="rgb(1.73645%, 9.999084%, 16.56189%)" offset="0.863281"/><stop stop-opacity="1" stop-color="rgb(1.686096%, 9.779358%, 16.20636%)" offset="0.867188"/><stop stop-opacity="1" stop-color="rgb(1.635742%, 9.559631%, 15.85083%)" offset="0.871094"/><stop stop-opacity="1" stop-color="rgb(1.585388%, 9.338379%, 15.4953%)" offset="0.875"/><stop stop-opacity="1" stop-color="rgb(1.535034%, 9.118652%, 15.139771%)" offset="0.878906"/><stop stop-opacity="1" stop-color="rgb(1.48468%, 8.898926%, 14.784241%)" offset="0.882812"/><stop stop-opacity="1" stop-color="rgb(1.434326%, 8.677673%, 14.428711%)" offset="0.886719"/><stop stop-opacity="1" stop-color="rgb(1.383972%, 8.457947%, 14.073181%)" offset="0.890625"/><stop stop-opacity="1" stop-color="rgb(1.333618%, 8.236694%, 13.719177%)" offset="0.894531"/><stop stop-opacity="1" stop-color="rgb(1.283264%, 8.016968%, 13.363647%)" offset="0.898438"/><stop stop-opacity="1" stop-color="rgb(1.23291%, 7.797241%, 13.008118%)" offset="0.902344"/><stop stop-opacity="1" stop-color="rgb(1.182556%, 7.575989%, 12.652588%)" offset="0.90625"/><stop stop-opacity="1" stop-color="rgb(1.132202%, 7.356262%, 12.297058%)" offset="0.910156"/><stop stop-opacity="1" stop-color="rgb(1.081848%, 7.13501%, 11.941528%)" offset="0.914062"/><stop stop-opacity="1" stop-color="rgb(1.031494%, 6.915283%, 11.585999%)" offset="0.917969"/><stop stop-opacity="1" stop-color="rgb(0.98114%, 6.695557%, 11.230469%)" offset="0.921875"/><stop stop-opacity="1" stop-color="rgb(0.930786%, 6.474304%, 10.874939%)" offset="0.925781"/><stop stop-opacity="1" stop-color="rgb(0.880432%, 6.254578%, 10.519409%)" offset="0.929688"/><stop stop-opacity="1" stop-color="rgb(0.830078%, 6.034851%, 10.163879%)" offset="0.933594"/><stop stop-opacity="1" stop-color="rgb(0.779724%, 5.813599%, 9.80835%)" offset="0.9375"/><stop stop-opacity="1" stop-color="rgb(0.72937%, 5.593872%, 9.45282%)" offset="0.941406"/><stop stop-opacity="1" stop-color="rgb(0.679016%, 5.37262%, 9.09729%)" offset="0.945312"/><stop stop-opacity="1" stop-color="rgb(0.628662%, 5.152893%, 8.74176%)" offset="0.949219"/><stop stop-opacity="1" stop-color="rgb(0.578308%, 4.933167%, 8.38623%)" offset="0.953125"/><stop stop-opacity="1" stop-color="rgb(0.527954%, 4.711914%, 8.030701%)" offset="0.957031"/><stop stop-opacity="1" stop-color="rgb(0.4776%, 4.492188%, 7.675171%)" offset="0.960938"/><stop stop-opacity="1" stop-color="rgb(0.427246%, 4.270935%, 7.319641%)" offset="0.964844"/><stop stop-opacity="1" stop-color="rgb(0.376892%, 4.051208%, 6.964111%)" offset="0.96875"/><stop stop-opacity="1" stop-color="rgb(0.326538%, 3.831482%, 6.608582%)" offset="0.972656"/><stop stop-opacity="1" stop-color="rgb(0.276184%, 3.610229%, 6.253052%)" offset="0.976562"/><stop stop-opacity="1" stop-color="rgb(0.22583%, 3.390503%, 5.897522%)" offset="0.980469"/><stop stop-opacity="1" stop-color="rgb(0.175476%, 3.170776%, 5.541992%)" offset="0.984375"/><stop stop-opacity="1" stop-color="rgb(0.125122%, 2.949524%, 5.186462%)" offset="0.988281"/><stop stop-opacity="1" stop-color="rgb(0.0747681%, 2.729797%, 4.832458%)" offset="0.992188"/><stop stop-opacity="1" stop-color="rgb(0.0244141%, 2.508545%, 4.476929%)" offset="0.996094"/><stop stop-opacity="1" stop-color="rgb(0%, 2.398682%, 4.299927%)" offset="1"/></radialGradient><clipPath id="c3430e3b30"><path d="M 266 97.429688 L 342 97.429688 L 342 212 L 266 212 Z M 266 97.429688 " clip-rule="nonzero"/></clipPath><clipPath id="f2827edee5"><path d="M 437 334 L 618.371094 334 L 618.371094 395 L 437 395 Z M 437 334 " clip-rule="nonzero"/></clipPath><clipPath id="caa30c53b0"><path d="M 413 467 L 536 467 L 536 712.429688 L 413 712.429688 Z M 413 467 " clip-rule="nonzero"/></clipPath></defs><g clip-path="url(#fa978927d1)"><rect x="-81" fill="url(#d31fe0fc9b)" width="972" y="-80.999999" height="971.999992"/></g><g clip-path="url(#c3430e3b30)"><path fill="#ffffff" d="M 340.660156 97.554688 C 339.363281 101.183594 337.984375 104.839844 335.695312 107.976562 C 329.765625 116.277344 320.648438 121.53125 311.515625 125.628906 C 302.59375 129.449219 293.285156 132.441406 283.769531 134.382812 C 287.53125 134.4375 291.191406 133.546875 294.835938 132.773438 C 307.675781 129.820312 320.546875 125.960938 331.882812 119.101562 C 325.796875 128.734375 316.570312 135.847656 306.914062 141.640625 C 300.460938 145.515625 293.722656 148.894531 286.851562 151.976562 C 278.988281 156.253906 271.515625 162.398438 268.191406 170.957031 C 265.007812 179.011719 266.453125 188.113281 269.832031 195.855469 C 272.371094 201.523438 275.511719 206.96875 279.460938 211.769531 C 274.277344 203.578125 270.347656 194.230469 270.097656 184.417969 C 269.855469 177.625 272.085938 170.722656 276.539062 165.550781 C 280.910156 160.378906 286.882812 156.835938 293.097656 154.339844 C 304.550781 149.953125 315.550781 144.058594 324.867188 136.023438 C 331.496094 130.203125 337.285156 123.027344 339.90625 114.484375 C 341.582031 109.035156 341.902344 103.132812 340.660156 97.554688 Z M 340.660156 97.554688 " fill-opacity="1" fill-rule="nonzero"/></g><path fill="#ffffff" d="M 281.226562 111.785156 C 272.597656 115.734375 264.785156 121.519531 258.429688 128.570312 C 250.917969 136.898438 246.003906 147.6875 245.417969 158.953125 C 244.625 172.136719 249.222656 184.929688 255.292969 196.425781 C 254.820312 194.195312 253.921875 192.097656 253.183594 189.949219 C 249.539062 179.222656 247.933594 167.585938 250.078125 156.371094 C 252.121094 144.976562 257.914062 134.5 265.585938 125.933594 C 270.199219 120.589844 275.699219 116.128906 281.226562 111.785156 Z M 281.226562 111.785156 " fill-opacity="1" fill-rule="nonzero"/><path fill="#ffffff" d="M 397.53125 149.878906 C 396.207031 147.132812 394.472656 144.613281 392.667969 142.164062 C 380.582031 148.957031 370.40625 159.121094 363.757812 171.300781 C 367.105469 172.984375 370.496094 174.554688 373.84375 176.234375 C 377.421875 173.023438 380.953125 169.75 384.375 166.371094 C 385.820312 164.816406 388.292969 165.429688 389.242188 167.199219 C 392.820312 172.945312 394.363281 179.691406 395.695312 186.253906 C 398.179688 187.488281 400.757812 188.519531 403.296875 189.625 C 403.921875 176.234375 403.464844 162.179688 397.53125 149.878906 Z M 397.53125 149.878906 " fill-opacity="1" fill-rule="nonzero"/><path fill="#ffffff" d="M 224.898438 170.503906 C 216.835938 163.558594 208.480469 156.898438 199.425781 151.269531 C 194.394531 165.132812 191.628906 180.019531 192.988281 194.78125 C 194.570312 214.503906 203.738281 233.109375 217.015625 247.597656 C 220.886719 251.8125 225.019531 255.800781 229.453125 259.421875 C 230.902344 260.613281 232.449219 261.6875 233.683594 263.105469 C 233.792969 263.089844 234.019531 263.0625 234.128906 263.050781 C 227.820312 253.933594 222.441406 244.15625 217.96875 234.007812 C 210.542969 216.988281 206.273438 198.121094 208.886719 179.535156 C 232.476562 190.25 254.019531 205.257812 272.890625 222.957031 C 258.789062 203.863281 242.757812 186.15625 224.902344 170.503906 Z M 224.898438 170.503906 " fill-opacity="1" fill-rule="nonzero"/><path fill="#ffffff" d="M 357.207031 173.675781 C 345.882812 168.917969 333.261719 166.152344 321.003906 168.339844 C 311.703125 169.96875 303.175781 175.332031 297.644531 182.984375 C 290.949219 192.011719 287.796875 203.101562 285.992188 214.058594 C 285.554688 216.234375 285.378906 218.453125 285.414062 220.667969 C 287.777344 208.820312 291.355469 196.820312 298.644531 186.992188 C 304.09375 179.585938 312.351562 174.171875 321.53125 172.882812 C 333.90625 171.109375 346.3125 174.890625 357.4375 180.054688 C 375.175781 189.789062 393.355469 199 412.789062 204.859375 C 435.835938 211.984375 460.945312 214.375 484.417969 207.835938 C 480.007812 211.761719 475.011719 214.976562 469.878906 217.878906 C 460.136719 223.25 449.601562 227.679688 438.492188 229.078125 C 445.242188 229.035156 451.832031 227.230469 458.320312 225.542969 C 477.570312 220.132812 496.109375 209.34375 507.242188 192.324219 C 492.476562 201.539062 474.980469 205.757812 457.667969 205.832031 C 440.976562 205.867188 424.421875 202.378906 408.75 196.777344 C 398.820312 193.027344 389.042969 188.871094 379.457031 184.3125 C 371.992188 180.875 364.722656 177.023438 357.203125 173.675781 Z M 357.207031 173.675781 " fill-opacity="1" fill-rule="nonzero"/><path fill="#ffffff" d="M 548.578125 223.34375 C 548.753906 219.8125 549.144531 216.265625 548.609375 212.746094 C 544.925781 224.1875 539.292969 235.484375 530.050781 243.449219 C 523.148438 249.492188 514.214844 252.984375 505.105469 253.746094 C 495.355469 254.578125 485.535156 252.808594 476.261719 249.824219 C 455.328125 241.960938 433.304688 236.613281 410.917969 235.601562 C 399.542969 234.925781 388.128906 235.765625 376.875 237.433594 C 379.902344 237.617188 382.921875 237.398438 385.949219 237.296875 C 411.71875 236.339844 437.722656 240.347656 461.835938 249.582031 C 468.023438 251.835938 473.898438 254.933594 480.285156 256.632812 C 492.207031 259.953125 505.050781 260.933594 517.136719 257.882812 C 524.472656 256.023438 531.421875 252.324219 536.621094 246.769531 C 533.289062 253.125 529.414062 259.292969 524.265625 264.347656 C 516.414062 272.3125 506.195312 277.589844 495.523438 280.667969 C 510.542969 278.839844 525.117188 271.511719 534.855469 259.808594 C 543.378906 249.632812 547.609375 236.449219 548.574219 223.34375 Z M 548.578125 223.34375 " fill-opacity="1" fill-rule="nonzero"/><path fill="#ffffff" d="M 295.347656 254.367188 C 290.066406 248.96875 286.019531 242.398438 283.601562 235.242188 C 281.164062 242.738281 279.488281 250.746094 280.765625 258.632812 C 281.839844 264.9375 285.546875 270.417969 289.859375 274.992188 C 284.707031 267.105469 282.636719 257.152344 284.839844 247.933594 C 289.132812 255.808594 295.488281 262.359375 302.4375 267.9375 C 313.140625 276.414062 325.390625 282.78125 338.136719 287.582031 C 344.195312 290.019531 350.714844 290.957031 356.824219 293.246094 C 368.71875 297.347656 380.066406 303.660156 388.820312 312.8125 C 396.921875 321.136719 402.464844 331.796875 405.101562 343.085938 C 408.039062 355.699219 407.828125 368.976562 405.117188 381.617188 C 420.035156 365.164062 425.128906 341.105469 420 319.714844 C 419.8125 329.535156 419.695312 339.464844 417.585938 349.105469 C 416.808594 353.289062 414.785156 357.054688 412.429688 360.542969 C 412.988281 347.820312 410.683594 334.839844 404.8125 323.476562 C 395.992188 305.988281 379.3125 293.019531 360.601562 287.625 C 347.367188 283.917969 334.289062 279.441406 321.996094 273.238281 C 312.261719 268.308594 302.921875 262.292969 295.347656 254.367188 Z M 295.347656 254.367188 " fill-opacity="1" fill-rule="nonzero"/><path fill="#ffffff" d="M 396.925781 253.5625 C 377.074219 247.132812 355.914062 245.597656 335.179688 247.003906 C 349.476562 248.378906 363.816406 250.273438 377.574219 254.550781 C 398.53125 260.839844 417.933594 271.773438 434.8125 285.628906 C 447.335938 294.996094 460.675781 303.800781 475.796875 308.335938 C 488.5625 312.320312 502.046875 313.390625 515.359375 312.964844 C 502.96875 320.765625 488.046875 324.285156 473.460938 323.34375 C 468.066406 323.148438 462.839844 321.722656 457.546875 320.820312 C 468.222656 324.820312 479.839844 326.035156 491.144531 324.675781 C 511.785156 322.335938 530.671875 311.957031 546.347656 298.714844 C 529.945312 303.007812 512.652344 303.953125 495.941406 300.945312 C 475.320312 297.359375 455.964844 288.136719 439.203125 275.746094 C 426.320312 266.316406 412.199219 258.394531 396.921875 253.5625 Z M 396.925781 253.5625 " fill-opacity="1" fill-rule="nonzero"/><path fill="#ffffff" d="M 233.324219 277.394531 C 233.539062 276.566406 233.683594 275.734375 233.824219 274.902344 C 228.355469 287.46875 224.332031 300.605469 220.8125 313.835938 C 219.714844 318.238281 218.476562 322.640625 217.867188 327.148438 C 217.78125 328.820312 217.375 330.667969 218.195312 332.222656 C 219.738281 332.855469 221.496094 332.660156 223.085938 333.144531 C 221.902344 335.867188 218.941406 337.066406 216.574219 338.558594 C 218.683594 338.433594 221.59375 337.367188 223.042969 339.496094 C 224.132812 341.621094 224.011719 344.136719 224.789062 346.375 C 225.675781 349.417969 227.800781 352.390625 231.011719 353.1875 C 234.449219 354.175781 237.949219 352.785156 240.847656 350.992188 C 241.71875 350.328125 242.792969 351.285156 243.1875 352.054688 C 244.257812 354.042969 244.90625 356.21875 245.898438 358.242188 C 243.789062 347.996094 240.5625 337.148438 232.601562 329.863281 C 230.542969 327.609375 226.714844 327.261719 225.664062 324.097656 C 224.574219 320.632812 224.984375 316.886719 225.367188 313.335938 C 227.089844 301.171875 230.09375 289.230469 233.324219 277.394531 Z M 233.324219 277.394531 " fill-opacity="1" fill-rule="nonzero"/><path fill="#ffffff" d="M 391.878906 330.003906 C 385.710938 329 379.371094 331.359375 374.84375 335.550781 C 369.863281 340.152344 366.375 346.222656 364.175781 352.597656 C 365.5 351.09375 366.550781 348.433594 368.902344 348.597656 C 372.019531 350.679688 375.386719 353.101562 379.328125 352.886719 C 382.253906 352.648438 384.191406 349.957031 384.796875 347.296875 C 385.703125 344.3125 384.839844 341.234375 384.960938 338.207031 C 385.265625 334.90625 389.007812 334.21875 391.09375 332.34375 C 391.664062 331.730469 392.960938 330.769531 391.878906 330.003906 Z M 391.878906 330.003906 " fill-opacity="1" fill-rule="nonzero"/><g clip-path="url(#f2827edee5)"><path fill="#ffffff" d="M 618.375 341.398438 C 603.035156 335.875 586.371094 332 570.082031 335.316406 C 554.808594 338.257812 541.695312 347.296875 529.699219 356.765625 C 523.5625 361.695312 517.328125 366.523438 511.464844 371.773438 C 502.671875 379.238281 492.515625 385.320312 481.3125 388.308594 C 468.890625 391.675781 455.328125 390.902344 443.457031 385.867188 C 441.457031 385.015625 439.546875 383.953125 437.542969 383.125 C 446.175781 389.214844 456.203125 393.632812 466.808594 394.585938 C 482.96875 396.273438 499.117188 390.355469 512.117188 381.011719 C 523.488281 372.023438 535.070312 363.261719 547.355469 355.554688 C 553.242188 351.921875 559.261719 348.429688 565.707031 345.875 C 569.140625 344.519531 572.742188 343.480469 576.457031 343.34375 C 565.234375 349.988281 556.28125 360.035156 549.871094 371.3125 C 548.382812 374.109375 546.789062 376.902344 545.921875 379.964844 C 554.585938 367.082031 566.015625 355.683594 580.101562 348.859375 C 588.53125 344.699219 597.820312 342.382812 607.183594 341.828125 C 610.910156 341.445312 614.664062 341.835938 618.378906 341.398438 Z M 618.375 341.398438 " fill-opacity="1" fill-rule="nonzero"/></g><path fill="#ffffff" d="M 338.871094 358.773438 C 334.21875 370.957031 330.941406 383.664062 328.820312 396.527344 C 326.96875 408.277344 326.042969 420.273438 327.257812 432.140625 C 328.132812 417.410156 330.40625 402.816406 332.976562 388.304688 C 334.757812 378.425781 336.664062 368.570312 338.871094 358.773438 Z M 338.871094 358.773438 " fill-opacity="1" fill-rule="nonzero"/><path fill="#ffffff" d="M 382.640625 359.953125 C 381.996094 380.746094 381.6875 401.800781 376.527344 422.085938 C 374.664062 428.960938 372.34375 436.03125 367.503906 441.433594 C 374.339844 438.601562 378.558594 431.949219 380.726562 425.15625 C 384.726562 412.796875 384.867188 399.621094 384.5625 386.757812 C 384.363281 377.796875 383.269531 368.894531 382.640625 359.957031 Z M 382.640625 359.953125 " fill-opacity="1" fill-rule="nonzero"/><path fill="#ffffff" d="M 268.910156 362.796875 C 268.710938 362.171875 268.503906 361.550781 268.296875 360.933594 C 268.726562 364.371094 270.003906 367.628906 270.757812 371.007812 C 275.449219 390.191406 278.308594 409.832031 279.257812 429.554688 C 280.960938 406.917969 277.367188 383.867188 268.910156 362.796875 Z M 268.910156 362.796875 " fill-opacity="1" fill-rule="nonzero"/><path fill="#ffffff" d="M 231.71875 368.273438 C 230.292969 382.492188 229.5 396.859375 231.148438 411.09375 C 232.1875 420.28125 234.082031 429.523438 238.09375 437.910156 C 241.253906 443.398438 245.335938 448.289062 248.628906 453.699219 C 254.074219 462.253906 257.734375 472 258.796875 482.117188 C 259.027344 484.40625 259.15625 486.722656 259.53125 489.007812 C 261.195312 476.601562 258.515625 463.90625 253.121094 452.703125 C 251.035156 448.125 247.960938 444.109375 245.5625 439.699219 C 240.433594 430.875 236.949219 421.144531 234.996094 411.144531 C 232.484375 398.328125 231.78125 385.222656 231.9375 372.191406 C 231.933594 370.882812 231.835938 369.570312 231.71875 368.277344 Z M 231.71875 368.273438 " fill-opacity="1" fill-rule="nonzero"/><path fill="#ffffff" d="M 440.792969 413.984375 C 425.644531 408.042969 411.773438 398.945312 400.007812 387.734375 C 409.488281 403.726562 424.101562 416.6875 441.386719 423.652344 C 456.113281 429.773438 472.1875 431.941406 488.046875 432.03125 C 500.640625 432.234375 513.160156 430.640625 525.71875 429.976562 C 537.492188 429.839844 549.371094 431.613281 560.429688 435.734375 C 571.753906 439.957031 581.988281 447.234375 589.304688 456.902344 C 600.375 471.351562 604.71875 489.699219 606.148438 507.539062 C 607.40625 495.21875 606.90625 482.652344 604.128906 470.566406 C 601.480469 459.222656 596.242188 448.296875 588.070312 439.886719 C 580.90625 432.359375 571.71875 426.964844 561.976562 423.488281 C 549.414062 418.96875 536 417.34375 522.710938 416.96875 C 508.519531 416.640625 494.335938 417.898438 480.257812 419.597656 C 466.894531 421.152344 453.269531 418.871094 440.792969 413.984375 Z M 440.792969 413.984375 " fill-opacity="1" fill-rule="nonzero"/><path fill="#ffffff" d="M 234.011719 678.445312 C 230.730469 594.320312 228.507812 510.148438 226.167969 426 C 223.878906 479.125 223.183594 532.335938 224.855469 585.492188 C 226.289062 623.6875 228.597656 661.957031 234.816406 699.714844 C 234.875 692.617188 234.238281 685.535156 234.011719 678.441406 Z M 234.011719 678.445312 " fill-opacity="1" fill-rule="nonzero"/><path fill="#ffffff" d="M 388.632812 434.730469 C 387.320312 450.71875 386.675781 466.832031 388.117188 482.835938 C 389.039062 494.070312 391.410156 505.113281 393.992188 516.070312 C 400.804688 547.15625 407.398438 578.289062 414.070312 609.417969 C 416.742188 622.25 419.679688 635.039062 422.152344 647.917969 C 421.203125 637.765625 419.277344 627.726562 417.914062 617.625 C 413.71875 590.238281 409.453125 562.84375 403.792969 535.71875 C 402.195312 527.488281 399.589844 519.496094 397.882812 511.28125 C 392.539062 486.09375 390.1875 460.386719 388.632812 434.726562 Z M 388.632812 434.730469 " fill-opacity="1" fill-rule="nonzero"/><path fill="#ffffff" d="M 457.316406 452.25 C 451.179688 448.667969 445.503906 444.390625 439.730469 440.265625 C 447.78125 447.507812 456.636719 453.839844 465.878906 459.480469 C 475.191406 465.105469 485.023438 469.972656 495.421875 473.253906 C 503.265625 475.824219 511.585938 476.351562 519.527344 478.554688 C 537.125 482.933594 554.257812 491.628906 565.832031 505.921875 C 572.421875 513.953125 577.042969 523.507812 579.695312 533.539062 C 582.585938 544.300781 583.320312 555.535156 582.902344 566.636719 C 579.039062 558.34375 575.070312 549.878906 568.71875 543.140625 C 561.695312 535.265625 551.582031 530.109375 540.980469 529.65625 C 527.425781 529.019531 513.558594 530.960938 500.273438 527.371094 C 496.117188 526.253906 492.257812 524.234375 488.847656 521.621094 C 491.183594 525.105469 495.1875 526.878906 498.984375 528.289062 C 509.515625 531.878906 520.761719 532.589844 531.808594 532.863281 C 541.527344 532.667969 551.550781 535.355469 559.152344 541.589844 C 567.722656 548.5 572.929688 558.671875 576.1875 569 C 582 587.671875 582.382812 607.453125 582.054688 626.839844 C 584.796875 615.507812 588.097656 604.296875 590.105469 592.800781 C 593.066406 576.765625 594.535156 560.296875 592.636719 544.050781 C 591.292969 532.785156 588.175781 521.609375 582.5 511.734375 C 576.964844 502.042969 568.894531 493.863281 559.367188 488.066406 C 551.59375 483.4375 543.214844 479.875 534.71875 476.808594 C 521.648438 472.109375 507.757812 470.78125 494.179688 468.335938 C 481.148438 464.945312 468.851562 459.117188 457.3125 452.246094 Z M 457.316406 452.25 " fill-opacity="1" fill-rule="nonzero"/><path fill="#ffffff" d="M 365.128906 452.316406 C 354.46875 472.453125 351.335938 496.238281 355.296875 518.585938 C 355.601562 515.785156 355.527344 512.972656 355.625 510.164062 C 356.207031 490.5625 360.042969 471.203125 365.128906 452.316406 Z M 365.128906 452.316406 " fill-opacity="1" fill-rule="nonzero"/><g clip-path="url(#caa30c53b0)"><path fill="#ffffff" d="M 413.59375 467.980469 C 413.855469 472.679688 415.375 477.195312 416.738281 481.667969 C 423.160156 500.703125 435.140625 517.316406 448.566406 532.046875 C 462.351562 547.09375 478.023438 560.308594 494.472656 572.347656 C 497.085938 574.132812 499.183594 576.527344 501.355469 578.792969 C 510.078125 588.25 517.234375 599.507812 520.183594 612.140625 C 522.714844 622.550781 522.085938 633.578125 519.027344 643.804688 C 515.121094 656.988281 507.660156 668.792969 499.265625 679.554688 C 503.441406 667.917969 505.824219 655.1875 503.433594 642.902344 C 501.460938 632.886719 495.21875 623.195312 485.601562 619.101562 C 492.382812 624.835938 497.554688 632.65625 499.292969 641.441406 C 501.648438 653.066406 499.019531 665.066406 494.671875 675.902344 C 489.285156 689.15625 481.5 701.351562 472.542969 712.472656 C 486.769531 703.257812 500.332031 692.820312 511.800781 680.285156 C 523.308594 667.695312 532.722656 652.375 535.121094 635.234375 C 537.15625 621.621094 534.191406 607.574219 527.929688 595.414062 C 521.632812 583.171875 512.554688 572.425781 501.921875 563.726562 C 498.335938 560.734375 494.335938 558.316406 490.527344 555.648438 C 472.796875 543.371094 456.074219 529.492188 441.648438 513.414062 C 432.789062 503.417969 424.71875 492.613281 418.636719 480.683594 C 416.613281 476.609375 414.601562 472.445312 413.59375 467.984375 Z M 413.59375 467.980469 " fill-opacity="1" fill-rule="nonzero"/></g><path fill="#ffffff" d="M 279.304688 491.777344 C 278.621094 490.683594 277.476562 489.710938 276.085938 490.136719 C 274.132812 490.808594 272.925781 492.742188 272.164062 494.566406 C 269.648438 502.183594 267.730469 510.015625 266.683594 517.976562 C 265.929688 523.28125 266.441406 528.878906 268.714844 533.777344 C 270.277344 537.117188 273.375 539.9375 277.148438 540.339844 C 283.457031 541.128906 290.609375 537.148438 292.003906 530.695312 C 293.039062 524.722656 290.363281 518.652344 286.441406 514.253906 C 282.800781 509.933594 279.664062 504.996094 278.316406 499.449219 C 277.792969 496.890625 277.421875 493.890625 279.304688 491.777344 Z M 279.304688 491.777344 " fill-opacity="1" fill-rule="nonzero"/><path fill="#ffffff" d="M 342.574219 491.675781 C 341.625 491.082031 340.183594 491.195312 339.523438 492.175781 C 337.742188 493.761719 340.320312 495.578125 340.101562 497.410156 C 340.101562 502.785156 337.035156 507.515625 334.210938 511.875 C 331.378906 516.308594 326.863281 519.820312 325.6875 525.175781 C 324.554688 530.078125 327.015625 534.984375 330.28125 538.511719 C 333.207031 541.351562 337.675781 542.285156 341.582031 541.332031 C 344.832031 540.46875 347.457031 537.964844 348.878906 534.96875 C 351.117188 530.28125 351.199219 524.945312 350.953125 519.859375 C 350.496094 511.660156 349.007812 503.378906 345.453125 495.921875 C 344.636719 494.433594 343.976562 492.722656 342.574219 491.675781 Z M 342.574219 491.675781 " fill-opacity="1" fill-rule="nonzero"/><path fill="#ffffff" d="M 263.503906 538.796875 C 263.472656 542.675781 264.394531 546.460938 265.132812 550.246094 C 266.457031 556.699219 268.648438 563.261719 273.199219 568.191406 C 278.929688 574.519531 287.347656 577.472656 295.519531 579.066406 C 305.671875 580.945312 316.488281 581.933594 326.363281 578.226562 C 336.996094 574.464844 345.226562 565.769531 350.242188 555.867188 C 352.527344 551.230469 354.5625 546.386719 355.480469 541.277344 C 349.96875 553.714844 342.109375 565.84375 330.0625 572.796875 C 333.109375 569.902344 335.617188 566.53125 337.964844 563.066406 C 329.050781 569.703125 318.3125 574.613281 307.003906 574.339844 C 296.144531 574.316406 285.886719 569.515625 277.449219 562.957031 C 280.109375 567.144531 284.121094 570.175781 287.609375 573.628906 C 279.554688 570.832031 273.238281 564.359375 269.402344 556.875 C 266.535156 551.207031 264.4375 545.09375 263.503906 538.796875 Z M 263.503906 538.796875 " fill-opacity="1" fill-rule="nonzero"/><path fill="#ffffff" d="M 421.40625 551.855469 C 419.636719 548.113281 417.734375 544.40625 416.476562 540.449219 C 416.683594 542.796875 417.589844 544.996094 418.335938 547.214844 C 422.429688 558.851562 427 570.4375 433.625 580.894531 C 438.535156 588.734375 445.078125 595.492188 452.589844 600.863281 C 460.445312 606.722656 467.140625 614.492188 470.496094 623.796875 C 473.011719 630.554688 473.578125 637.871094 473.164062 645.019531 C 473.074219 648.507812 472.308594 651.984375 472.703125 655.480469 C 475.277344 643.460938 476.925781 630.621094 472.976562 618.703125 C 470.210938 610.101562 464.164062 602.953125 457.097656 597.507812 C 441.246094 585.941406 430.117188 569.175781 421.40625 551.855469 Z M 421.40625 551.855469 " fill-opacity="1" fill-rule="nonzero"/></svg>