<svg xmlns="http://www.w3.org/2000/svg" xmlns:xlink="http://www.w3.org/1999/xlink" width="1080" zoomAndPan="magnify" viewBox="0 0 810 809.999993" height="1080" preserveAspectRatio="xMidYMid meet" version="1.0"><defs><clipPath id="524055661c"><path d="M 0 0 L 611.25 0 L 611.25 810 L 0 810 Z M 0 0 " clip-rule="nonzero"/></clipPath></defs><g clip-path="url(#524055661c)"><path fill="#2196f3" d="M 208.933594 0.617188 L -0.355469 0.617188 L -0.355469 809.382812 L 208.933594 809.382812 C 215.550781 809.382812 222.164062 809.222656 228.773438 808.898438 C 235.382812 808.574219 241.984375 808.085938 248.570312 807.4375 C 255.15625 806.789062 261.722656 805.980469 268.265625 805.007812 C 274.8125 804.035156 281.332031 802.90625 287.824219 801.613281 C 294.3125 800.324219 300.769531 798.875 307.191406 797.265625 C 313.609375 795.65625 319.984375 793.894531 326.320312 791.972656 C 332.652344 790.050781 338.933594 787.976562 345.164062 785.746094 C 351.394531 783.515625 357.570312 781.136719 363.683594 778.601562 C 369.796875 776.070312 375.847656 773.390625 381.828125 770.558594 C 387.8125 767.730469 393.722656 764.753906 399.558594 761.636719 C 405.394531 758.515625 411.152344 755.253906 416.828125 751.851562 C 422.503906 748.449219 428.09375 744.910156 433.597656 741.234375 C 439.097656 737.558594 444.507812 733.746094 449.824219 729.804688 C 455.140625 725.863281 460.355469 721.792969 465.472656 717.59375 C 470.585938 713.394531 475.597656 709.074219 480.5 704.628906 C 485.402344 700.183594 490.195312 695.621094 494.875 690.941406 C 499.554688 686.261719 504.117188 681.472656 508.5625 676.566406 C 513.003906 671.664062 517.328125 666.65625 521.527344 661.539062 C 525.722656 656.421875 529.792969 651.207031 533.738281 645.890625 C 537.679688 640.574219 541.488281 635.167969 545.164062 629.664062 C 548.84375 624.160156 552.382812 618.570312 555.785156 612.894531 C 559.1875 607.21875 562.449219 601.460938 565.566406 595.625 C 568.6875 589.789062 571.660156 583.878906 574.492188 577.898438 C 577.320312 571.914062 580 565.867188 582.535156 559.75 C 585.066406 553.636719 587.449219 547.464844 589.679688 541.234375 C 591.90625 535 593.984375 528.71875 595.902344 522.386719 C 597.824219 516.054688 599.589844 509.675781 601.199219 503.257812 C 602.804688 496.835938 604.253906 490.382812 605.546875 483.890625 C 606.835938 477.402344 607.96875 470.882812 608.941406 464.335938 C 609.910156 457.789062 610.71875 451.222656 611.371094 444.636719 C 612.019531 438.050781 612.503906 431.453125 612.828125 424.84375 C 613.152344 418.230469 613.316406 411.617188 613.316406 405 C 613.316406 398.382812 613.152344 391.769531 612.828125 385.15625 C 612.503906 378.546875 612.019531 371.949219 611.371094 365.363281 C 610.71875 358.777344 609.910156 352.210938 608.941406 345.664062 C 607.96875 339.117188 606.835938 332.597656 605.546875 326.109375 C 604.253906 319.617188 602.804688 313.164062 601.199219 306.742188 C 599.589844 300.324219 597.824219 293.945312 595.902344 287.613281 C 593.984375 281.28125 591.90625 275 589.679688 268.765625 C 587.449219 262.535156 585.066406 256.363281 582.535156 250.25 C 580 244.132812 577.320312 238.085938 574.492188 232.101562 C 571.660156 226.121094 568.6875 220.210938 565.566406 214.375 C 562.449219 208.539062 559.1875 202.78125 555.785156 197.105469 C 552.382812 191.429688 548.84375 185.839844 545.164062 180.335938 C 541.488281 174.832031 537.679688 169.425781 533.738281 164.109375 C 529.792969 158.792969 525.722656 153.578125 521.527344 148.460938 C 517.328125 143.34375 513.003906 138.335938 508.5625 133.433594 C 504.117188 128.527344 499.554688 123.738281 494.875 119.058594 C 490.195312 114.378906 485.402344 109.816406 480.5 105.371094 C 475.597656 100.925781 470.585938 96.605469 465.472656 92.40625 C 460.355469 88.207031 455.140625 84.136719 449.824219 80.195312 C 444.507812 76.253906 439.097656 72.441406 433.597656 68.765625 C 428.09375 65.089844 422.503906 61.550781 416.828125 58.148438 C 411.152344 54.746094 405.394531 51.484375 399.558594 48.363281 C 393.722656 45.246094 387.8125 42.269531 381.828125 39.441406 C 375.847656 36.609375 369.796875 33.929688 363.683594 31.398438 C 357.570312 28.863281 351.394531 26.484375 345.164062 24.253906 C 338.933594 22.023438 332.652344 19.949219 326.320312 18.027344 C 319.984375 16.105469 313.609375 14.34375 307.191406 12.734375 C 300.769531 11.125 294.3125 9.675781 287.824219 8.386719 C 281.332031 7.09375 274.8125 5.964844 268.265625 4.992188 C 261.722656 4.019531 255.15625 3.210938 248.570312 2.5625 C 241.984375 1.914062 235.382812 1.425781 228.773438 1.101562 C 222.164062 0.777344 215.550781 0.617188 208.933594 0.617188 Z M 208.933594 0.617188 " fill-opacity="1" fill-rule="nonzero"/></g><path fill="#000000" d="M 275.121094 58.886719 C 279.492188 70.277344 286.578125 79.390625 296.367188 86.230469 C 296.726562 86.46875 296.785156 86.765625 296.546875 87.125 L 296.109375 87.765625 C 295.460938 88.726562 294.660156 88.894531 293.703125 88.28125 C 286.097656 83.511719 277.691406 76.5 268.480469 67.25 C 253.582031 52.289062 247.515625 34.726562 250.28125 14.570312 C 250.605469 12.191406 249.914062 7.121094 248.207031 -0.640625 C 247.078125 -5.71875 243.34375 -15.917969 237.003906 -31.238281 C 236.945312 -31.378906 236.917969 -31.523438 236.917969 -31.675781 C 236.914062 -31.824219 236.945312 -31.972656 237 -32.113281 C 237.058594 -32.253906 237.140625 -32.378906 237.25 -32.492188 C 237.355469 -32.601562 237.480469 -32.6875 237.621094 -32.75 L 238.285156 -33.058594 C 238.644531 -33.210938 238.917969 -33.109375 239.105469 -32.75 C 244.761719 -21.464844 250.1875 -10.53125 255.382812 0.0507812 C 257.3125 3.984375 258.851562 8.15625 259.996094 12.566406 C 263.6875 26.84375 268.726562 42.285156 275.121094 58.886719 Z M 275.121094 58.886719 " fill-opacity="1" fill-rule="nonzero"/><path fill="#000000" d="M 173.234375 20.621094 C 171.011719 8.703125 166.914062 -5.574219 160.933594 -22.210938 C 160.878906 -22.363281 160.855469 -22.519531 160.863281 -22.679688 C 160.875 -22.839844 160.914062 -22.988281 160.984375 -23.132812 C 161.054688 -23.273438 161.148438 -23.398438 161.269531 -23.5 C 161.390625 -23.601562 161.523438 -23.675781 161.675781 -23.722656 L 162.46875 -23.953125 C 162.761719 -24.054688 162.964844 -23.960938 163.085938 -23.671875 C 167.460938 -13.855469 172.046875 -3.71875 176.847656 6.746094 C 180.042969 13.707031 185.230469 19.101562 192.40625 22.929688 C 207.734375 31.164062 215.9375 42.601562 218.757812 61.195312 C 220.089844 70.070312 212.09375 71.917969 206.015625 75.125 C 205.230469 75.550781 204.394531 75.660156 203.503906 75.457031 C 194.253906 73.378906 185.742188 55.785156 181.4375 47.191406 C 177.949219 40.234375 175.21875 31.375 173.234375 20.621094 Z M 173.234375 20.621094 " fill-opacity="1" fill-rule="nonzero"/><path fill="#000000" d="M 498.34375 113.390625 C 500.699219 115.785156 503.238281 116.605469 505.953125 115.851562 C 507.203125 115.507812 507.183594 115.203125 505.902344 114.929688 L 498.34375 113.390625 C 497.46875 112.125 496.070312 111.355469 494.136719 111.082031 C 491.933594 110.773438 490.4375 110.472656 489.652344 110.183594 C 475.214844 104.96875 460.980469 99.863281 446.953125 94.871094 C 438.953125 92.023438 431.214844 89.640625 423.011719 87.894531 C 405.53125 84.203125 387.742188 79.390625 369.648438 73.457031 C 357.394531 69.453125 344.402344 66.429688 331.378906 64.683594 C 331.179688 64.652344 330.988281 64.683594 330.804688 64.769531 C 330.621094 64.855469 330.476562 64.988281 330.371094 65.160156 C 330.269531 65.335938 330.222656 65.523438 330.230469 65.726562 C 330.242188 65.929688 330.308594 66.113281 330.429688 66.273438 C 337.539062 76.054688 344.605469 86.160156 351.628906 96.589844 C 359.265625 107.925781 364.53125 120.878906 367.417969 135.445312 C 374.160156 169.277344 396.328125 197.359375 411.527344 227.597656 C 416.707031 237.875 421.714844 247.972656 426.546875 257.890625 C 426.738281 258.285156 426.710938 258.660156 426.472656 259.015625 L 425.832031 260.015625 C 425.746094 260.144531 425.636719 260.246094 425.503906 260.320312 C 425.371094 260.390625 425.226562 260.433594 425.074219 260.4375 C 424.921875 260.441406 424.777344 260.414062 424.640625 260.347656 C 424.503906 260.28125 424.386719 260.191406 424.292969 260.070312 C 421.765625 256.855469 419.441406 253.640625 417.320312 250.425781 C 403.496094 229.566406 387.597656 204.976562 369.621094 176.664062 C 360.472656 162.25 357.984375 144.0625 355.394531 127.164062 C 354.097656 118.699219 351.253906 111.296875 346.859375 104.953125 C 342.066406 98.027344 336.429688 92.078125 332.507812 84.28125 C 327.226562 73.816406 322.410156 62.734375 315.898438 52.914062 C 313.488281 49.289062 311.164062 45.746094 308.925781 42.292969 C 308.828125 42.132812 308.769531 41.957031 308.753906 41.765625 C 308.742188 41.578125 308.769531 41.394531 308.84375 41.21875 C 308.917969 41.042969 309.027344 40.894531 309.171875 40.769531 C 309.320312 40.648438 309.484375 40.566406 309.671875 40.523438 C 322.714844 37.625 336.53125 33.652344 349.117188 32.597656 C 386.308594 29.417969 425.496094 38.984375 462.917969 47.730469 C 466.21875 48.5 466.449219 47.980469 463.613281 46.167969 C 463.082031 45.824219 461.851562 45.292969 459.921875 44.578125 C 437.417969 36.300781 414.734375 30.273438 391.871094 26.496094 C 374.882812 23.671875 360.480469 22.699219 348.65625 23.570312 C 337.429688 24.390625 337.285156 23.46875 348.21875 20.800781 C 356.574219 18.75 365.007812 16.109375 374.003906 15.570312 C 396.96875 14.183594 419.320312 13.234375 441.441406 19.3125 C 457.757812 23.777344 473.429688 28.65625 488.449219 33.957031 C 533.484375 49.835938 576.054688 61.890625 622.550781 57.707031 C 622.925781 57.675781 623.234375 57.511719 623.472656 57.222656 C 624.207031 56.347656 624.019531 55.863281 622.910156 55.757812 C 601.125 53.503906 582.054688 49.960938 561.421875 41.808594 C 547.222656 36.179688 533.441406 30.46875 520.078125 24.675781 C 491.882812 12.414062 463.996094 5.617188 434.238281 5.285156 C 401.910156 4.925781 371.132812 8.59375 341.914062 16.289062 C 330.757812 19.226562 319.785156 23.570312 309.003906 29.316406 C 308.875 29.386719 308.742188 29.398438 308.605469 29.359375 C 308.46875 29.320312 308.371094 29.234375 308.3125 29.109375 L 307.980469 28.445312 C 307.808594 28.121094 307.761719 27.78125 307.84375 27.425781 C 307.929688 27.070312 308.117188 26.785156 308.414062 26.570312 C 318.308594 19.253906 329.347656 12.671875 341.53125 6.824219 C 397.59375 -20.125 454.828125 -21.6875 513.234375 2.128906 C 522.90625 6.0625 532.429688 10.039062 541.8125 14.054688 C 587.71875 33.625 642.75 44.398438 690.808594 33.675781 C 707.226562 30.015625 722.863281 23.339844 737.710938 13.644531 C 737.796875 13.59375 737.875 13.613281 737.941406 13.695312 L 738.328125 14.234375 C 738.617188 14.644531 738.574219 15.011719 738.199219 15.339844 C 716.804688 32.828125 691.808594 43.757812 663.203125 48.117188 C 662.992188 48.140625 662.824219 48.238281 662.695312 48.410156 C 662.566406 48.578125 662.511719 48.773438 662.535156 48.988281 L 662.585938 49.730469 C 662.605469 49.851562 662.671875 49.910156 662.792969 49.910156 C 686.101562 49.109375 709.636719 50.621094 733.40625 54.449219 C 750.800781 57.238281 767.273438 61.734375 782.824219 67.941406 C 783.0625 68.027344 783.148438 68.191406 783.078125 68.429688 C 782.996094 68.6875 782.832031 68.78125 782.59375 68.710938 C 767.058594 65.144531 750.398438 61.324219 734.84375 60.195312 C 712.441406 58.570312 690.105469 59.761719 667.839844 63.761719 C 667.808594 63.761719 667.789062 63.742188 667.789062 63.710938 C 667.671875 63.078125 667.664062 63.058594 667.765625 63.660156 C 667.765625 63.675781 667.773438 63.683594 667.789062 63.683594 C 672.234375 64.058594 678.949219 64.214844 687.9375 64.144531 C 716.363281 63.890625 748.117188 70.328125 772.085938 85.742188 C 772.273438 85.859375 772.375 86.023438 772.390625 86.230469 C 772.390625 86.3125 772.382812 86.398438 772.367188 86.484375 C 772.28125 86.707031 772.136719 86.785156 771.929688 86.714844 C 759.421875 82.84375 746.402344 77.996094 733.96875 76.199219 C 715.378906 73.550781 696.574219 74.097656 677.554688 77.839844 C 658.230469 81.671875 638.425781 85.261719 618.144531 88.613281 C 591.792969 92.972656 566.417969 91.613281 540.503906 86.511719 C 533.808594 85.195312 526.820312 83.894531 519.539062 82.613281 C 516.957031 82.167969 514.445312 81.550781 512.003906 80.765625 C 509.832031 80.046875 507.484375 79.800781 504.953125 80.023438 C 503.996094 80.105469 503.082031 79.929688 502.210938 79.484375 C 499.476562 78.0625 496.34375 77.464844 492.804688 77.6875 C 491.867188 77.738281 490.984375 77.542969 490.164062 77.097656 C 487.6875 75.730469 485.039062 75.082031 482.21875 75.148438 C 481.363281 75.164062 480.5625 74.984375 479.8125 74.609375 C 477.195312 73.3125 474.523438 72.710938 471.789062 72.816406 C 471.566406 72.832031 471.386719 72.925781 471.25 73.097656 C 471.042969 73.335938 471.011719 73.574219 471.148438 73.816406 C 471.265625 74.039062 471.445312 74.164062 471.683594 74.199219 C 476.554688 75.019531 481.261719 75.976562 485.808594 77.074219 C 504.859375 81.6875 523.777344 86.09375 542.554688 90.28125 C 569.484375 96.28125 594.484375 98.503906 617.554688 96.949219 C 637.664062 95.597656 652.8125 95.015625 662.996094 95.207031 C 681.675781 95.53125 701.871094 99.410156 723.589844 106.847656 C 723.792969 106.917969 723.890625 107.0625 723.871094 107.285156 C 723.871094 107.371094 723.863281 107.449219 723.847656 107.515625 C 723.792969 107.636719 723.71875 107.6875 723.617188 107.671875 C 717.644531 107.105469 710.824219 104.695312 705.828125 103.976562 C 673.15625 99.308594 647.617188 97.582031 629.214844 98.796875 C 612.503906 99.890625 612.519531 100.753906 629.265625 101.386719 C 653.804688 102.308594 680.605469 105.953125 709.671875 112.3125 C 722.964844 115.21875 741.148438 121.28125 764.214844 130.496094 C 765.171875 130.890625 765.28125 131.445312 764.546875 132.164062 L 764.0625 132.625 C 763.890625 132.796875 763.695312 132.839844 763.472656 132.753906 C 746.164062 126.496094 734.757812 122.648438 729.253906 121.210938 C 710.355469 116.238281 688.191406 114.355469 662.765625 115.570312 C 640.433594 116.628906 617.65625 117.527344 594.433594 118.261719 C 589.785156 118.417969 589.65625 119.253906 594.050781 120.777344 C 603.960938 124.210938 613.425781 128.425781 622.449219 133.421875 C 650.875 149.140625 677.582031 166.222656 708.722656 177.613281 C 721.027344 182.109375 735.347656 186.023438 751.679688 189.359375 C 775.125 194.128906 798.277344 198.96875 821.140625 203.875 C 831.011719 205.976562 846.800781 209.464844 854.949219 215.722656 C 856.8125 217.144531 856.625 217.503906 854.386719 216.800781 C 824.089844 207.386719 794.769531 208.03125 764.0625 210.621094 C 763.957031 210.636719 763.898438 210.695312 763.882812 210.800781 L 763.882812 211.570312 C 763.875 211.828125 763.953125 212.058594 764.125 212.261719 C 764.296875 212.460938 764.515625 212.582031 764.777344 212.621094 C 782.378906 214.722656 799.59375 218.964844 816.425781 225.339844 C 816.75 225.460938 816.863281 225.691406 816.757812 226.035156 L 816.578125 226.753906 C 816.511719 226.976562 816.367188 227.070312 816.144531 227.035156 C 782.054688 220.339844 754.628906 217.03125 723.410156 216.648438 C 705.519531 216.441406 687.765625 215.304688 670.148438 213.234375 C 666.253906 212.773438 662.894531 211.054688 658.921875 211.105469 C 653.898438 211.160156 653.820312 211.757812 658.691406 212.902344 C 659.769531 213.160156 662.152344 212.878906 663.945312 213.339844 C 673.992188 215.953125 683.074219 217.519531 691.191406 218.03125 C 726.5625 220.238281 759.0625 225.367188 788.691406 233.421875 C 798.023438 235.96875 806.898438 239.925781 815.324219 245.296875 C 815.503906 245.40625 815.652344 245.546875 815.773438 245.71875 C 815.894531 245.890625 815.976562 246.082031 816.023438 246.285156 C 816.066406 246.492188 816.066406 246.699219 816.023438 246.90625 C 815.984375 247.113281 815.90625 247.300781 815.785156 247.476562 L 815.425781 248.015625 C 815.101562 248.492188 814.675781 248.628906 814.144531 248.425781 C 802.234375 243.894531 790.382812 239.882812 778.59375 236.394531 C 768.511719 233.386719 757.371094 231.402344 745.171875 230.445312 C 713.269531 227.914062 685.347656 225.546875 661.410156 223.339844 C 620.117188 219.546875 585.050781 207.414062 540.660156 193.078125 C 524.84375 187.972656 514.335938 180.433594 505.699219 167.070312 C 504.980469 165.976562 505.253906 165.589844 506.519531 165.914062 L 601.125 191.128906 C 603.925781 191.878906 604.054688 191.554688 601.507812 190.152344 C 597.339844 187.863281 592.410156 185.777344 586.71875 183.894531 C 566.078125 177.039062 543.035156 170.15625 517.589844 163.25 C 505.972656 160.101562 496.847656 156.792969 490.21875 153.324219 C 481.691406 148.859375 473.316406 143.601562 465.097656 137.550781 C 444.660156 122.503906 423.746094 106.269531 402.351562 88.84375 C 399.550781 86.554688 399.890625 85.902344 403.378906 86.894531 C 433.382812 95.359375 463.3125 104.035156 493.164062 112.929688 C 494.410156 113.304688 496.136719 113.457031 498.34375 113.390625 Z M 498.34375 113.390625 " fill-opacity="1" fill-rule="nonzero"/><path fill="#000000" d="M 264.738281 5.386719 C 295.058594 21.007812 319.4375 62.660156 323.203125 96.769531 C 323.222656 96.976562 323.1875 97.171875 323.09375 97.359375 C 323 97.542969 322.863281 97.6875 322.6875 97.796875 C 322.507812 97.902344 322.316406 97.953125 322.109375 97.949219 C 321.902344 97.945312 321.710938 97.882812 321.539062 97.769531 C 306.644531 87.410156 291.113281 77.125 283.9375 60.632812 C 280.347656 52.375 279.117188 43.34375 275.476562 35.085938 C 271.429688 25.957031 267.171875 16.707031 262.714844 7.335938 C 261.449219 4.703125 262.125 4.054688 264.738281 5.386719 Z M 264.738281 5.386719 " fill-opacity="1" fill-rule="nonzero"/><path fill="#000000" d="M 239.390625 58.246094 L 227.445312 62.425781 C 227.21875 62.507812 226.996094 62.496094 226.78125 62.394531 C 226.566406 62.296875 226.417969 62.136719 226.34375 61.914062 L 216.320312 34.367188 C 215.960938 33.394531 216.277344 33.050781 217.269531 33.34375 C 220.550781 34.316406 223.328125 36.25 225.597656 39.140625 C 230.351562 45.140625 235.015625 51.304688 239.59375 57.632812 C 239.800781 57.921875 239.730469 58.128906 239.390625 58.246094 Z M 239.390625 58.246094 " fill-opacity="1" fill-rule="nonzero"/><path fill="#000000" d="M 137.761719 149.296875 C 128.199219 159.734375 126.558594 170.171875 129.097656 184.640625 C 129.113281 184.785156 129.082031 184.921875 129 185.042969 C 128.921875 185.167969 128.808594 185.25 128.667969 185.292969 C 128.527344 185.339844 128.390625 185.332031 128.253906 185.277344 C 128.117188 185.222656 128.015625 185.128906 127.945312 184.996094 C 117.28125 162.351562 130.378906 140.089844 145.808594 123.675781 C 173.210938 94.511719 210.886719 74.710938 250.128906 62.863281 C 251.042969 62.585938 251.972656 62.464844 252.929688 62.496094 C 253.882812 62.527344 254.804688 62.710938 255.699219 63.046875 C 256.59375 63.382812 257.410156 63.851562 258.152344 64.457031 C 258.890625 65.0625 259.515625 65.773438 260.023438 66.582031 L 263.175781 71.582031 C 264.796875 74.164062 264.140625 75.910156 261.203125 76.816406 C 215.089844 90.921875 170.464844 113.644531 137.761719 149.296875 Z M 137.761719 149.296875 " fill-opacity="1" fill-rule="nonzero"/><path fill="#000000" d="M 465.585938 179.484375 C 465.722656 179.273438 465.722656 179.078125 465.585938 178.894531 C 456.390625 166.121094 446.15625 155.367188 434.878906 146.628906 C 427.992188 141.292969 421.558594 135.867188 415.578125 130.34375 C 398.457031 114.542969 377.875 103.359375 355.882812 92.433594 C 352.621094 90.828125 349.484375 88.195312 346.476562 84.535156 C 345.605469 83.476562 345.152344 82.261719 345.117188 80.894531 C 345.117188 80.585938 345.125 80.269531 345.144531 79.945312 C 345.179688 79.59375 345.367188 79.355469 345.699219 79.238281 C 346.035156 79.117188 346.328125 79.183594 346.578125 79.433594 C 361.957031 95.617188 382.105469 99.027344 400.6875 110.335938 C 414.304688 118.628906 427.683594 127.617188 440.824219 137.292969 C 452.128906 145.628906 461.484375 155.476562 470.53125 166.300781 C 496.8125 197.777344 514.019531 232.4375 522.152344 270.277344 C 527.878906 296.882812 529.398438 321.941406 526.714844 345.449219 C 525.929688 352.253906 524.949219 352.28125 523.769531 345.527344 C 518.976562 318.007812 515.027344 289.871094 502.03125 264.148438 C 490.859375 242.019531 477.246094 220.589844 461.203125 199.847656 C 452.667969 188.820312 441.441406 179.714844 430.855469 170.097656 C 419.355469 159.667969 403.675781 146.980469 383.820312 132.035156 C 383.207031 131.558594 382.96875 130.90625 383.105469 130.085938 C 383.132812 129.90625 383.199219 129.738281 383.304688 129.589844 C 383.410156 129.4375 383.542969 129.316406 383.707031 129.226562 C 383.867188 129.136719 384.042969 129.085938 384.230469 129.074219 C 384.414062 129.0625 384.597656 129.09375 384.769531 129.164062 C 413.578125 141.039062 439.183594 159.683594 463.792969 179.714844 C 464.117188 179.972656 464.472656 180.066406 464.867188 179.996094 C 465.15625 179.945312 465.398438 179.773438 465.585938 179.484375 Z M 465.585938 179.484375 " fill-opacity="1" fill-rule="nonzero"/><path fill="#000000" d="M 66.351562 387.511719 C 68.472656 385.546875 68.214844 385.179688 65.582031 386.410156 C 59.621094 389.179688 53.570312 392.25 47.4375 395.617188 C 46.257812 396.265625 45.71875 395.925781 45.820312 394.589844 C 46.417969 386.128906 49.929688 379.945312 56.355469 376.046875 C 62.523438 372.304688 67.386719 372.839844 70.941406 377.664062 C 71.402344 378.277344 71.957031 378.382812 72.605469 377.972656 C 73.390625 377.476562 73.613281 376.800781 73.273438 375.945312 C 68.300781 363.171875 56.152344 367.300781 47.488281 373.175781 C 36.109375 380.871094 35.183594 392.488281 38.3125 404.875 C 41.695312 418.195312 41.207031 431.183594 36.851562 443.835938 C 36.492188 444.859375 36.550781 445.851562 37.03125 446.808594 C 38.226562 449.238281 39.910156 451.28125 42.078125 452.941406 C 42.277344 453.085938 42.417969 453.277344 42.503906 453.503906 C 42.59375 453.734375 42.613281 453.96875 42.566406 454.214844 C 42.523438 454.457031 42.417969 454.671875 42.25 454.855469 C 42.082031 455.042969 41.882812 455.171875 41.644531 455.246094 C 29.339844 458.890625 16.730469 455.015625 12.269531 442.117188 C 7.09375 427.214844 5.453125 411.058594 3.351562 395.464844 C 0.863281 377.175781 -0.671875 366.507812 15.679688 357.222656 C 27.230469 350.671875 37.457031 341.730469 46.359375 330.394531 C 70.949219 299.105469 96.359375 267.59375 122.585938 235.855469 C 131.839844 224.699219 138.503906 212.699219 143.144531 198.847656 C 150.527344 176.789062 171.363281 167.429688 185.488281 150.628906 C 189.007812 146.441406 192.03125 142.234375 194.558594 138.011719 C 199.292969 130.179688 204.460938 122.648438 210.066406 115.414062 C 211.914062 113.039062 211.449219 112.421875 208.683594 113.570312 C 190.636719 121.042969 175.394531 131.085938 162.957031 143.707031 C 157.710938 149.039062 154.164062 156.273438 152.320312 165.402344 C 152.097656 166.515625 151.714844 166.566406 151.167969 165.558594 C 150.074219 163.503906 149.570312 161.273438 149.652344 158.863281 C 149.652344 158.789062 149.625 158.746094 149.578125 158.734375 L 148.960938 158.476562 C 148.464844 158.289062 148.167969 158.453125 148.066406 158.964844 L 144.65625 177.433594 C 144.28125 179.449219 143.75 179.5 143.066406 177.585938 C 137.300781 161.734375 151.757812 141.21875 163.058594 130.574219 C 191.203125 104.027344 231.289062 90.152344 269.453125 81.148438 C 270.179688 80.980469 270.910156 80.921875 271.652344 80.976562 C 272.394531 81.027344 273.109375 81.1875 273.800781 81.457031 C 274.492188 81.730469 275.125 82.097656 275.707031 82.558594 C 276.285156 83.023438 276.78125 83.5625 277.195312 84.175781 C 280.9375 89.734375 285.046875 94.828125 289.523438 99.460938 C 295.164062 105.308594 296.316406 112.695312 299.675781 119.671875 C 301.125 122.664062 301.972656 122.511719 302.210938 119.210938 L 303.03125 108.15625 C 303.203125 105.917969 303.867188 105.753906 305.03125 107.671875 C 313.796875 121.957031 307.105469 131.90625 293.113281 137.265625 C 290.925781 138.105469 290.523438 137.574219 291.90625 135.675781 C 298.433594 126.835938 298.699219 117.535156 292.703125 107.773438 C 292.484375 107.410156 292.21875 107.085938 291.910156 106.800781 C 291.597656 106.515625 291.253906 106.277344 290.875 106.089844 C 290.496094 105.902344 290.097656 105.769531 289.679688 105.695312 C 289.261719 105.617188 288.84375 105.601562 288.421875 105.644531 C 251.589844 109.515625 215.269531 122.648438 191.867188 152.65625 C 184.050781 162.710938 173.925781 170.429688 166.75 180.664062 C 159.589844 190.886719 153.371094 201.855469 148.089844 213.570312 C 145.734375 218.785156 143.015625 223.5625 139.941406 227.90625 C 106.414062 275.082031 72.792969 314.699219 39.082031 346.757812 C 25.496094 359.683594 19.703125 371.867188 19.445312 390.027344 C 19.414062 391.582031 18.832031 391.828125 17.703125 390.769531 C 13.398438 386.742188 14.808594 375.972656 15.449219 370.507812 C 15.859375 366.953125 14.859375 366.5 12.449219 369.148438 C 6.171875 376.023438 8.015625 385.230469 12.039062 392.691406 C 15.832031 399.753906 17.824219 407.457031 18.011719 415.800781 C 18.082031 418.46875 19.3125 419.230469 21.703125 418.085938 C 22.011719 417.929688 22.285156 417.726562 22.523438 417.46875 C 24.453125 415.347656 25.589844 413.058594 25.933594 410.59375 C 26.675781 405.261719 25.855469 399.875 26.804688 394.386719 C 29.777344 376.960938 40.105469 365.070312 57.792969 358.710938 C 71.761719 353.683594 80.527344 370.507812 80.859375 382.023438 C 81.191406 394.820312 76.398438 405.3125 66.429688 412.519531 C 63.097656 414.929688 58.945312 417.777344 57.636719 421.804688 C 56.289062 426.042969 54.605469 430.328125 52.589844 434.652344 C 52.554688 434.738281 52.484375 434.765625 52.382812 434.730469 L 51.589844 434.5 C 50.871094 434.292969 50.632812 433.832031 50.871094 433.113281 C 53.230469 425.898438 54.039062 418.894531 53.304688 412.109375 C 51.921875 399.257812 58.097656 395.128906 66.351562 387.511719 Z M 66.351562 387.511719 " fill-opacity="1" fill-rule="nonzero"/><path fill="#000000" d="M 279.144531 169.046875 C 279.570312 168.242188 279.921875 167.402344 280.195312 166.53125 C 281.75 161.28125 280.109375 157.390625 275.273438 154.863281 C 271.496094 152.878906 267.515625 151.28125 263.328125 150.066406 C 262.03125 149.691406 261.601562 148.859375 262.046875 147.578125 C 263.15625 144.464844 265.226562 142.558594 268.25 141.859375 C 272.828125 140.832031 277.808594 140.320312 283.191406 140.320312 C 284.507812 140.320312 284.695312 140.789062 283.757812 141.730469 L 279.914062 145.550781 C 279.671875 145.789062 279.488281 146.066406 279.359375 146.378906 C 279.230469 146.691406 279.167969 147.015625 279.171875 147.351562 C 279.171875 147.691406 279.242188 148.015625 279.375 148.324219 C 279.507812 148.636719 279.695312 148.90625 279.9375 149.140625 C 291.550781 160.300781 286.5 171.917969 277.632812 182.175781 C 275 185.203125 272.019531 185.433594 268.6875 182.871094 C 258.621094 175.125 247.832031 172.601562 236.3125 175.304688 C 231.519531 176.429688 226.652344 179.125 222.191406 181.355469 C 221.351562 181.785156 220.609375 181.648438 219.960938 180.945312 C 219.773438 180.757812 219.660156 180.527344 219.628906 180.253906 C 219.558594 179.671875 219.738281 179.191406 220.164062 178.816406 C 233.714844 166.726562 248.871094 164.890625 265.636719 173.300781 C 271.53125 176.261719 276.035156 174.839844 279.144531 169.046875 Z M 279.144531 169.046875 " fill-opacity="1" fill-rule="nonzero"/><path fill="#000000" d="M 239.414062 214.59375 C 233.964844 212.371094 228.316406 212.117188 222.472656 213.824219 C 217.433594 215.296875 212.628906 217.21875 208.066406 219.597656 C 207.007812 220.144531 205.90625 220.296875 204.761719 220.058594 C 203.378906 219.75 203.25 219.160156 204.375 218.289062 C 211.09375 213.054688 217.371094 203.394531 223.214844 189.308594 C 224.789062 185.5625 228.25 182.65625 233.597656 180.585938 C 234.554688 180.226562 235.449219 180.347656 236.289062 180.945312 C 239.054688 182.964844 242.011719 183.636719 245.15625 182.972656 C 251.050781 181.742188 256.460938 182.261719 261.382812 184.535156 C 267.402344 187.332031 273.890625 188.589844 280.195312 186.253906 C 282.945312 185.230469 283.601562 186 282.167969 188.5625 C 276.605469 198.488281 263.917969 192.769531 255.972656 189.640625 C 247.078125 186.101562 236.902344 186.511719 229.699219 193.101562 C 226.386719 196.128906 226.804688 196.789062 230.957031 195.078125 C 241.671875 190.613281 252.382812 192.257812 263.019531 195.691406 C 264.644531 196.207031 266.292969 196.367188 267.96875 196.179688 C 270.308594 195.890625 272.632812 196.078125 274.941406 196.746094 C 276.476562 197.1875 276.554688 197.804688 275.171875 198.589844 C 268.386719 202.421875 261.464844 206.105469 254.410156 209.644531 C 248.632812 212.550781 243.636719 214.203125 239.414062 214.59375 Z M 239.414062 214.59375 " fill-opacity="1" fill-rule="nonzero"/><path fill="#000000" d="M 391.84375 261.710938 L 392.511719 261.503906 C 393.023438 261.367188 393.226562 261.035156 393.125 260.503906 C 389.382812 239.746094 383.199219 219.355469 374.570312 199.335938 C 374.378906 198.875 374.378906 198.410156 374.570312 197.949219 C 374.671875 197.746094 374.867188 197.609375 375.15625 197.539062 C 375.449219 197.488281 375.679688 197.582031 375.851562 197.820312 C 384.703125 210.765625 391.476562 224.972656 396.175781 240.449219 C 403.660156 265.070312 408.632812 287.050781 408.144531 312.339844 C 407.632812 338.089844 394.972656 361.941406 369.519531 369.300781 C 367.074219 370.019531 367.050781 370.808594 369.441406 371.660156 C 372.722656 372.859375 376.167969 373.789062 379.773438 374.457031 C 393.355469 376.996094 400.765625 408.953125 401.789062 420.777344 C 404.4375 451.179688 404.753906 480.3125 402.738281 508.183594 C 402.601562 510.03125 402.148438 511.9375 401.378906 513.902344 C 400.746094 515.5625 400.414062 515.503906 400.378906 513.722656 C 400.226562 504.875 399.945312 495.589844 398.636719 486.820312 C 395.5625 466.183594 391.46875 442.425781 386.359375 415.546875 C 384.1875 404.207031 380.234375 394.609375 374.492188 386.742188 C 365.445312 374.378906 351.117188 370.328125 337.683594 377.535156 C 314.566406 389.921875 289.960938 391.207031 266.867188 377.765625 C 263.910156 376.054688 260.953125 375.988281 257.996094 377.5625 C 222.917969 396.179688 188.878906 414.238281 155.882812 431.730469 C 147.527344 436.140625 142.179688 441.414062 139.835938 447.554688 C 134.507812 461.480469 127.6875 471.664062 112.539062 476.355469 C 103.363281 479.195312 94.027344 481.808594 84.523438 484.203125 C 79.960938 485.359375 75.167969 484.074219 72.273438 480.28125 C 67.121094 473.535156 60.433594 477.40625 53.511719 476.433594 C 45.546875 475.320312 41.875 470.609375 42.488281 462.300781 C 42.507812 461.996094 42.585938 461.703125 42.71875 461.425781 C 42.851562 461.148438 43.027344 460.902344 43.253906 460.695312 C 43.480469 460.484375 43.738281 460.324219 44.027344 460.210938 C 44.316406 460.097656 44.613281 460.042969 44.925781 460.042969 C 70.453125 460.199219 92.238281 450.632812 105.773438 427.703125 C 107.414062 424.933594 106.816406 424.308594 103.980469 425.828125 L 96.75 429.726562 C 93.589844 431.421875 93.101562 430.847656 95.289062 428.011719 C 98.808594 423.425781 103.457031 420.546875 109.234375 419.367188 C 119.675781 417.210938 129.671875 415.398438 139.222656 413.929688 C 140.949219 413.65625 141.238281 414.167969 140.09375 415.46875 C 130.730469 426.222656 121.535156 436.695312 112.515625 446.886719 C 109.507812 450.273438 102.9375 453.417969 92.804688 456.324219 C 83.746094 458.90625 74.734375 461.285156 65.761719 463.453125 C 61.507812 464.480469 61.535156 465.386719 65.839844 466.171875 C 74.425781 467.738281 88.035156 463.660156 96.675781 461.25 C 109.269531 457.726562 119.8125 450.597656 128.304688 439.859375 C 140.121094 424.90625 155.960938 411.722656 169.824219 399.054688 C 182.914062 387.085938 200.550781 375.5 222.730469 364.300781 C 222.882812 364.214844 222.925781 364.085938 222.855469 363.917969 L 222.574219 363.273438 C 222.511719 363.136719 222.425781 363.015625 222.316406 362.90625 C 222.207031 362.800781 222.082031 362.71875 221.941406 362.664062 C 221.800781 362.605469 221.65625 362.578125 221.503906 362.578125 C 221.351562 362.574219 221.203125 362.601562 221.0625 362.660156 C 197.175781 372.183594 172.902344 381.578125 148.246094 390.847656 C 134.710938 395.925781 122.132812 401.96875 110.515625 408.980469 C 108.449219 410.226562 107.945312 409.773438 109.003906 407.621094 C 109.429688 406.765625 109.925781 405.980469 110.488281 405.261719 C 126.894531 384.332031 149.9375 371.507812 174.132812 361.480469 C 194.097656 353.195312 217.191406 342.628906 233.851562 333.523438 C 237.015625 331.796875 239.433594 328.957031 241.105469 325.007812 C 244.472656 317.125 247.789062 309.558594 251.050781 302.308594 C 253.359375 297.179688 254.496094 297.421875 254.460938 303.027344 C 254.460938 306.441406 252.667969 311.542969 252.5625 315.699219 C 251.382812 359.222656 294.957031 378.097656 330.535156 357.015625 C 375.261719 330.523438 390.484375 269.300781 373.570312 222.1875 C 373.449219 221.84375 373.558594 221.613281 373.902344 221.496094 L 374.621094 221.210938 C 375.269531 220.972656 375.722656 221.179688 375.976562 221.828125 L 391.742188 261.503906 C 391.792969 261.640625 391.828125 261.710938 391.84375 261.710938 Z M 391.84375 261.710938 " fill-opacity="1" fill-rule="nonzero"/><path fill="#000000" d="M 773.058594 401.824219 L 773.058594 401.847656 C 772.921875 402.175781 772.972656 402.472656 773.210938 402.746094 C 804.277344 437.371094 825.464844 468.515625 836.777344 496.179688 C 844.261719 514.417969 848.851562 538.78125 845.234375 558.710938 C 844.433594 563.140625 843.878906 563.113281 843.570312 558.632812 C 839.75 504.183594 812.453125 464.582031 778.234375 423.675781 C 771.605469 415.757812 763.949219 407.78125 755.269531 399.746094 C 743.136719 388.476562 731.679688 376.824219 720.898438 364.789062 C 716.164062 359.488281 710.535156 354.238281 704.007812 349.039062 C 697.976562 344.234375 691.796875 338.003906 685.476562 330.34375 C 669.175781 310.628906 653.316406 291.480469 637.90625 272.894531 C 637.847656 272.816406 637.777344 272.761719 637.691406 272.726562 C 637.605469 272.6875 637.515625 272.671875 637.421875 272.679688 C 637.328125 272.6875 637.238281 272.71875 637.15625 272.769531 C 637.074219 272.820312 637.007812 272.886719 636.957031 272.96875 L 636.570312 273.609375 C 636.367188 273.960938 636.277344 274.335938 636.300781 274.742188 C 636.324219 275.144531 636.457031 275.511719 636.699219 275.84375 C 654.761719 300.085938 671.636719 320.460938 687.320312 336.960938 C 697.804688 348.015625 709.058594 357.582031 717.644531 370.585938 C 723.257812 379.074219 729.84375 386.484375 735.019531 395.257812 C 750.324219 421.109375 765.523438 446.757812 776.671875 474.738281 C 785.71875 497.363281 803.328125 524.726562 824.707031 537.578125 C 827.386719 539.203125 827.164062 540.054688 824.039062 540.140625 C 823.234375 540.175781 822.433594 540.097656 821.628906 539.910156 C 768.777344 527.394531 736.480469 475.792969 708.519531 434.089844 C 680.632812 392.539062 658.410156 355.144531 635.238281 311.339844 C 627.71875 297.128906 620.21875 284.757812 612.734375 274.226562 C 594.433594 248.476562 574.441406 222.496094 548.988281 203.667969 C 546.339844 201.703125 546.570312 201.265625 549.679688 202.363281 C 594.511719 217.980469 640.390625 227.265625 687.246094 230.292969 C 701.375 231.199219 714.882812 232.378906 727.765625 233.832031 C 757.117188 237.140625 795.792969 247.550781 813.863281 269.710938 C 816.851562 273.371094 816.316406 273.996094 812.25 271.585938 C 781.207031 253.066406 744.992188 241.78125 710.519531 240.5 C 710.125 240.484375 709.902344 240.671875 709.851562 241.0625 L 709.800781 241.757812 C 709.78125 241.859375 709.824219 241.917969 709.929688 241.9375 C 730.722656 244.960938 750.648438 250.914062 769.699219 259.785156 C 788.53125 268.523438 806.472656 278.363281 823.527344 289.308594 C 826.34375 291.101562 829.644531 292.460938 833.417969 293.386719 C 840.75 295.179688 848.140625 296.914062 855.589844 298.589844 C 855.710938 298.625 855.777344 298.703125 855.796875 298.824219 C 855.828125 299.0625 855.796875 299.285156 855.691406 299.488281 C 855.609375 299.710938 855.445312 299.8125 855.207031 299.796875 C 831.113281 299.105469 808.8125 294.050781 785.824219 286.742188 C 781.378906 285.339844 780.917969 286.160156 784.4375 289.203125 C 787.480469 291.835938 790.914062 293.941406 794.742188 295.515625 C 807.632812 300.875 821.550781 303.667969 834.703125 308.59375 C 844.917969 312.441406 855.171875 315.953125 865.457031 319.136719 C 865.601562 319.179688 865.714844 319.265625 865.800781 319.390625 C 865.886719 319.515625 865.925781 319.652344 865.921875 319.800781 L 865.894531 320.46875 C 865.886719 320.652344 865.835938 320.820312 865.75 320.980469 C 865.664062 321.140625 865.546875 321.273438 865.402344 321.382812 C 865.253906 321.488281 865.089844 321.558594 864.914062 321.589844 C 864.734375 321.625 864.558594 321.617188 864.382812 321.570312 C 850.4375 317.777344 836.75 313.570312 822.21875 310.3125 C 796.613281 304.542969 770.007812 299.746094 745.453125 290.820312 C 729.714844 285.109375 714.097656 278.347656 698.597656 270.53125 C 697.148438 269.816406 695.609375 269.300781 693.984375 268.992188 C 692.039062 268.636719 691.796875 269.113281 693.269531 270.429688 C 701.128906 277.507812 710.261719 282.972656 720.667969 286.820312 C 753.375 298.898438 785.105469 307.492188 816.632812 324.546875 C 823.261719 328.121094 829.171875 332.789062 834.367188 338.550781 C 869.996094 377.996094 892.601562 426.035156 886.527344 479.101562 C 886.492188 479.269531 886.417969 479.398438 886.296875 479.484375 L 885.503906 479.972656 C 885.316406 480.09375 885.21875 480.039062 885.21875 479.816406 C 884.757812 460.292969 880.425781 441.585938 872.226562 423.699219 C 869.421875 417.597656 865.84375 412.347656 861.484375 407.953125 C 858.648438 405.0625 858.273438 405.355469 860.359375 408.824219 C 877.582031 437.449219 884.167969 466.738281 875.660156 499.542969 C 874.363281 504.550781 873.738281 504.464844 873.789062 499.285156 C 873.96875 480.871094 872.199219 461.96875 866.792969 444.707031 C 863.253906 433.421875 856.957031 423.511719 847.902344 414.980469 C 838.085938 405.746094 829.730469 397.386719 817.863281 390.027344 C 792.28125 374.175781 763.753906 356.863281 734.894531 345.398438 C 734.585938 345.261719 734.371094 345.347656 734.253906 345.65625 L 734.226562 345.679688 C 734.125 345.921875 734.183594 346.101562 734.40625 346.21875 C 747.546875 353.058594 760.53125 360.683594 773.367188 369.097656 C 792.792969 381.84375 810.019531 400.59375 824.808594 418.03125 C 834.480469 429.402344 843.851562 445.023438 852.925781 464.890625 C 871.765625 506.210938 868.074219 549.65625 850.054688 589.71875 C 848.5 593.15625 848.03125 593.011719 848.644531 589.28125 C 855.976562 545.1875 848.867188 503.472656 827.320312 464.148438 C 814.554688 440.894531 796.578125 420.085938 773.390625 401.722656 C 773.238281 401.601562 773.125 401.636719 773.058594 401.824219 Z M 773.058594 401.824219 " fill-opacity="1" fill-rule="nonzero"/><path fill="#000000" d="M 239.414062 214.59375 C 240.21875 216.425781 241.917969 217.246094 244.515625 217.058594 C 252.699219 216.460938 259.59375 213.5 265.199219 208.183594 C 266.636719 206.832031 267.0625 207.105469 266.480469 209.003906 C 262.355469 222.625 246.875 218.929688 236.46875 216.953125 C 235.21875 216.714844 235.1875 216.355469 236.363281 215.878906 Z M 239.414062 214.59375 " fill-opacity="1" fill-rule="nonzero"/><path fill="#000000" d="M 131.097656 354.8125 C 131.226562 354.9375 131.378906 355.015625 131.554688 355.039062 C 131.730469 355.0625 131.894531 355.027344 132.046875 354.941406 L 183 326.675781 C 183.40625 326.449219 183.839844 326.34375 184.304688 326.367188 C 184.769531 326.390625 185.1875 326.535156 185.5625 326.804688 L 186.359375 327.34375 C 186.464844 327.417969 186.546875 327.511719 186.605469 327.625 C 186.664062 327.738281 186.691406 327.863281 186.6875 327.992188 C 186.6875 328.121094 186.652344 328.242188 186.589844 328.351562 C 186.527344 328.464844 186.441406 328.554688 186.332031 328.625 C 165.246094 342.441406 144.355469 356.214844 123.664062 369.945312 C 120.230469 372.234375 116.574219 374.277344 112.695312 376.074219 C 103.929688 380.195312 99.109375 387.683594 98.238281 398.539062 C 96.785156 416.5625 89.292969 432.171875 75.757812 445.375 C 71.027344 449.972656 65.378906 451.964844 58.816406 451.347656 C 55.859375 451.074219 52.914062 450.792969 49.972656 450.503906 C 43.566406 449.90625 42.910156 447.640625 48 443.707031 C 69.429688 427.136719 86.960938 404.722656 87.652344 376.867188 C 87.773438 371.808594 87.6875 366.59375 87.394531 361.222656 C 87.34375 360.417969 87.695312 359.898438 88.445312 359.660156 C 88.703125 359.574219 88.960938 359.554688 89.214844 359.609375 C 89.710938 359.710938 90.035156 360 90.191406 360.480469 L 96.136719 380.613281 C 96.160156 380.703125 96.195312 380.789062 96.246094 380.871094 C 96.292969 380.949219 96.347656 381.023438 96.417969 381.089844 C 96.484375 381.15625 96.558594 381.210938 96.640625 381.257812 C 96.722656 381.304688 96.808594 381.339844 96.902344 381.363281 C 96.992188 381.386719 97.085938 381.394531 97.183594 381.394531 C 97.277344 381.394531 97.371094 381.382812 97.464844 381.355469 C 97.558594 381.332031 97.644531 381.292969 97.726562 381.246094 C 97.8125 381.199219 97.886719 381.140625 97.957031 381.074219 C 108.515625 370.4375 118.375 359.078125 127.535156 346.988281 C 143.492188 325.855469 160.179688 303.394531 177.59375 279.613281 C 184.460938 270.226562 191.679688 261.136719 199.25 252.347656 C 199.507812 252.058594 199.789062 252.023438 200.097656 252.246094 L 200.121094 252.273438 C 200.378906 252.460938 200.429688 252.691406 200.277344 252.964844 C 192.6875 265.839844 185.128906 278.867188 177.59375 292.050781 C 177.546875 292.132812 177.515625 292.214844 177.492188 292.304688 C 177.46875 292.394531 177.457031 292.484375 177.457031 292.578125 C 177.460938 292.667969 177.472656 292.757812 177.496094 292.847656 C 177.523438 292.9375 177.558594 293.019531 177.605469 293.097656 C 177.652344 293.179688 177.707031 293.25 177.773438 293.3125 C 177.839844 293.378906 177.910156 293.433594 177.992188 293.480469 C 178.070312 293.523438 178.15625 293.558594 178.242188 293.582031 C 178.332031 293.605469 178.421875 293.617188 178.515625 293.617188 C 222.550781 292.898438 251.71875 269.300781 270.890625 231.085938 C 270.976562 230.898438 271.0625 230.839844 271.144531 230.90625 L 271.710938 231.34375 C 271.984375 231.546875 272.0625 231.804688 271.941406 232.113281 C 262.421875 258.734375 244.558594 278.6875 218.347656 291.972656 C 201.394531 300.574219 183.359375 308.910156 164.238281 316.980469 C 157.652344 319.777344 151.910156 324.648438 147.886719 330.652344 C 142.8125 338.175781 137.1875 345.878906 131.019531 353.761719 C 130.730469 354.117188 130.753906 354.46875 131.097656 354.8125 Z M 131.097656 354.8125 " fill-opacity="1" fill-rule="nonzero"/><path fill="#000000" d="M 375.390625 716.417969 C 373.75 727.925781 372.550781 741.894531 371.800781 758.328125 C 371.792969 758.542969 371.71875 758.726562 371.570312 758.882812 C 371.425781 759.039062 371.246094 759.128906 371.03125 759.148438 L 370.3125 759.222656 C 370.105469 759.25 369.902344 759.234375 369.703125 759.171875 C 369.503906 759.113281 369.324219 759.019531 369.164062 758.882812 C 369.003906 758.75 368.875 758.589844 368.78125 758.40625 C 368.6875 758.21875 368.632812 758.023438 368.621094 757.8125 C 368.058594 748.085938 367.800781 737.980469 367.851562 727.5 C 368.179688 663.789062 386.667969 606.296875 423.320312 555.015625 C 442.59375 528.035156 461.578125 501.628906 480.273438 475.792969 C 503.101562 444.195312 520.640625 410.117188 532.894531 373.558594 C 548.167969 327.984375 546.425781 282.535156 529.277344 236.804688 C 529.21875 236.636719 529.226562 236.46875 529.300781 236.304688 C 529.375 236.140625 529.496094 236.027344 529.664062 235.960938 L 530.328125 235.679688 C 530.875 235.472656 531.261719 235.644531 531.484375 236.191406 C 538.898438 254.539062 545.1875 271.738281 550.347656 287.792969 C 574.058594 361.660156 542.761719 432.550781 498.726562 491.179688 C 477.296875 519.71875 457.921875 546.09375 440.59375 570.304688 C 409.582031 613.648438 382.589844 665.945312 375.390625 716.417969 Z M 375.390625 716.417969 " fill-opacity="1" fill-rule="nonzero"/><path fill="#000000" d="M 599.84375 487.28125 C 595.535156 496.019531 590.367188 504.183594 584.335938 511.773438 C 584.265625 511.859375 584.179688 511.878906 584.078125 511.828125 L 583.539062 511.441406 C 583.25 511.238281 583.199219 510.980469 583.386719 510.671875 C 602.574219 477.707031 612.632812 443.363281 613.554688 407.644531 C 614.914062 353.734375 598.535156 294.820312 572.1875 245.9375 C 572.101562 245.78125 572.132812 245.65625 572.289062 245.550781 L 572.851562 245.246094 C 573.3125 244.972656 573.6875 245.066406 573.980469 245.527344 C 584.863281 262.898438 595.605469 284.785156 606.199219 311.183594 C 630.324219 371.285156 628.207031 429.984375 599.84375 487.28125 Z M 599.84375 487.28125 " fill-opacity="1" fill-rule="nonzero"/><path fill="#000000" d="M 331.867188 670.507812 C 311.53125 709.957031 304.066406 752.027344 309.464844 796.722656 C 309.515625 797.199219 309.320312 797.523438 308.875 797.695312 L 308.105469 798.03125 C 307.867188 798.113281 307.714844 798.039062 307.644531 797.796875 C 298.546875 765.585938 294.394531 731.039062 299.851562 698.234375 C 308.976562 643.144531 347.296875 601.671875 382.640625 561.917969 C 396.074219 546.800781 403.769531 529.59375 405.734375 510.289062 C 408.417969 483.886719 409.332031 457.617188 408.480469 431.472656 C 407.785156 410.441406 401.890625 388.382812 388.742188 371.507812 C 387.992188 370.550781 388.101562 369.710938 389.074219 368.996094 C 391.519531 367.164062 393.851562 365.308594 396.074219 363.429688 C 424.011719 339.652344 421.730469 305.027344 415.628906 272.40625 C 415.542969 272.011719 415.648438 271.671875 415.9375 271.378906 C 416.140625 271.15625 416.390625 271.046875 416.679688 271.046875 C 417.109375 271.066406 417.410156 271.261719 417.578125 271.636719 C 425.128906 288.035156 429.847656 302.558594 431.726562 315.210938 C 433.484375 327.042969 434.085938 340.960938 433.519531 356.964844 C 432.121094 395.882812 428.351562 432.816406 422.21875 467.765625 C 418.628906 488.316406 413.613281 508.476562 407.171875 528.242188 C 407.070312 528.566406 407.171875 528.789062 407.480469 528.90625 L 408.144531 529.164062 C 408.230469 529.199219 408.289062 529.171875 408.324219 529.085938 C 412.714844 519.90625 416.902344 511.066406 420.882812 502.566406 C 447.558594 445.734375 458.46875 386.136719 453.617188 323.777344 C 453.582031 323.453125 453.726562 323.273438 454.050781 323.238281 L 454.820312 323.136719 C 454.835938 323.136719 454.847656 323.144531 454.847656 323.160156 C 459.816406 351.851562 461.730469 381.757812 460.585938 412.878906 C 458.894531 458.25 443.953125 499.132812 420.449219 538.421875 C 408.863281 557.8125 397.125 576.773438 385.230469 595.308594 C 361.890625 631.710938 347.816406 673.765625 343.015625 721.472656 C 341.085938 740.671875 340.964844 758.277344 342.65625 774.28125 C 342.742188 775.082031 342.375 775.519531 341.554688 775.585938 L 340.890625 775.613281 C 340.460938 775.648438 340.238281 775.449219 340.222656 775.023438 C 340.070312 765.105469 339.753906 755.453125 339.273438 746.066406 C 337.667969 714.402344 340.019531 683.195312 346.324219 652.453125 C 346.460938 651.71875 346.160156 651.339844 345.425781 651.324219 L 344.632812 651.324219 C 344.460938 651.308594 344.347656 651.382812 344.296875 651.554688 C 338.402344 671.148438 333.269531 689.460938 328.894531 706.492188 C 326.363281 716.394531 324.929688 727.394531 324.585938 739.5 C 324.125 755.402344 324.1875 771.261719 324.765625 787.078125 C 324.765625 787.179688 324.714844 787.230469 324.613281 787.230469 L 323.894531 787.335938 C 323.605469 787.351562 323.433594 787.222656 323.382812 786.949219 C 317.417969 756.71875 317.878906 726.652344 324.765625 696.746094 C 326.792969 688 330.199219 679.511719 332.507812 670.765625 C 333.039062 668.730469 332.824219 668.644531 331.867188 670.507812 Z M 331.867188 670.507812 " fill-opacity="1" fill-rule="nonzero"/><path fill="#000000" d="M 109.066406 313.953125 L 110.324219 315.089844 C 110.460938 315.210938 110.53125 315.367188 110.542969 315.550781 C 110.550781 315.734375 110.496094 315.894531 110.371094 316.03125 L 81.019531 348.535156 C 80.898438 348.671875 80.742188 348.742188 80.558594 348.753906 C 80.375 348.761719 80.214844 348.703125 80.078125 348.582031 L 78.824219 347.445312 C 78.6875 347.324219 78.613281 347.167969 78.605469 346.984375 C 78.597656 346.800781 78.652344 346.640625 78.777344 346.503906 L 108.125 314 C 108.25 313.863281 108.402344 313.792969 108.585938 313.78125 C 108.769531 313.773438 108.929688 313.828125 109.066406 313.953125 Z M 109.066406 313.953125 " fill-opacity="1" fill-rule="nonzero"/><path fill="#000000" d="M 626.320312 340.191406 C 645.59375 391.921875 639.160156 455.710938 609.300781 501.671875 C 599.765625 516.359375 587.386719 529.164062 572.160156 540.089844 C 571.734375 540.414062 571.347656 540.363281 571.007812 539.9375 L 570.621094 539.421875 C 570.519531 539.304688 570.527344 539.203125 570.648438 539.117188 C 596.996094 516.957031 614.441406 488.734375 622.988281 454.453125 C 632.589844 415.792969 633.246094 378.003906 624.960938 341.089844 C 624.917969 340.910156 624.945312 340.742188 625.039062 340.582031 C 625.132812 340.421875 625.269531 340.320312 625.449219 340.269531 L 626.0625 340.0625 C 626.199219 340.03125 626.285156 340.074219 626.320312 340.191406 Z M 626.320312 340.191406 " fill-opacity="1" fill-rule="nonzero"/><path fill="#000000" d="M 688.089844 465.6875 C 691.441406 506.054688 681.058594 542.945312 656.949219 576.355469 C 656.726562 576.648438 656.453125 576.699219 656.128906 576.511719 C 655.890625 576.375 655.820312 576.167969 655.921875 575.894531 C 683.476562 502.566406 680.042969 423.878906 649.667969 352.167969 C 649.363281 351.453125 649.566406 350.929688 650.285156 350.605469 L 650.976562 350.296875 C 651.199219 350.210938 651.359375 350.273438 651.464844 350.476562 C 662.332031 373.492188 672.6875 395.617188 682.527344 416.851562 C 697.445312 449.03125 709.089844 483.742188 717.464844 520.984375 C 721.460938 538.730469 725.582031 556.257812 729.816406 573.5625 C 731.183594 579.101562 730.238281 579.527344 726.972656 574.84375 C 719.898438 564.738281 715.722656 554.964844 711.875 542.21875 C 704.785156 518.554688 697.871094 494.402344 691.140625 469.765625 C 690.714844 468.15625 689.996094 466.6875 688.988281 465.351562 C 688.304688 464.429688 688.003906 464.539062 688.089844 465.6875 Z M 688.089844 465.6875 " fill-opacity="1" fill-rule="nonzero"/><path fill="#000000" d="M 600.535156 406.800781 C 587.957031 445.527344 567.296875 480.5625 538.558594 511.902344 C 519.847656 532.300781 500.160156 553.015625 479.503906 574.046875 C 443.902344 610.339844 409.761719 652.890625 392.460938 700.644531 C 388.035156 712.851562 383.53125 726.242188 378.953125 740.808594 C 378.914062 740.914062 378.839844 740.984375 378.730469 741.019531 C 378.625 741.058594 378.515625 741.046875 378.414062 740.988281 L 377.796875 740.605469 C 377.609375 740.5 377.535156 740.347656 377.566406 740.140625 C 382.367188 708.734375 389.441406 680.957031 398.789062 656.8125 C 406.035156 638.160156 415.355469 620.375 426.753906 603.464844 C 434.5625 591.890625 445.132812 579.304688 458.460938 565.710938 C 481.785156 541.886719 505.441406 517.160156 530.894531 493.308594 C 561.242188 464.890625 589.5625 432.421875 601.96875 392.847656 C 602.015625 392.6875 602.09375 392.542969 602.195312 392.414062 C 602.296875 392.28125 602.421875 392.175781 602.566406 392.09375 C 602.714844 392.007812 602.867188 391.957031 603.035156 391.929688 C 603.203125 391.90625 603.367188 391.910156 603.53125 391.949219 L 604.457031 392.15625 C 604.796875 392.238281 604.917969 392.453125 604.8125 392.796875 C 603.414062 397.652344 601.988281 402.320312 600.535156 406.800781 Z M 600.535156 406.800781 " fill-opacity="1" fill-rule="nonzero"/><path fill="#000000" d="M 704.5625 456.394531 L 706.132812 455.929688 C 706.308594 455.875 706.480469 455.894531 706.640625 455.980469 C 706.800781 456.070312 706.910156 456.203125 706.960938 456.378906 L 729.789062 533.496094 C 729.84375 533.675781 729.824219 533.84375 729.738281 534.003906 C 729.648438 534.167969 729.519531 534.273438 729.339844 534.328125 L 727.769531 534.792969 C 727.59375 534.84375 727.421875 534.828125 727.261719 534.738281 C 727.097656 534.652344 726.992188 534.519531 726.941406 534.34375 L 704.109375 457.222656 C 704.058594 457.046875 704.078125 456.878906 704.164062 456.714844 C 704.253906 456.554688 704.382812 456.445312 704.5625 456.394531 Z M 704.5625 456.394531 " fill-opacity="1" fill-rule="nonzero"/><path fill="#000000" d="M 735.585938 492.050781 C 752.859375 522.136719 778.542969 539.910156 811.53125 541.679688 C 811.691406 541.6875 811.84375 541.730469 811.984375 541.808594 C 812.125 541.890625 812.242188 541.996094 812.332031 542.128906 C 812.421875 542.261719 812.480469 542.410156 812.5 542.570312 C 812.523438 542.730469 812.507812 542.886719 812.453125 543.039062 C 812.128906 543.945312 811.488281 544.46875 810.53125 544.605469 C 799.9375 546.175781 789.847656 545.554688 780.261719 542.730469 C 759.320312 536.601562 740.222656 511.007812 732.125 491.976562 C 731.730469 491.050781 732.03125 490.683594 733.023438 490.871094 L 734.304688 491.128906 C 734.867188 491.230469 735.292969 491.539062 735.585938 492.050781 Z M 735.585938 492.050781 " fill-opacity="1" fill-rule="nonzero"/><path fill="#000000" d="M 635.75 674.664062 L 635.828125 673.921875 C 635.863281 673.578125 635.707031 673.414062 635.367188 673.433594 C 601.003906 674.527344 575.382812 676.175781 558.5 678.382812 C 523.742188 682.949219 492.277344 696.875 464.097656 720.164062 C 431.417969 747.171875 401.582031 783.898438 383.949219 823.90625 C 383.335938 825.277344 382.632812 826.558594 381.847656 827.753906 C 379.984375 830.578125 379.445312 830.335938 380.234375 827.035156 C 393.613281 771.457031 426.601562 723.753906 467.558594 685.949219 C 503.390625 652.890625 552.707031 640.550781 600.765625 641.605469 C 623.371094 642.089844 645.851562 643.679688 667.738281 641.785156 C 725.023438 636.832031 774.519531 612.3125 818.914062 576.304688 C 822.65625 573.246094 823.277344 573.78125 820.785156 577.921875 C 777.929688 648.347656 703.265625 679.84375 624.0625 689.230469 C 561.496094 696.644531 505.441406 715.675781 456.664062 756.992188 C 429.90625 779.632812 407.632812 804.800781 389.84375 832.5 C 389.640625 832.824219 389.347656 832.960938 388.972656 832.910156 L 387.871094 832.808594 C 387.546875 832.773438 387.445312 832.601562 387.5625 832.292969 C 407.503906 787.949219 436.007812 755.53125 475.222656 725.933594 C 496.648438 709.757812 518.136719 698.199219 539.683594 691.257812 C 567.929688 682.144531 599.738281 676.816406 635.109375 675.28125 C 635.503906 675.261719 635.71875 675.058594 635.75 674.664062 Z M 635.75 674.664062 " fill-opacity="1" fill-rule="nonzero"/><path fill="#000000" d="M 562.90625 626.652344 C 523.347656 630.292969 489.046875 646.417969 459.996094 675.023438 C 459.820312 675.203125 459.617188 675.34375 459.386719 675.449219 C 459.15625 675.554688 458.917969 675.617188 458.664062 675.636719 C 458.414062 675.65625 458.164062 675.628906 457.921875 675.558594 C 457.679688 675.488281 457.457031 675.378906 457.253906 675.226562 L 456.71875 674.84375 C 456.59375 674.753906 456.496094 674.644531 456.421875 674.511719 C 456.347656 674.378906 456.304688 674.238281 456.296875 674.089844 C 456.285156 673.9375 456.308594 673.796875 456.363281 673.65625 C 456.421875 673.519531 456.503906 673.402344 456.613281 673.304688 C 490.34375 641.246094 529.382812 622.164062 576.003906 619.496094 C 601.753906 618.007812 627.890625 616.101562 654.410156 613.777344 C 654.683594 613.757812 654.839844 613.886719 654.871094 614.160156 L 654.921875 614.800781 C 655.007812 615.484375 654.710938 615.871094 654.027344 615.957031 C 619.046875 620.726562 588.675781 624.292969 562.90625 626.652344 Z M 562.90625 626.652344 " fill-opacity="1" fill-rule="nonzero"/></svg>