<svg xmlns="http://www.w3.org/2000/svg" xmlns:xlink="http://www.w3.org/1999/xlink" width="1080" zoomAndPan="magnify" viewBox="0 0 810 809.999993" height="1080" preserveAspectRatio="xMidYMid meet" version="1.0"><defs><clipPath id="5e709dafc4"><path d="M 0 141.242188 L 810 141.242188 L 810 668.492188 L 0 668.492188 Z M 0 141.242188 " clip-rule="nonzero"/></clipPath></defs><path fill="#ffffff" d="M 329.339844 666.609375 C 328.644531 666.609375 328 666.265625 327.625 665.683594 C 327.246094 665.097656 327.183594 664.371094 327.464844 663.730469 L 333.007812 651.253906 L 341.910156 633.433594 C 342.085938 633.082031 342.355469 632.796875 342.691406 632.597656 L 353.261719 626.253906 L 359.65625 613.484375 C 359.839844 613.101562 360.148438 612.789062 360.523438 612.589844 L 394.464844 594.636719 L 413.714844 575.003906 L 418.386719 567.351562 L 380.761719 559.585938 L 375.816406 577.59375 C 375.707031 578 375.472656 578.359375 375.148438 578.625 C 370.761719 582.242188 364.433594 584.082031 356.332031 584.082031 C 342.90625 584.082031 329.214844 579.113281 328.628906 578.902344 C 328.085938 578.703125 327.648438 578.273438 327.441406 577.730469 C 327.222656 577.1875 327.253906 576.578125 327.519531 576.050781 L 337.476562 556.523438 C 337.683594 556.109375 338.035156 555.773438 338.464844 555.582031 L 350.1875 550.40625 L 356.441406 537.683594 C 356.675781 537.222656 357.074219 536.863281 357.5625 536.679688 L 374.277344 530.4375 C 374.507812 530.351562 374.746094 530.308594 374.996094 530.308594 L 438.113281 535.113281 L 441.476562 529.589844 L 434.558594 516.246094 L 421.832031 497.863281 L 416.535156 489.929688 L 359.878906 499.886719 L 359.527344 499.910156 L 310.429688 496.914062 C 310.132812 496.898438 309.828125 496.808594 309.566406 496.664062 L 278.191406 479.328125 L 253.636719 496.066406 C 253.292969 496.296875 252.894531 496.425781 252.488281 496.425781 L 229.628906 496.425781 L 213.664062 500.949219 L 200.632812 507.460938 L 195.351562 523.328125 L 220.070312 575.011719 L 237.480469 576.101562 C 237.929688 576.132812 238.351562 576.300781 238.6875 576.59375 L 245.542969 582.46875 L 255.859375 574.222656 C 256.226562 573.925781 256.679688 573.773438 257.136719 573.773438 C 257.417969 573.773438 257.703125 573.832031 257.96875 573.949219 L 268.433594 578.609375 C 268.890625 578.808594 269.257812 579.167969 269.464844 579.632812 L 281.097656 605.222656 C 281.347656 605.757812 281.347656 606.367188 281.113281 606.902344 L 271.796875 627.84375 C 271.460938 628.601562 270.71875 629.054688 269.929688 629.054688 C 269.679688 629.054688 269.417969 629.007812 269.167969 628.914062 L 240.453125 617.421875 L 223.394531 617.421875 C 223.125 617.421875 222.84375 617.367188 222.597656 617.253906 L 206.304688 610.273438 C 205.890625 610.097656 205.546875 609.792969 205.324219 609.402344 L 175.128906 555.972656 L 157.742188 531.628906 C 157.511719 531.308594 157.375 530.933594 157.359375 530.542969 L 157.144531 526.050781 L 140.253906 531.84375 L 131.25 562.132812 L 131.089844 562.515625 L 124.296875 575.132812 L 128.460938 575.820312 C 129.117188 575.933594 129.675781 576.355469 129.960938 576.945312 L 137.753906 592.980469 C 138.066406 593.621094 138.015625 594.378906 137.632812 594.980469 L 126.695312 611.988281 C 126.511719 612.261719 126.28125 612.492188 125.992188 612.652344 L 94.113281 631.109375 C 93.800781 631.292969 93.449219 631.382812 93.089844 631.382812 C 92.792969 631.382812 92.5 631.316406 92.21875 631.191406 C 91.613281 630.902344 91.179688 630.34375 91.078125 629.679688 L 85.394531 595.628906 C 85.316406 595.203125 85.386719 594.765625 85.578125 594.378906 L 94.664062 576.195312 L 94.664062 562.71875 C 94.664062 562.285156 94.800781 561.863281 95.054688 561.519531 L 109.964844 540.878906 L 116.84375 515.632812 L 116.964844 515.3125 L 133.253906 480.40625 L 133.476562 480.046875 L 147.429688 461.429688 C 147.582031 461.230469 147.773438 461.054688 147.980469 460.925781 L 171.445312 446.152344 L 165.390625 434.558594 L 165.230469 434.167969 L 157.113281 405.507812 C 157.039062 405.261719 157.015625 404.996094 157.046875 404.742188 L 160.050781 376.042969 L 164.296875 353.664062 L 154.09375 313.984375 L 132.71875 294.753906 L 118.960938 308.503906 C 118.785156 308.6875 118.5625 308.832031 118.328125 308.9375 L 91.578125 320.570312 L 91.203125 320.6875 L 71.023438 325.171875 L 59.851562 340.824219 C 59.652344 341.09375 59.398438 341.320312 59.101562 341.460938 L 47.46875 347.277344 C 47.1875 347.421875 46.867188 347.503906 46.558594 347.503906 L 29.890625 347.503906 C 29.425781 347.503906 28.972656 347.34375 28.605469 347.046875 L 12.6875 334.246094 C 12.296875 333.929688 12.03125 333.472656 11.953125 332.976562 L 8.734375 312.59375 L 4.667969 312.59375 C 3.867188 312.59375 3.140625 312.132812 2.8125 311.40625 C 2.476562 310.6875 2.589844 309.832031 3.109375 309.222656 L 9.996094 301.1875 L 47.011719 242.1875 L 52.757812 224.972656 C 52.867188 224.621094 53.085938 224.300781 53.363281 224.058594 L 69.320312 210.382812 L 83.101562 181.683594 L 92.667969 162.347656 L 92.785156 162.140625 L 104.476562 144.21875 C 104.859375 143.632812 105.507812 143.289062 106.183594 143.289062 C 106.386719 143.289062 106.578125 143.324219 106.769531 143.378906 C 107.640625 143.632812 108.230469 144.433594 108.230469 145.335938 L 108.230469 161.707031 L 121.140625 156.601562 C 121.390625 156.507812 121.644531 156.457031 121.894531 156.457031 C 122.492188 156.457031 123.074219 156.722656 123.476562 157.199219 C 124.042969 157.878906 124.097656 158.855469 123.625 159.597656 L 114.902344 173.355469 L 116.5 175.394531 L 123.800781 168.691406 C 124.035156 168.476562 124.304688 168.324219 124.609375 168.234375 L 145.808594 161.929688 C 146 161.875 146.199219 161.851562 146.390625 161.851562 L 146.734375 161.875 L 160.738281 164.230469 L 186.164062 164.230469 C 186.996094 164.230469 187.738281 164.734375 188.058594 165.496094 C 188.367188 166.261719 188.191406 167.140625 187.609375 167.722656 L 181.363281 173.980469 L 188.695312 174.714844 L 229.210938 174.707031 C 230.117188 174.707031 230.90625 175.296875 231.171875 176.160156 C 231.433594 177.023438 231.097656 177.949219 230.347656 178.453125 L 214.535156 188.992188 L 230.484375 189.832031 L 230.792969 189.871094 L 252.902344 194.53125 C 253.773438 194.714844 254.421875 195.433594 254.515625 196.3125 C 254.613281 197.191406 254.132812 198.035156 253.316406 198.398438 L 237.449219 205.539062 L 245.640625 206.121094 L 246.054688 206.195312 L 270.496094 213.179688 C 271.304688 213.410156 271.886719 214.113281 271.964844 214.960938 C 272.046875 215.789062 271.605469 216.597656 270.847656 216.972656 L 258.789062 223.003906 L 276.464844 229.515625 L 295.089844 236.5 C 295.710938 236.730469 296.175781 237.25 296.34375 237.890625 C 296.519531 238.53125 296.367188 239.214844 295.945312 239.71875 L 285.652344 252.070312 L 306.105469 268.226562 C 306.859375 268.820312 307.097656 269.859375 306.683594 270.71875 C 306.332031 271.441406 305.609375 271.871094 304.84375 271.871094 L 304.371094 271.824219 L 289.886719 268.410156 L 297.964844 279.726562 L 329.898438 289.984375 L 378.40625 300.371094 L 418.691406 302.671875 L 449.828125 295.753906 L 473.238281 292.238281 L 473.542969 292.214844 C 473.773438 292.214844 474.003906 292.253906 474.230469 292.332031 L 510.292969 305.132812 C 510.550781 305.230469 510.78125 305.363281 510.988281 305.546875 L 536.582031 328.816406 L 562.054688 348.484375 C 562.394531 348.757812 562.652344 349.125 562.765625 349.539062 L 566.382812 362.125 L 579.183594 356.132812 L 602.179688 347.957031 L 637.125 336.316406 C 637.332031 336.246094 637.558594 336.214844 637.773438 336.214844 C 638.324219 336.214844 638.859375 336.429688 639.25 336.84375 C 639.792969 337.417969 639.960938 338.25 639.683594 338.992188 L 635.207031 350.617188 L 642.804688 349.054688 L 643.222656 349.003906 L 643.574219 349.035156 L 663.714844 352.527344 C 664.15625 352.609375 664.570312 352.832031 664.867188 353.160156 L 682.683594 372.640625 L 701.835938 387.035156 L 714.53125 396 L 728.496094 407.507812 L 744.699219 397.246094 C 745.035156 397.03125 745.410156 396.929688 745.796875 396.929688 C 746.257812 396.929688 746.730469 397.085938 747.097656 397.398438 L 753 402.3125 L 780.855469 386.71875 C 781.175781 386.542969 781.507812 386.453125 781.851562 386.453125 C 782.316406 386.453125 782.789062 386.613281 783.15625 386.925781 C 783.8125 387.46875 784.066406 388.347656 783.792969 389.144531 L 780.320312 399.574219 L 804.632812 393.5 L 805.128906 393.4375 C 805.917969 393.4375 806.660156 393.898438 806.996094 394.644531 C 807.40625 395.546875 807.101562 396.609375 806.285156 397.175781 L 781.84375 413.875 L 798.519531 416.972656 C 799.488281 417.148438 800.183594 417.988281 800.191406 418.972656 C 800.199219 419.953125 799.503906 420.800781 798.542969 420.992188 L 760.496094 428.519531 L 764.769531 432.792969 C 765.242188 433.265625 765.457031 433.9375 765.339844 434.601562 C 765.226562 435.261719 764.785156 435.8125 764.179688 436.09375 L 738.109375 448.046875 L 743.078125 458.984375 C 743.46875 459.839844 743.238281 460.839844 742.503906 461.429688 C 742.136719 461.726562 741.679688 461.878906 741.226562 461.878906 C 740.792969 461.878906 740.363281 461.742188 740.003906 461.46875 L 713.15625 441.472656 L 717.597656 449.253906 L 717.773438 449.644531 L 725.925781 475.246094 C 726.203125 476.113281 725.867188 477.058594 725.109375 477.5625 C 724.765625 477.792969 724.367188 477.90625 723.976562 477.90625 C 723.496094 477.90625 723.03125 477.746094 722.648438 477.425781 L 710.886719 467.476562 L 710.886719 477.027344 C 710.886719 477.878906 710.359375 478.640625 709.570312 478.945312 C 709.328125 479.03125 709.089844 479.070312 708.84375 479.070312 C 708.273438 479.070312 707.707031 478.832031 707.308594 478.382812 L 689.859375 458.601562 L 689.722656 458.425781 L 675.988281 438.96875 L 666.496094 432.792969 L 679 447.800781 C 679.671875 448.605469 679.625 449.796875 678.886719 450.539062 C 678.488281 450.945312 677.960938 451.148438 677.433594 451.148438 C 676.96875 451.148438 676.515625 450.996094 676.140625 450.691406 L 675.046875 449.796875 L 680.429688 455.949219 C 681.085938 456.707031 681.101562 457.828125 680.453125 458.601562 C 680.054688 459.089844 679.480469 459.335938 678.886719 459.335938 C 678.527344 459.335938 678.160156 459.25 677.832031 459.046875 L 654.632812 445.21875 L 629.367188 429.125 L 628.894531 428.71875 L 620.640625 418.867188 L 622.984375 432.164062 C 623.121094 432.945312 622.785156 433.746094 622.128906 434.199219 C 621.777344 434.441406 621.378906 434.558594 620.960938 434.558594 C 620.609375 434.558594 620.242188 434.464844 619.921875 434.273438 L 590.023438 416.542969 L 597.289062 434.679688 C 597.640625 435.558594 597.34375 436.558594 596.578125 437.109375 C 596.21875 437.355469 595.808594 437.484375 595.386719 437.484375 C 594.90625 437.484375 594.425781 437.316406 594.042969 436.980469 L 583.777344 427.992188 L 589.210938 439.691406 C 589.59375 440.519531 589.378906 441.511719 588.683594 442.109375 C 588.308594 442.429688 587.828125 442.597656 587.355469 442.597656 C 586.957031 442.597656 586.558594 442.476562 586.207031 442.246094 L 558.746094 423.710938 L 528.800781 472.183594 L 517.582031 487.957031 L 517.316406 488.269531 L 502.550781 502.019531 L 513.371094 523.671875 C 513.484375 523.878906 513.546875 524.109375 513.570312 524.339844 L 515.214844 538.042969 C 515.289062 538.699219 515.046875 539.355469 514.5625 539.792969 L 520.371094 551.019531 C 520.753906 551.761719 520.648438 552.664062 520.097656 553.304688 L 495.058594 582.117188 C 494.660156 582.5625 494.097656 582.820312 493.515625 582.820312 L 493.101562 582.769531 L 458.257812 575.582031 L 451.863281 578.878906 L 389.570312 645.714844 C 389.183594 646.128906 388.640625 646.371094 388.074219 646.371094 L 375.164062 645.410156 L 375.164062 664.5625 C 375.164062 665.699219 374.242188 666.609375 373.117188 666.609375 L 329.339844 666.609375 " fill-opacity="1" fill-rule="nonzero"/><g clip-path="url(#5e709dafc4)"><path fill="#ffffff" d="M 106.183594 141.246094 C 104.835938 141.246094 103.53125 141.925781 102.765625 143.105469 L 91.066406 161.019531 L 90.828125 161.445312 L 81.28125 180.753906 L 67.667969 209.109375 L 52.039062 222.511719 C 51.472656 222.988281 51.046875 223.621094 50.816406 224.324219 L 45.152344 241.308594 L 26.421875 271.144531 L 8.339844 299.972656 L 1.558594 307.890625 C 0.519531 309.105469 0.28125 310.804688 0.949219 312.257812 C 1.613281 313.714844 3.066406 314.640625 4.667969 314.640625 L 6.984375 314.640625 L 9.929688 333.289062 C 10.089844 334.296875 10.617188 335.207031 11.410156 335.84375 L 27.324219 348.636719 C 28.050781 349.230469 28.957031 349.546875 29.890625 349.546875 L 46.558594 349.546875 C 47.1875 349.546875 47.820312 349.394531 48.378906 349.117188 L 60.011719 343.300781 C 60.609375 342.996094 61.128906 342.558594 61.515625 342.015625 L 72.234375 327 L 91.652344 322.6875 C 91.90625 322.628906 92.15625 322.550781 92.394531 322.445312 L 119.152344 310.8125 C 119.617188 310.605469 120.046875 310.316406 120.40625 309.949219 L 132.792969 297.566406 L 152.269531 315.097656 L 162.203125 353.734375 L 158.0625 375.492188 L 158.015625 375.828125 L 155.011719 404.527344 C 154.953125 405.046875 155.003906 405.566406 155.140625 406.066406 L 163.265625 434.726562 C 163.34375 435 163.441406 435.253906 163.574219 435.503906 L 168.753906 445.425781 L 146.894531 459.191406 C 146.46875 459.464844 146.09375 459.800781 145.789062 460.199219 L 131.832031 478.816406 C 131.671875 479.039062 131.519531 479.285156 131.402344 479.542969 L 115.109375 514.441406 C 115.015625 514.648438 114.933594 514.875 114.871094 515.097656 L 108.085938 539.976562 L 93.394531 560.320312 C 92.890625 561.015625 92.617188 561.855469 92.617188 562.71875 L 92.617188 575.707031 L 83.75 593.460938 C 83.367188 594.238281 83.230469 595.117188 83.375 595.960938 L 89.054688 630.015625 C 89.277344 631.332031 90.132812 632.46875 91.347656 633.035156 C 91.898438 633.300781 92.5 633.425781 93.089844 633.425781 C 93.800781 633.425781 94.503906 633.242188 95.144531 632.875 L 127.015625 614.425781 C 127.582031 614.097656 128.0625 613.644531 128.414062 613.09375 L 139.359375 596.089844 C 140.125 594.890625 140.222656 593.375 139.597656 592.085938 L 131.808594 576.050781 C 131.226562 574.863281 130.105469 574.023438 128.796875 573.808594 L 127.453125 573.582031 L 132.886719 563.492188 C 133.023438 563.246094 133.125 562.980469 133.214844 562.71875 L 141.914062 533.441406 L 155.234375 528.871094 L 155.324219 530.636719 C 155.355469 531.421875 155.617188 532.179688 156.074219 532.820312 L 173.402344 557.074219 L 203.542969 610.40625 C 203.980469 611.191406 204.675781 611.796875 205.492188 612.15625 L 221.78125 619.132812 C 222.292969 619.355469 222.84375 619.46875 223.394531 619.46875 L 240.0625 619.46875 L 268.410156 630.8125 C 268.90625 631.007812 269.425781 631.109375 269.929688 631.109375 C 271.503906 631.109375 272.988281 630.199219 273.667969 628.671875 L 282.976562 607.730469 C 283.457031 606.660156 283.457031 605.4375 282.96875 604.375 L 271.335938 578.785156 C 270.917969 577.875 270.183594 577.136719 269.265625 576.738281 L 258.800781 572.082031 C 258.261719 571.839844 257.703125 571.730469 257.136719 571.730469 C 256.21875 571.730469 255.324219 572.03125 254.582031 572.625 L 245.589844 579.816406 L 240.015625 575.039062 C 239.34375 574.460938 238.496094 574.117188 237.609375 574.0625 L 221.398438 573.046875 L 197.558594 523.191406 L 202.3125 508.914062 L 214.40625 502.863281 L 229.914062 498.46875 L 252.488281 498.46875 C 253.300781 498.46875 254.109375 498.222656 254.789062 497.757812 L 278.308594 481.722656 L 308.574219 498.453125 C 309.109375 498.742188 309.703125 498.917969 310.308594 498.949219 L 359.277344 501.945312 L 359.527344 501.953125 C 359.757812 501.953125 360 501.9375 360.238281 501.898438 L 415.574219 492.175781 L 420.105469 498.972656 L 432.800781 517.300781 L 439.136719 529.511719 L 437.019531 532.980469 L 375.304688 528.273438 L 374.996094 528.265625 C 374.5 528.265625 374.019531 528.351562 373.558594 528.519531 L 356.84375 534.761719 C 355.875 535.128906 355.066406 535.847656 354.613281 536.789062 L 348.675781 548.832031 L 337.640625 553.710938 C 336.78125 554.097656 336.078125 554.757812 335.644531 555.597656 L 325.699219 575.125 C 325.164062 576.164062 325.105469 577.386719 325.53125 578.472656 C 325.960938 579.566406 326.832031 580.421875 327.933594 580.820312 C 328.527344 581.039062 342.546875 586.128906 356.332031 586.128906 C 364.929688 586.128906 371.695312 584.136719 376.449219 580.207031 C 377.097656 579.671875 377.558594 578.945312 377.792969 578.136719 L 382.234375 561.972656 L 415.128906 568.765625 L 412.089844 573.734375 L 393.226562 592.972656 L 359.566406 610.785156 C 358.816406 611.183594 358.199219 611.804688 357.824219 612.566406 L 351.703125 624.804688 L 341.636719 630.839844 C 340.972656 631.238281 340.429688 631.820312 340.078125 632.515625 L 331.21875 650.253906 L 331.140625 650.421875 L 325.601562 662.910156 C 325.042969 664.171875 325.15625 665.632812 325.90625 666.800781 C 326.664062 667.957031 327.949219 668.652344 329.339844 668.652344 L 373.117188 668.652344 C 375.371094 668.652344 377.207031 666.824219 377.207031 664.5625 L 377.207031 647.617188 L 387.769531 648.398438 L 388.074219 648.414062 C 389.207031 648.414062 390.296875 647.945312 391.070312 647.113281 L 453.121094 580.535156 L 458.550781 577.730469 L 492.683594 584.777344 C 492.957031 584.832031 493.238281 584.863281 493.515625 584.863281 C 494.683594 584.863281 495.816406 584.363281 496.601562 583.449219 L 521.640625 554.648438 C 522.742188 553.375 522.957031 551.570312 522.183594 550.085938 L 516.933594 539.929688 C 517.222656 539.265625 517.332031 538.53125 517.246094 537.796875 L 515.609375 524.09375 C 515.542969 523.628906 515.417969 523.175781 515.199219 522.75 L 505.0625 502.472656 L 518.707031 489.761719 C 518.914062 489.578125 519.097656 489.363281 519.257812 489.136719 L 530.398438 473.476562 L 530.539062 473.253906 L 559.359375 426.59375 L 585.070312 443.941406 C 585.757812 444.410156 586.558594 444.644531 587.355469 444.644531 C 588.308594 444.644531 589.25 444.316406 590.007812 443.667969 C 591.40625 442.46875 591.839844 440.496094 591.0625 438.828125 L 589.707031 435.894531 L 592.695312 438.515625 C 593.460938 439.1875 594.425781 439.53125 595.386719 439.53125 C 596.21875 439.53125 597.039062 439.28125 597.757812 438.777344 C 599.300781 437.683594 599.894531 435.671875 599.191406 433.921875 L 594.164062 421.375 L 618.875 436.039062 C 619.515625 436.414062 620.242188 436.605469 620.960938 436.605469 C 621.777344 436.605469 622.59375 436.367188 623.285156 435.878906 C 624.605469 434.976562 625.269531 433.386719 624.988281 431.8125 L 623.980469 426.035156 L 627.328125 430.03125 C 627.601562 430.347656 627.914062 430.628906 628.265625 430.851562 L 653.488281 446.914062 L 653.59375 446.976562 L 676.785156 460.804688 C 677.441406 461.199219 678.167969 461.382812 678.886719 461.382812 C 680.0625 461.382812 681.230469 460.878906 682.027344 459.910156 C 683.316406 458.371094 683.289062 456.117188 681.964844 454.597656 L 679.96875 452.320312 L 680.34375 451.984375 C 680.863281 451.457031 681.207031 450.828125 681.382812 450.164062 L 688.050781 459.609375 L 688.324219 459.953125 L 705.773438 479.734375 C 706.574219 480.628906 707.699219 481.117188 708.84375 481.117188 C 709.328125 481.117188 709.824219 481.035156 710.289062 480.851562 C 711.886719 480.253906 712.933594 478.726562 712.933594 477.027344 L 712.933594 471.878906 L 721.332031 478.984375 C 722.089844 479.628906 723.03125 479.949219 723.976562 479.949219 C 724.757812 479.949219 725.546875 479.726562 726.242188 479.261719 C 727.761719 478.257812 728.425781 476.363281 727.875 474.621094 L 719.722656 449.03125 L 719.667969 448.878906 L 738.78125 463.117188 C 739.507812 463.660156 740.363281 463.921875 741.226562 463.921875 C 742.136719 463.921875 743.046875 463.617188 743.789062 463.019531 C 745.242188 461.84375 745.722656 459.839844 744.949219 458.136719 L 740.808594 449.054688 L 765.035156 437.957031 C 766.25 437.394531 767.113281 436.277344 767.351562 434.960938 C 767.589844 433.640625 767.167969 432.289062 766.226562 431.347656 L 764.652344 429.78125 L 798.933594 423 C 800.859375 422.613281 802.242188 420.921875 802.234375 418.964844 C 802.226562 417 800.820312 415.320312 798.894531 414.960938 L 787.085938 412.773438 L 807.4375 398.863281 C 809.074219 397.742188 809.671875 395.609375 808.859375 393.804688 C 808.1875 392.308594 806.710938 391.390625 805.128906 391.390625 C 804.800781 391.390625 804.464844 391.429688 804.136719 391.511719 L 783.441406 396.6875 L 785.734375 389.792969 C 786.273438 388.1875 785.769531 386.429688 784.464844 385.351562 C 783.714844 384.726562 782.789062 384.40625 781.851562 384.40625 C 781.175781 384.40625 780.488281 384.582031 779.855469 384.933594 L 753.226562 399.84375 L 748.414062 395.824219 C 747.65625 395.203125 746.730469 394.882812 745.796875 394.882812 C 745.035156 394.882812 744.277344 395.089844 743.605469 395.515625 L 728.65625 404.980469 L 715.953125 394.515625 L 715.714844 394.332031 L 703.015625 385.367188 L 684.074219 371.121094 L 666.375 351.785156 C 665.769531 351.113281 664.953125 350.667969 664.058594 350.515625 L 643.925781 347.023438 C 643.691406 346.984375 643.453125 346.960938 643.222656 346.960938 C 642.941406 346.960938 642.671875 346.992188 642.398438 347.046875 L 638.460938 347.863281 L 641.582031 339.730469 C 642.160156 338.25 641.824219 336.574219 640.730469 335.429688 C 639.945312 334.605469 638.867188 334.167969 637.765625 334.167969 C 637.332031 334.167969 636.902344 334.230469 636.476562 334.375 L 601.570312 346.007812 L 578.679688 354.125 L 578.3125 354.277344 L 567.6875 359.253906 L 564.730469 348.980469 C 564.488281 348.140625 563.996094 347.40625 563.308594 346.871094 L 537.835938 327.191406 L 512.363281 304.039062 C 511.957031 303.671875 511.492188 303.382812 510.980469 303.207031 L 474.90625 290.40625 C 474.46875 290.246094 474.011719 290.167969 473.542969 290.167969 C 473.34375 290.167969 473.140625 290.183594 472.933594 290.214844 L 449.667969 293.707031 L 449.386719 293.753906 L 418.523438 300.617188 L 378.6875 298.339844 L 330.332031 287.980469 L 299.234375 277.984375 L 294.714844 271.648438 L 303.910156 273.8125 C 304.222656 273.882812 304.523438 273.917969 304.84375 273.917969 C 306.386719 273.917969 307.832031 273.046875 308.519531 271.605469 C 309.359375 269.882812 308.878906 267.804688 307.378906 266.621094 L 288.570312 251.769531 L 297.519531 241.039062 C 298.363281 240.015625 298.660156 238.648438 298.324219 237.371094 C 297.988281 236.09375 297.046875 235.046875 295.808594 234.582031 L 277.191406 227.605469 L 263.9375 222.71875 L 271.765625 218.800781 C 273.269531 218.050781 274.164062 216.445312 274.003906 214.769531 C 273.84375 213.089844 272.675781 211.675781 271.054688 211.210938 L 246.621094 204.230469 C 246.351562 204.15625 246.070312 204.101562 245.792969 204.085938 L 245.6875 204.078125 L 254.164062 200.265625 C 255.777344 199.539062 256.738281 197.851562 256.546875 196.09375 C 256.363281 194.335938 255.058594 192.898438 253.324219 192.53125 L 231.21875 187.875 C 231.019531 187.824219 230.800781 187.800781 230.59375 187.785156 L 220.800781 187.273438 L 231.480469 180.15625 C 232.984375 179.15625 233.65625 177.296875 233.128906 175.5625 C 232.609375 173.84375 231.019531 172.660156 229.210938 172.660156 L 188.695312 172.660156 L 185.859375 172.375 L 189.054688 169.167969 C 190.230469 168.003906 190.574219 166.246094 189.941406 164.710938 C 189.3125 163.183594 187.824219 162.1875 186.164062 162.1875 L 160.914062 162.1875 L 147.070312 159.863281 C 146.84375 159.820312 146.621094 159.804688 146.390625 159.804688 C 146 159.804688 145.605469 159.863281 145.230469 159.972656 L 124.027344 166.277344 C 123.425781 166.453125 122.875 166.765625 122.421875 167.179688 L 119.59375 169.777344 L 125.351562 160.691406 C 126.304688 159.199219 126.183594 157.265625 125.050781 155.898438 C 124.257812 154.941406 123.089844 154.414062 121.894531 154.414062 C 121.390625 154.414062 120.878906 154.507812 120.398438 154.699219 L 110.277344 158.703125 L 110.277344 145.335938 C 110.277344 143.53125 109.085938 141.933594 107.359375 141.421875 C 106.96875 141.300781 106.578125 141.246094 106.183594 141.246094 Z M 106.183594 145.335938 L 106.183594 164.71875 L 121.894531 158.503906 L 112.394531 173.484375 L 116.261719 178.390625 L 125.183594 170.191406 L 146.390625 163.894531 L 160.570312 166.277344 L 186.164062 166.277344 L 176.855469 175.59375 L 188.496094 176.753906 L 229.210938 176.753906 L 208.269531 190.710938 L 230.371094 191.875 L 252.488281 196.535156 L 229.210938 207 L 245.503906 208.167969 L 269.929688 215.144531 L 253.644531 223.292969 L 275.753906 231.433594 L 294.371094 238.417969 L 282.726562 252.375 L 304.84375 269.824219 L 285.0625 265.175781 L 296.695312 281.457031 L 329.277344 291.933594 L 378.144531 302.40625 L 418.859375 304.734375 L 450.273438 297.75 L 473.542969 294.257812 L 509.609375 307.058594 L 535.207031 330.324219 L 560.796875 350.109375 L 565.074219 364.992188 L 580.046875 357.984375 L 602.863281 349.890625 L 637.773438 338.257812 L 631.949219 353.382812 L 643.222656 351.050781 L 663.363281 354.542969 L 681.300781 374.164062 L 700.613281 388.675781 L 713.347656 397.679688 L 728.335938 410.023438 L 745.796875 398.972656 L 752.769531 404.789062 L 781.851562 388.5 L 777.203125 402.464844 L 805.128906 395.480469 L 776.605469 414.976562 L 798.144531 418.988281 L 756.347656 427.257812 L 763.324219 434.242188 L 735.410156 447.03125 L 741.226562 459.832031 L 706.515625 433.976562 L 715.824219 450.269531 L 723.976562 475.859375 L 708.84375 463.066406 L 708.84375 477.027344 L 691.390625 457.25 L 677.433594 437.46875 L 656.238281 423.6875 L 677.433594 449.101562 L 656.238281 431.828125 L 664.746094 441.136719 L 678.886719 457.292969 L 655.6875 443.460938 L 630.460938 427.402344 L 617.3125 411.710938 L 620.960938 432.515625 L 585.886719 411.710938 L 595.386719 435.4375 L 577.855469 420.089844 L 587.355469 440.550781 L 558.121094 420.824219 L 527.058594 471.105469 L 515.917969 486.765625 L 500.027344 501.570312 L 511.542969 524.589844 L 513.179688 538.285156 L 511.949219 539.195312 L 518.554688 551.960938 L 493.515625 580.773438 L 457.960938 573.4375 L 450.609375 577.21875 L 388.074219 644.324219 L 373.117188 643.214844 L 373.117188 664.5625 L 329.339844 664.5625 L 334.878906 652.082031 L 343.738281 634.347656 L 354.828125 627.699219 L 361.476562 614.402344 L 395.703125 596.289062 L 415.335938 576.269531 L 421.648438 565.9375 L 379.300781 557.195312 L 373.84375 577.050781 C 369.320312 580.789062 362.890625 582.035156 356.332031 582.035156 C 343.117188 582.035156 329.339844 576.980469 329.339844 576.980469 L 339.296875 557.453125 L 351.695312 551.96875 L 358.28125 538.59375 L 374.996094 532.355469 L 439.203125 537.246094 L 443.828125 529.679688 L 436.316406 515.183594 L 423.507812 496.703125 L 417.5 487.683594 L 359.527344 497.863281 L 310.558594 494.867188 L 278.078125 476.929688 L 252.488281 494.378906 L 229.347656 494.378906 L 212.921875 499.03125 L 198.964844 506.011719 L 193.144531 523.460938 L 218.746094 576.980469 L 237.355469 578.144531 L 245.503906 585.128906 L 257.136719 575.820312 L 267.605469 580.46875 L 279.246094 606.070312 L 269.929688 627.011719 L 240.855469 615.378906 L 223.394531 615.378906 L 207.105469 608.394531 L 176.855469 554.878906 L 159.40625 530.4375 L 159.0625 523.238281 L 138.59375 530.253906 L 129.292969 561.550781 L 121.140625 576.675781 L 128.125 577.839844 L 135.914062 593.878906 L 124.96875 610.878906 L 93.089844 629.335938 L 87.410156 595.292969 L 96.710938 576.675781 L 96.710938 562.71875 L 111.84375 541.777344 L 118.816406 516.175781 L 135.109375 481.269531 L 149.066406 462.652344 L 174.128906 446.878906 L 167.203125 433.609375 L 159.078125 404.949219 L 162.089844 376.25 L 166.386719 353.597656 L 155.914062 312.875 L 132.640625 291.933594 L 117.515625 307.058594 L 90.765625 318.691406 L 69.816406 323.347656 L 58.191406 339.640625 L 46.558594 345.457031 L 29.890625 345.457031 L 13.972656 332.65625 L 10.484375 310.550781 L 4.667969 310.550781 L 11.648438 302.40625 L 29.890625 273.316406 L 48.875 243.066406 L 54.699219 225.617188 L 70.980469 211.652344 L 84.941406 182.570312 L 94.496094 163.257812 L 106.183594 145.335938 " fill-opacity="1" fill-rule="nonzero"/></g></svg>