<svg xmlns="http://www.w3.org/2000/svg" xmlns:xlink="http://www.w3.org/1999/xlink" width="1080" zoomAndPan="magnify" viewBox="0 0 810 809.999993" height="1080" preserveAspectRatio="xMidYMid meet" version="1.0"><defs><clipPath id="8f999515a1"><path d="M 41.511719 0 L 768.261719 0 L 768.261719 805 L 41.511719 805 Z M 41.511719 0 " clip-rule="nonzero"/></clipPath></defs><g clip-path="url(#8f999515a1)"><path fill="#ffffff" d="M 290.117188 164.300781 C 288.433594 154.546875 285.742188 144.117188 282.042969 133.015625 C 310.636719 98.03125 329.140625 72.464844 337.550781 56.652344 C 341.25 52.953125 344.613281 49.925781 346.96875 47.90625 C 334.523438 50.261719 325.773438 54.296875 314.675781 50.261719 C 337.214844 45.886719 343.605469 16.957031 364.125 29.738281 C 363.453125 18.300781 363.117188 8.546875 363.117188 0.136719 C 370.855469 8.546875 376.574219 14.265625 380.609375 17.292969 C 395.074219 12.246094 408.195312 11.574219 420.640625 13.59375 C 428.042969 14.9375 479.511719 25.367188 492.96875 22.339844 C 482.203125 27.046875 476.148438 33.441406 464.039062 33.441406 C 494.316406 55.644531 519.882812 88.609375 546.121094 98.703125 C 534.347656 98.03125 520.890625 95.675781 505.414062 90.964844 C 528.292969 108.792969 543.09375 131.335938 549.148438 158.582031 C 538.71875 149.5 529.636719 143.445312 522.234375 140.417969 C 524.589844 173.046875 532.664062 209.042969 546.457031 230.238281 C 533.675781 219.136719 523.246094 225.527344 514.164062 219.808594 C 517.191406 253.785156 516.515625 287.089844 532.664062 304.582031 C 498.015625 291.800781 484.894531 266.234375 474.464844 253.785156 C 473.457031 277.335938 474.128906 297.519531 476.148438 314.003906 C 501.714844 345.289062 502.726562 367.15625 540.402344 379.601562 C 570.679688 392.046875 595.234375 419.96875 614.074219 462.695312 C 637.285156 455.964844 659.152344 464.710938 679.675781 489.269531 C 693.464844 498.6875 711.96875 503.734375 735.515625 504.070312 C 720.714844 507.097656 708.269531 507.773438 697.503906 506.425781 C 720.714844 515.171875 735.179688 529.300781 741.574219 548.140625 C 736.191406 542.085938 731.144531 539.058594 726.433594 539.058594 C 730.136719 562.941406 744.265625 580.097656 768.484375 590.191406 C 758.730469 591.199219 750.320312 591.199219 743.589844 589.519531 C 740.898438 616.765625 748.636719 641.324219 766.804688 662.855469 C 715.667969 671.9375 691.449219 650.070312 694.8125 596.917969 C 687.410156 567.316406 670.253906 546.457031 643.34375 534.011719 C 628.203125 522.574219 618.449219 509.453125 614.074219 495.324219 C 601.964844 529.636719 590.863281 555.542969 580.769531 573.371094 C 584.472656 612.394531 613.738281 632.914062 609.703125 644.6875 C 597.589844 699.523438 590.863281 740.566406 589.855469 768.148438 C 570.003906 771.515625 568.660156 774.542969 573.707031 782.953125 C 576.734375 800.109375 548.140625 809.863281 514.164062 801.117188 C 520.554688 781.941406 538.71875 764.113281 555.203125 756.039062 C 576.398438 704.234375 580.769531 668.910156 568.996094 649.734375 C 551.503906 631.570312 537.710938 614.75 526.945312 599.609375 C 526.945312 602.300781 527.28125 604.992188 527.28125 607.683594 C 528.628906 621.8125 530.644531 633.25 531.992188 646.035156 C 535.019531 664.199219 527.28125 668.910156 515.84375 679.339844 C 453.945312 743.929688 465.382812 762.429688 457.644531 765.796875 C 466.730469 797.753906 434.769531 796.746094 403.484375 790.6875 C 404.15625 776.222656 422.324219 761.421875 434.769531 752.339844 C 456.636719 707.261719 483.550781 658.144531 496.332031 645.363281 C 490.277344 625.175781 471.4375 605.328125 467.066406 570.34375 C 464.039062 545.785156 468.410156 519.210938 435.105469 501.714844 C 437.125 501.378906 438.808594 500.707031 440.488281 500.707031 C 437.125 500.371094 433.761719 500.371094 430.0625 500.707031 C 372.535156 490.277344 334.183594 445.535156 321.738281 387.339844 C 343.605469 384.984375 359.753906 373.882812 372.871094 360.089844 C 352.015625 373.882812 308.953125 380.945312 290.453125 371.527344 C 252.101562 352.015625 226.535156 337.214844 211.0625 331.832031 C 197.605469 345.289062 186.167969 368.5 175.738281 401.46875 C 174.730469 405.503906 173.046875 408.53125 167.664062 407.523438 C 170.691406 412.90625 188.523438 409.878906 193.566406 421.652344 C 193.902344 439.480469 188.183594 453.273438 176.410156 463.03125 C 157.234375 448.902344 146.808594 428.714844 144.453125 403.148438 C 157.910156 374.21875 169.683594 344.953125 180.113281 315.683594 C 187.511719 301.554688 199.960938 294.492188 216.78125 294.492188 C 245.710938 307.609375 269.257812 312.65625 287.425781 309.964844 C 285.070312 296.507812 298.527344 286.082031 299.535156 276.660156 C 294.488281 288.773438 278.34375 297.855469 278.003906 305.253906 C 263.875 300.546875 245.039062 285.070312 220.816406 258.160156 C 189.867188 223.84375 173.382812 221.828125 103.746094 226.199219 C 99.039062 226.199219 96.011719 224.183594 94.664062 219.808594 C 87.601562 225.863281 93.65625 234.945312 83.5625 242.011719 C 69.097656 242.347656 54.96875 237.300781 41.511719 227.882812 C 63.714844 210.726562 81.207031 199.960938 94.328125 195.585938 C 130.324219 201.304688 159.925781 202.316406 182.464844 198.277344 C 198.949219 197.605469 216.105469 206.015625 233.601562 223.84375 C 255.464844 231.917969 272.960938 239.320312 286.078125 246.382812 C 297.855469 233.265625 313.328125 224.519531 333.175781 220.144531 C 344.949219 189.53125 396.757812 151.519531 408.53125 101.394531 C 399.113281 127.96875 383.300781 140.753906 361.097656 140.082031 C 335.867188 148.492188 319.382812 158.917969 311.984375 171.03125 C 301.21875 169.347656 293.816406 167.328125 290.117188 164.300781 Z M 290.117188 164.300781 " fill-opacity="1" fill-rule="evenodd"/></g></svg>