<svg xmlns="http://www.w3.org/2000/svg" xmlns:xlink="http://www.w3.org/1999/xlink" width="1080" zoomAndPan="magnify" viewBox="0 0 810 809.999993" height="1080" preserveAspectRatio="xMidYMid meet" version="1.0"><path fill="#ffffff" d="M 669.589844 763.71875 C 665.417969 769.554688 665.792969 771.527344 674.046875 779.878906 C 662.660156 806.53125 670.214844 802.164062 610.210938 802.164062 C 638.46875 761.183594 646.546875 755.128906 640.164062 740.664062 C 638.722656 737.410156 644.683594 636.820312 593.097656 612.347656 C 578.054688 605.207031 560.820312 591.8125 547.851562 581.359375 C 584.839844 667.664062 607.007812 606.382812 531.628906 724.144531 C 520.199219 741.996094 535.976562 771.800781 501.347656 781.710938 C 500.777344 780.253906 500.546875 777.816406 499.542969 777.4375 C 496.71875 776.378906 493.148438 775.039062 490.695312 775.972656 C 488.640625 776.753906 485.9375 781.84375 486.636719 782.851562 C 490.617188 788.566406 486.390625 791.445312 483.371094 794.675781 C 472.582031 806.214844 484.765625 804.019531 420.855469 804.019531 C 440.976562 778.488281 449.40625 766.1875 463.671875 760.296875 C 481.949219 752.75 478.5 743.640625 485.554688 737.398438 C 502.429688 722.476562 524.582031 686.292969 516.785156 663.195312 C 509.847656 642.640625 518.59375 638.703125 505.664062 627.632812 C 472.582031 599.3125 440.695312 556.675781 446.746094 513.550781 C 449.429688 494.429688 455.582031 500.945312 470.9375 496.3125 C 477.113281 494.449219 474.171875 493.71875 512.359375 547.847656 L 514.214844 546.714844 C 477.410156 472.785156 483.710938 497.453125 483.710938 389.148438 C 479.394531 439.734375 466.410156 459.738281 476.023438 493.140625 C 435.191406 493.292969 384.253906 559.023438 266.839844 489.78125 C 273.738281 481.019531 275.105469 471.035156 274.011719 460.679688 C 271.761719 439.386719 292.214844 443.492188 284.585938 416.773438 L 278.300781 394.722656 C 278.300781 400.25 277.527344 405.789062 278.457031 411.023438 C 283.179688 437.644531 268.230469 441.148438 269.195312 458.726562 C 270.882812 489.332031 259.296875 483.46875 259.015625 498.339844 C 256.148438 651.019531 233.972656 636.613281 235.128906 712.484375 C 235.246094 720.253906 255.859375 745.660156 229.945312 768.527344 C 225.765625 759.589844 224.390625 758.808594 218.546875 762.03125 C 210.78125 766.316406 210.703125 768.476562 218.15625 779.660156 C 195.5 810.066406 210.492188 803.980469 146 803.980469 C 156.910156 789.320312 165.28125 774.371094 177.164062 763.140625 C 208.0625 733.945312 215.871094 671.488281 205.515625 632.960938 C 200.929688 615.898438 206.726562 597.542969 205.398438 587.449219 C 194.363281 503.816406 185.078125 501.917969 189.601562 483.488281 C 190.621094 479.347656 180.34375 463.578125 170.894531 457.90625 C 130.507812 433.644531 113.011719 379.074219 160.128906 319.929688 C 190.925781 281.261719 167.152344 296.355469 208.402344 189.9375 C 216.445312 169.179688 199.996094 174.863281 208.648438 157.484375 C 218.609375 137.464844 213.960938 109.328125 197.757812 94.945312 C 234.996094 180.890625 148.761719 162.277344 124.875 212.246094 C 121.460938 219.386719 113.429688 221.039062 106.347656 217.371094 C 99.351562 213.75 102.363281 212.359375 112.449219 194.632812 C 103.628906 201.503906 101.945312 212.898438 88.773438 209.1875 C 76.472656 205.722656 81.453125 197.722656 74.847656 188.003906 C 67.695312 177.476562 75.832031 171.210938 84.574219 157.550781 C 144.570312 63.816406 92.046875 126.664062 147.558594 57.128906 C 131.160156 49.511719 131.324219 34.167969 126.203125 19.730469 C 158.515625 48.242188 155.023438 50.4375 143.351562 3.816406 C 174.589844 43.550781 176.078125 39.214844 166.425781 55.902344 C 177.703125 53.804688 179.085938 47.996094 173.488281 27.1875 C 251.980469 3.453125 244.253906 23.707031 267.546875 7.023438 C 260.640625 19.367188 249.453125 22.074219 239.511719 26.65625 C 256.746094 26.714844 274.5625 28.664062 284.464844 9.523438 C 286.941406 11.582031 286.5 10.453125 275.542969 29.046875 C 281.996094 29.210938 286.359375 25.195312 290.480469 20.636719 C 309.160156 -0.046875 341.199219 5.34375 353.042969 31.152344 C 320.535156 17.554688 317.125 25.84375 276.984375 43.628906 C 298.917969 48.484375 317.363281 24.59375 344.585938 41.679688 C 353.617188 47.351562 381.703125 57.894531 392.34375 37.554688 C 392.300781 54.386719 380.628906 61.511719 355.210938 61.476562 C 366.863281 77.796875 381.113281 89.773438 403.773438 91.675781 C 390.363281 96.828125 390.855469 95.871094 391.417969 98.710938 C 407.601562 96.6875 400.570312 103.261719 419.625 77.53125 C 430.335938 85.378906 431.597656 103.988281 406.226562 119.941406 C 420.234375 121.980469 430.433594 118.894531 436.199219 104.324219 C 451.144531 145.003906 385.046875 176.035156 442.21875 145.792969 C 450.269531 175.738281 432.414062 194.929688 408.476562 196.039062 C 427.792969 204.027344 442.617188 195.910156 452.53125 178.207031 C 471.148438 204.210938 445.753906 227.441406 422.09375 246.132812 C 413.574219 236.550781 413.875 231.828125 423.339844 220.203125 C 389.074219 228.308594 424.792969 296.859375 460.710938 260.539062 C 464.453125 256.75 467.597656 252.371094 471.628906 247.507812 C 467.894531 272.851562 445.027344 293.664062 414.632812 281.925781 C 424.625 292.589844 442.820312 294.53125 444.625 312.648438 C 433.339844 291.425781 408.105469 303.644531 394.992188 276.652344 C 393.566406 273.710938 391.292969 271.179688 388.335938 266.921875 C 392.230469 287.039062 396.179688 304.84375 414.585938 316.695312 C 382.945312 314.347656 369.1875 291.605469 353.285156 271.898438 C 334.644531 248.789062 340.367188 223.757812 348.152344 198.800781 C 378.644531 225.769531 359.75 217.96875 352.667969 169.054688 C 344.027344 109.367188 297.140625 51.992188 217.671875 31.9375 C 216.617188 40.800781 262.257812 33.761719 309.199219 90.128906 C 374.785156 168.878906 323.261719 214.714844 341.027344 259.375 C 348.800781 278.914062 378.089844 315.183594 419.003906 324.300781 C 441.066406 329.222656 462.917969 326.160156 484.816406 323.445312 C 568.53125 313.050781 623.554688 395.417969 566.90625 505.132812 C 639.839844 411.613281 557.777344 328.539062 596.488281 371.507812 C 610.101562 386.621094 622.316406 371.9375 642.296875 375.496094 C 695.449219 384.960938 701.464844 437.078125 708.839844 473.808594 C 721.597656 537.328125 790.480469 553.65625 783.984375 528.222656 C 782.566406 522.671875 778.679688 517.746094 776.171875 513.054688 C 787.09375 517.199219 793.191406 526.835938 791.132812 537.996094 C 787.804688 556.039062 769.191406 552.195312 756.75 552.195312 C 780.695312 571.625 784.058594 577.046875 780.328125 590.832031 C 776.953125 576.136719 767.125 569.257812 753.675781 567.691406 C 726.152344 564.476562 726.085938 547.867188 715.84375 525.109375 C 715.894531 532.730469 719.925781 561.308594 731.695312 575.476562 C 742.035156 587.929688 737.609375 630.703125 789.558594 625.910156 C 772.183594 642.855469 740.246094 634.34375 716.859375 607.144531 C 725.84375 628.570312 737.65625 629.839844 739.632812 654.753906 C 741.351562 676.472656 768.972656 684.335938 787.027344 675.460938 C 762.664062 698.046875 736.085938 689.679688 708.054688 679.726562 C 720.953125 692.9375 737.230469 702.371094 737.335938 723.207031 C 703.488281 682.199219 644.699219 694.496094 662.480469 623.546875 C 669.386719 595.992188 644.425781 589.855469 629.28125 579.015625 C 608.472656 564.117188 614.480469 528.519531 627.445312 506.800781 C 644.121094 478.859375 638.519531 450.738281 626.488281 420.851562 C 623.21875 425.007812 627.535156 435.859375 627.632812 476.855469 C 627.695312 503.589844 602.75 509.867188 610.746094 550.644531 C 616.664062 580.804688 626.050781 580.996094 647.90625 593.691406 C 659.511719 600.429688 661.804688 614.136719 659.027344 624.140625 C 652.09375 649.152344 653.707031 649.417969 663.554688 695.613281 C 669.691406 724.417969 698.960938 711.246094 683.515625 763.46875 C 678.261719 757.609375 673.859375 757.765625 669.59375 763.722656 Z M 270.289062 270.019531 C 235.347656 276.589844 194.476562 313.207031 185.828125 345.046875 C 206.578125 310.742188 233.566406 286.054688 270.289062 270.019531 Z M 280.34375 147.460938 C 263.570312 184.464844 221.144531 192.152344 200.921875 225.898438 C 211.664062 214.113281 225.046875 206.875 238.851562 200.113281 C 271.226562 184.261719 282.621094 157.097656 280.34375 147.460938 Z M 88.105469 548.472656 C 85.820312 549.941406 82.457031 549.734375 79.574219 550.273438 C 79.84375 539.375 79.421875 542.804688 81.671875 538.328125 C 53.074219 517.511719 62.0625 530.824219 60.015625 477.101562 C 59.445312 462.164062 83.894531 463.003906 97.746094 468.625 C 129.894531 481.664062 141.851562 497.363281 179.828125 487.945312 C 187.242188 486.105469 188.285156 483.914062 184.019531 477.894531 C 163.625 449.097656 148.742188 460.011719 130.695312 409.351562 C 130.621094 409.144531 130.417969 408.980469 129.621094 407.949219 C 84.054688 427.792969 16.71875 389.535156 24.910156 463.460938 C 37.347656 575.675781 27.289062 558.402344 59.539062 573.300781 C 91.660156 588.136719 76.9375 585.207031 134.8125 585.207031 C 131.101562 565.757812 121.148438 550.027344 103.867188 539.316406 C 98.183594 535.789062 91.824219 546.070312 88.101562 548.46875 Z M 88.105469 548.472656 " fill-opacity="1" fill-rule="nonzero"/></svg>