<svg xmlns="http://www.w3.org/2000/svg" xmlns:xlink="http://www.w3.org/1999/xlink" width="1080" zoomAndPan="magnify" viewBox="0 0 810 809.999993" height="1080" preserveAspectRatio="xMidYMid meet" version="1.0"><defs><clipPath id="e9610d5d52"><path d="M 0 115.175781 L 810 115.175781 L 810 694.75 L 0 694.75 Z M 0 115.175781 " clip-rule="nonzero"/></clipPath></defs><g clip-path="url(#e9610d5d52)"><path fill="#ffffff" d="M 808.300781 447.746094 C 803.734375 447.746094 799.183594 444.085938 796.226562 440.902344 C 793.789062 438.285156 791.046875 435.515625 787.941406 433.683594 C 787.972656 433.859375 787.988281 434.050781 787.949219 434.257812 C 787.546875 436.34375 788.574219 438.410156 789.523438 440.210938 C 790.492188 442.070312 791.675781 443.816406 792.734375 445.628906 C 797.890625 454.460938 802.316406 455.089844 803.378906 455.3125 C 804.859375 455.621094 804.792969 457.886719 803.378906 458.222656 C 799.777344 459.113281 795.941406 458.0625 792.523438 456.839844 C 791.890625 456.613281 791.265625 456.355469 790.648438 456.078125 C 798.5 464.574219 802.511719 474.601562 802.195312 486.019531 C 802.984375 490.597656 802.902344 495.457031 802.894531 500.046875 C 802.882812 505.574219 801.960938 510.757812 800.667969 516.117188 C 799.308594 521.746094 798.457031 527.453125 798.152344 533.246094 C 798.074219 534.765625 796.175781 535.265625 795.339844 534.007812 C 793.972656 531.9375 792.839844 529.730469 791.859375 527.460938 C 791.730469 529.53125 792.566406 531.289062 793.023438 533.324219 C 794.160156 538.382812 796.71875 541.515625 796.402344 542.109375 C 796.109375 542.660156 795.542969 542.976562 794.917969 542.808594 C 793.359375 542.375 792.074219 541.042969 790.898438 540 C 789.550781 538.808594 788.148438 537.691406 786.6875 536.65625 C 785.972656 536.148438 785.191406 535.707031 784.496094 535.1875 C 784.1875 534.949219 782.746094 534.007812 782.699219 533.648438 C 782.820312 543.464844 789.988281 551.042969 790.300781 551.417969 C 791.339844 552.636719 789.949219 554.867188 788.480469 553.792969 C 783.957031 550.5 779.5625 546.910156 777.394531 541.648438 C 772.21875 533.097656 768.511719 523.902344 765.675781 514.375 C 762.425781 503.484375 758.65625 492.769531 754.140625 482.394531 C 750.863281 474.890625 744.3125 469.683594 738.351562 464.230469 C 731.375 457.878906 723.542969 453.210938 713.855469 452.410156 C 714.921875 455.503906 716.125 458.546875 717.796875 461.371094 C 720.097656 464.28125 722.558594 467.074219 724.382812 470.324219 C 725.457031 472.234375 726.292969 474.257812 727.101562 476.292969 C 727.75 477.558594 728.386719 478.828125 729.035156 480.09375 C 729.09375 480.183594 729.136719 480.261719 729.167969 480.351562 C 730.511719 482.984375 731.933594 485.570312 733.570312 487.996094 C 735.488281 490.03125 737.488281 491.972656 739.414062 493.988281 C 740.746094 495.390625 741.6875 496.890625 740.097656 498.324219 C 738.554688 499.699219 737.761719 497.882812 736.546875 496.996094 C 728.566406 491.03125 723.160156 482.996094 717.75 474.859375 C 713.871094 469.03125 708.148438 464.867188 702.953125 460.304688 C 697.445312 455.472656 691.390625 451.277344 685.667969 446.6875 C 685.207031 446.3125 684.707031 445.984375 684.230469 445.785156 C 685.339844 451.144531 686.59375 456.570312 688.34375 461.796875 C 689.960938 465.421875 691.609375 469.039062 693.335938 472.609375 C 693.675781 473.316406 694.011719 474.050781 694.257812 474.757812 C 695.335938 476.515625 696.519531 478.210938 697.851562 479.828125 C 699.09375 481.34375 697.226562 483.203125 695.71875 481.96875 C 694.375 480.867188 692.769531 479.785156 691.375 478.566406 C 690.835938 478.328125 690.402344 477.835938 690.027344 477.261719 C 689.75 476.953125 689.476562 476.640625 689.234375 476.300781 C 688.957031 475.910156 688.699219 475.492188 688.464844 475.058594 C 682.457031 468.332031 677.816406 460.503906 673.628906 452.472656 C 671.011719 449.71875 668.054688 447.359375 664.851562 445.3125 C 662.5625 443.859375 660.359375 442.328125 658.203125 440.734375 C 658.402344 441.261719 658.601562 441.792969 658.816406 442.316406 C 659.910156 444.925781 661.410156 447.234375 663.042969 449.535156 C 665.003906 452.296875 666.621094 455.246094 668.078125 458.273438 C 668.171875 458.464844 668.269531 458.664062 668.363281 458.863281 C 668.402344 458.945312 668.445312 459.023438 668.480469 459.105469 C 669.421875 461.046875 670.269531 463.039062 671.089844 465.03125 C 671.839844 466.832031 668.921875 467.597656 668.179688 465.839844 C 667.101562 463.265625 665.945312 460.757812 664.6875 458.3125 C 664.292969 457.597656 663.878906 456.886719 663.4375 456.195312 C 661.636719 453.386719 659.242188 451.105469 657.101562 448.570312 C 656.25 447.5625 655.484375 446.503906 654.777344 445.417969 C 655.519531 447.710938 656.382812 449.9375 657.828125 451.929688 C 658.191406 452.445312 658.160156 452.945312 657.925781 453.335938 C 657.75 454.429688 656.375 455.28125 655.417969 454.238281 C 651.59375 450.078125 649.03125 445.160156 646.574219 440.167969 C 646.347656 439.769531 646.105469 439.390625 645.875 438.992188 C 644.683594 436.910156 643.617188 434.78125 642.75 432.589844 C 641.621094 430.492188 640.398438 428.449219 638.996094 426.515625 C 633.554688 418.996094 625.734375 413.429688 621.453125 405.152344 C 621.226562 404.96875 620.992188 404.808594 620.742188 404.691406 C 621.886719 413.363281 628.113281 420.40625 633.820312 426.730469 C 635.121094 428.171875 633.105469 430.199219 631.679688 428.863281 C 627.929688 425.339844 624.144531 421.730469 620.882812 417.722656 C 623.726562 425.214844 628.828125 432.164062 631.820312 439.75 C 632.144531 440.292969 632.394531 440.882812 632.453125 441.441406 C 632.480469 441.527344 632.511719 441.609375 632.539062 441.691406 C 632.953125 442.910156 631.855469 443.636719 630.863281 443.492188 C 629.804688 443.695312 628.976562 442.695312 627.960938 441.734375 C 622.445312 436.417969 619.050781 429.480469 613.75 424.070312 C 610.582031 420.820312 606.871094 418.105469 603.445312 415.101562 C 597.796875 410.179688 594.921875 403.324219 592.144531 396.816406 C 587.859375 386.746094 583.574219 376.476562 582.140625 365.5 C 581.410156 359.949219 577.816406 356.097656 575.523438 351.472656 C 574.980469 350.371094 573.664062 349.980469 572.640625 350.339844 C 571.296875 350.8125 571.808594 352.214844 571.855469 353.304688 C 572.113281 362.300781 575.792969 369.96875 580.191406 377.6875 C 588.734375 392.722656 591.9375 409.0625 590.453125 426.414062 C 588.933594 444.195312 587.726562 462.03125 586.667969 479.859375 C 585.910156 492.496094 591.828125 503.140625 597.203125 514.011719 C 601.570312 522.828125 610.007812 528.171875 614.992188 536.433594 C 616.683594 539.242188 618.175781 542.082031 618.507812 545.117188 C 620.25 560.4375 625.695312 574.921875 628.445312 590.035156 C 630.4375 600.980469 632.285156 612.183594 636.628906 622.675781 C 639.105469 628.703125 644.664062 632.144531 648.089844 637.371094 C 650.410156 640.945312 653.148438 644.648438 653.835938 648.539062 C 655 655.09375 658.007812 660.195312 661.886719 665.300781 C 663.71875 667.6875 664.078125 671.1875 665.136719 674.179688 C 666.554688 678.191406 664.335938 679.949219 661.042969 681.414062 C 659.4375 682.117188 659.835938 684.125 660 685.542969 C 660.710938 691.785156 653.894531 696.300781 648.089844 694.242188 C 642.679688 692.332031 637.015625 692.160156 631.613281 690.625 C 626.644531 689.199219 623.359375 686.816406 624.09375 680.824219 C 625.9375 665.945312 620.894531 652.917969 614.707031 639.5625 C 610.722656 630.996094 607.742188 621.511719 605.324219 612.15625 C 602.871094 602.597656 597.730469 594.410156 593.203125 585.941406 C 589.503906 578.992188 586.59375 571.507812 581.023438 565.679688 C 568.546875 552.644531 558.476562 537.65625 547.078125 523.769531 C 541.609375 517.109375 537.25 509.417969 530.757812 503.808594 C 520.988281 495.347656 512.050781 486.046875 502.75 477.136719 C 495.089844 469.789062 487.253906 462.589844 478.9375 456.121094 C 466.132812 446.175781 451.105469 442.351562 434.757812 443.941406 C 408.9375 446.445312 383.03125 445.660156 357.375 442.820312 C 337.871094 440.675781 318.742188 435.167969 299.867188 429.625 C 280.964844 424.070312 262.984375 415.785156 244.964844 407.867188 C 236.589844 404.183594 229.144531 398.265625 221.59375 392.890625 C 219.675781 391.515625 218.125 390.789062 216.089844 391.316406 C 210.375 392.832031 205.089844 391.125 200.277344 388.574219 C 196.289062 386.472656 192.234375 385.628906 187.925781 385.195312 C 174.65625 383.863281 161.445312 381.929688 148.082031 381.628906 C 142.40625 381.488281 141.515625 382.363281 144.339844 387.1875 C 148.535156 394.339844 150.800781 402.507812 156.386719 408.984375 C 158.195312 411.085938 159.902344 412.746094 162.347656 413.59375 C 165.730469 414.769531 168.980469 416.277344 171.246094 418.996094 C 173.65625 421.878906 175.742188 421.457031 178.382812 419.570312 C 185.132812 414.753906 198.152344 416.535156 203.703125 422.605469 C 208.488281 427.847656 212.082031 433.851562 215.660156 439.859375 C 219.84375 446.886719 217.035156 451.878906 208.957031 452.980469 C 196.726562 454.65625 185.601562 449.84375 174.171875 447.152344 C 170.128906 446.1875 169.253906 447.167969 169.382812 450.429688 C 169.523438 453.636719 167.847656 456.1875 167.003906 459.023438 C 165.589844 463.78125 161.5625 464.472656 158.578125 462.554688 C 146.675781 454.886719 131.863281 451.1875 124.363281 437.21875 C 122.621094 433.957031 118.050781 432.265625 113.835938 431.464844 C 105.714844 429.925781 103.492188 427.546875 102.40625 419.371094 C 100.730469 406.875 99.007812 394.382812 97.632812 381.855469 C 97.03125 376.386719 93.878906 372.085938 91.613281 367.492188 C 88.203125 360.609375 91.28125 353.132812 94.78125 349.390625 C 98.648438 345.269531 103.238281 341.8125 107.40625 337.960938 C 109.308594 336.210938 111.632812 336.628906 113.792969 336.375 C 125.972656 334.992188 138.25 337.027344 150.5 335.066406 C 156.144531 334.160156 158.238281 332.242188 157.910156 326.441406 C 157.429688 318 157.621094 309.679688 154.011719 301.585938 C 152.445312 298.058594 153.136719 293.402344 153.210938 289.273438 C 153.425781 277.328125 147.492188 267.859375 140.800781 258.859375 C 135.40625 251.605469 128.238281 244.589844 120.613281 239.664062 C 112.851562 234.652344 105.273438 234.554688 96.472656 236.394531 C 90.722656 237.597656 85.542969 240.386719 81.628906 244.804688 C 77.785156 249.148438 75.324219 254.660156 71.683594 259.375 C 66.730469 265.777344 60.898438 271.011719 54.53125 275.738281 C 50.4375 278.789062 47.828125 281.898438 48.335938 287.605469 C 48.988281 294.960938 46.660156 297.386719 39.835938 299.792969 C 37.257812 300.710938 34.851562 302.269531 32.53125 303.746094 C 24.722656 308.730469 20.921875 308.761719 14.277344 302.253906 C 9.820312 297.886719 5.609375 293.015625 2.398438 287.683594 C -1.898438 280.574219 0.324219 272.769531 3.242188 265.851562 C 6.578125 257.96875 7.300781 249.546875 9.835938 241.496094 C 13.644531 229.386719 17.796875 217.449219 22.339844 205.605469 C 24.480469 200.003906 25.28125 194.054688 27.457031 188.394531 C 30.191406 181.300781 32.789062 174.214844 36.898438 167.804688 C 38.691406 164.996094 38.84375 162.753906 35.75 160.613281 C 29.046875 155.976562 27.882812 146.902344 21.222656 142.132812 C 20.863281 141.859375 20.996094 140.03125 21.496094 139.597656 C 23.273438 138.023438 25.691406 138.238281 27.3125 139.398438 C 29.933594 141.273438 32.875 142.265625 35.625 143.734375 C 40.824219 146.476562 45.050781 144.742188 48.894531 141.789062 C 51.785156 139.566406 54.835938 138.433594 58.203125 138.597656 C 63.363281 138.867188 65.683594 136.503906 66.5 131.65625 C 66.640625 130.8125 66.742188 129.878906 66.949219 128.988281 C 66.957031 128.878906 66.941406 128.769531 66.980469 128.65625 C 67.222656 128.003906 67.449219 127.335938 67.707031 126.679688 C 67.957031 126.054688 68.242188 125.445312 68.683594 124.945312 C 68.992188 124.519531 69.367188 124.160156 69.90625 123.945312 C 70.515625 123.703125 71.125 123.746094 71.707031 123.9375 C 71.773438 123.960938 71.839844 123.996094 71.90625 124.019531 C 72.292969 124.171875 72.667969 124.378906 73.007812 124.652344 C 74.066406 125.496094 74.851562 126.703125 75.460938 127.902344 C 76.058594 129.078125 76.527344 130.3125 77.109375 131.488281 C 77.328125 131.921875 77.585938 132.332031 77.84375 132.746094 C 78.816406 133.207031 80 133.082031 81.328125 132.679688 C 83.492188 132.046875 85.527344 130.945312 87.863281 131.144531 C 99.191406 132.105469 108.964844 126.546875 119.253906 123.394531 C 121.503906 122.703125 123.789062 121.386719 126.113281 121.445312 C 137.949219 121.777344 148.609375 115.886719 160.3125 115.359375 C 170.941406 114.894531 181.464844 115.257812 191.878906 117.101562 C 199.8125 118.492188 206.878906 122.488281 214.300781 125.386719 C 215.316406 125.785156 215.832031 126.472656 215.691406 127.535156 C 215.515625 129.070312 214.167969 129.179688 213.125 129.097656 C 210.707031 128.9375 208.414062 128.527344 206.074219 127.503906 C 205.515625 127.261719 204.957031 127.046875 204.398438 126.835938 C 202.046875 126.488281 199.570312 126.621094 197.289062 126.847656 C 195.011719 127.078125 192.71875 127.613281 190.726562 128.695312 C 203.203125 130.464844 215.164062 135.382812 228.242188 133.886719 C 239.457031 132.605469 250.839844 132.953125 262.136719 134.128906 C 270.921875 135.054688 278.816406 139.757812 287.757812 139.972656 C 289.101562 140.015625 289.792969 141.148438 289.691406 142.332031 C 289.566406 143.882812 288.042969 143.683594 287.066406 143.640625 C 278.988281 143.175781 270.921875 142.417969 262.828125 142.132812 C 255.417969 141.875 247.988281 142.089844 240.515625 142.597656 C 250.875 143.566406 260.261719 148.667969 270.679688 149.152344 C 271.769531 149.199219 272.945312 149.515625 273.871094 150.074219 C 274.761719 150.601562 276.023438 151.21875 275.765625 152.578125 C 275.496094 154.042969 274.136719 154 273.054688 153.984375 C 267.96875 153.851562 262.84375 154.253906 257.816406 153.183594 C 251.851562 151.933594 245.847656 152.25 238.214844 152.203125 C 241.195312 153.800781 242.8125 155.417969 244.457031 155.433594 C 253.699219 155.527344 261.625 160.511719 270.488281 162.019531 C 277.628906 163.222656 283.414062 167.464844 288.601562 172.105469 C 290.707031 173.972656 292.957031 174.929688 295.261719 175.890625 C 297.042969 176.632812 297.785156 177.640625 297.242188 179.230469 C 296.683594 180.875 295.035156 180.40625 293.828125 180.042969 C 291.699219 179.414062 289.542969 179.097656 287.640625 177.539062 C 284.40625 174.882812 280.496094 173.613281 275.890625 173.429688 C 283.058594 182.507812 290.851562 190.011719 301.269531 194.746094 C 308.605469 198.070312 313.964844 204.65625 321.140625 208.496094 C 322.230469 209.066406 322.414062 210.40625 321.742188 211.492188 C 321.007812 212.683594 319.75 212.222656 318.648438 212.148438 C 314.496094 211.808594 311.8125 207.839844 307.238281 207.496094 C 308.636719 211.949219 312.414062 213.816406 315.421875 216.265625 C 317.972656 218.367188 320.839844 220.117188 323.707031 221.765625 C 325.308594 222.683594 326.867188 223.800781 326.410156 225.550781 C 325.792969 227.910156 323.589844 226.503906 322.042969 226.578125 C 321.125 226.625 320.207031 226.503906 318.863281 226.441406 C 319.648438 232.109375 323.90625 235.460938 327.617188 237.480469 C 335.292969 241.679688 339.019531 248.816406 343.789062 255.25 C 347.628906 260.449219 352.441406 264.085938 358.234375 266.863281 C 364.550781 269.917969 370.558594 273.597656 376.6875 277.054688 C 384.796875 281.625 393.25 285.664062 402.160156 288.148438 C 417.488281 292.441406 433.007812 295.953125 448.652344 299.035156 C 459.023438 301.078125 469.125 305.09375 479.617188 306.585938 C 488.585938 307.871094 497.523438 309.4375 505.976562 312.269531 C 515.085938 315.3125 523.753906 319.863281 532.296875 324.332031 C 545.882812 331.425781 560.320312 332.769531 574.90625 330.109375 C 580.335938 329.117188 585.382812 324.890625 590.136719 321.472656 C 603.003906 312.214844 617.152344 307.460938 633.046875 307.128906 C 645.082031 306.871094 656.699219 309.152344 667.945312 312.6875 C 673.765625 314.53125 678.40625 319.390625 682.089844 324.582031 C 686.648438 331.015625 690.652344 337.929688 695.84375 343.804688 C 702.414062 351.230469 711.957031 353.105469 721.273438 354.933594 C 726.574219 355.980469 731.886719 356.980469 737.152344 358.207031 C 744.097656 358.964844 750.65625 361.800781 755.964844 366.390625 C 757.300781 367.550781 755.574219 369.570312 754.132812 368.761719 C 753.550781 368.441406 752.972656 368.132812 752.390625 367.828125 C 752.257812 367.808594 752.117188 367.792969 751.980469 367.734375 C 745.15625 364.640625 737.746094 365.335938 730.601562 366.949219 C 730.71875 367 730.835938 367.058594 730.953125 367.109375 C 735.910156 369.359375 741.046875 370.769531 746.148438 372.628906 C 754.648438 375.734375 761.175781 382.039062 769.117188 386.203125 C 770.386719 386.863281 770.871094 388.421875 770.300781 389.65625 C 769.3125 391.730469 767.25 390.507812 766.433594 389.871094 C 759.941406 384.796875 752.164062 382.089844 744.957031 378.535156 C 744.714844 378.410156 744.457031 378.296875 744.214844 378.171875 C 740.285156 377.394531 736.210938 376.988281 732.261719 376.226562 C 734.71875 378.070312 737.101562 380.046875 739.652344 381.804688 C 742.460938 383.730469 745.421875 385.03125 748.648438 386.097656 C 751.789062 387.136719 754.949219 388.164062 757.683594 390.082031 C 759.265625 391.183594 757.90625 393.605469 756.164062 392.683594 C 751.648438 390.316406 746.878906 388.515625 741.9375 387.324219 C 743.621094 388.421875 745.332031 389.457031 747.089844 390.429688 C 749.914062 391.992188 752.75 393.539062 755.605469 395.058594 C 760.984375 397.925781 766.394531 400.742188 771.777344 403.609375 C 776.613281 406.183594 782.171875 408.46875 785.988281 412.535156 C 787.921875 414.59375 790.40625 416.222656 792.957031 417.40625 C 795.464844 418.570312 797.867188 420.421875 800.699219 420.671875 C 801.152344 420.714844 801.625 420.714844 802.050781 420.886719 C 803.492188 421.472656 802.617188 423.554688 801.328125 423.695312 C 797.875 424.0625 794.417969 423.796875 790.992188 423.296875 C 790.765625 423.261719 790.539062 423.214844 790.308594 423.179688 C 793.300781 425.523438 795.839844 428.441406 797.675781 431.789062 C 798.941406 434.109375 799.683594 436.667969 800.941406 438.992188 C 802.050781 441.058594 803.726562 442.601562 805.558594 444.003906 C 806.695312 444.585938 807.859375 445.136719 809.035156 445.675781 C 810.796875 446.484375 810.230469 447.746094 808.300781 447.746094 " fill-opacity="1" fill-rule="nonzero"/></g></svg>